<?xml version="1.0" encoding="UTF-8"?>
<!DOCTYPE svg PUBLIC "-//W3C//DTD SVG 1.1//EN" "http://www.w3.org/Graphics/SVG/1.1/DTD/svg11.dtd">
<svg xmlns="http://www.w3.org/2000/svg" version="1.1" width="1024px" height="1024px" style="shape-rendering:geometricPrecision; text-rendering:geometricPrecision; image-rendering:optimizeQuality; fill-rule:evenodd; clip-rule:evenodd" xmlns:xlink="http://www.w3.org/1999/xlink">
<g><path style="opacity:0.992" fill="#9cdcfc" d="M 518.5,124.5 C 521.891,125.529 524.557,127.529 526.5,130.5C 526.565,130.938 526.399,131.272 526,131.5C 522.223,127.862 517.723,125.695 512.5,125C 514.473,124.505 516.473,124.338 518.5,124.5 Z"/></g>
<g><path style="opacity:0.984" fill="#9cdbfb" d="M 531.5,134.5 C 535.252,137.041 538.585,140.041 541.5,143.5C 541.565,143.938 541.399,144.272 541,144.5C 537.167,141.333 533.333,138.167 529.5,135C 530.094,134.536 530.761,134.369 531.5,134.5 Z"/></g>
<g><path style="opacity:0.004" fill="#94cff3" d="M 550.5,148.5 C 551.833,149.167 551.833,149.167 550.5,148.5 Z"/></g>
<g><path style="opacity:0.004" fill="#94cff3" d="M 469.5,152.5 C 468.833,151.167 468.833,151.167 469.5,152.5 Z"/></g>
<g><path style="opacity:0.004" fill="#94cff3" d="M 562.5,159.5 C 563.833,160.167 563.833,160.167 562.5,159.5 Z"/></g>
<g><path style="opacity:0.949" fill="#9ad9fb" d="M 505.5,124.5 C 507.527,124.338 509.527,124.505 511.5,125C 507.123,125.188 503.123,126.521 499.5,129C 480.843,146.412 461.676,163.246 442,179.5C 441.601,179.272 441.435,178.938 441.5,178.5C 442.5,177.167 443.5,175.833 444.5,174.5C 453.437,167.863 461.77,160.53 469.5,152.5C 478.843,145.146 487.843,137.313 496.5,129C 498.976,126.429 501.976,124.929 505.5,124.5 Z"/></g>
<g><path style="opacity:0.004" fill="#94cff3" d="M 444.5,174.5 C 443.833,173.167 443.833,173.167 444.5,174.5 Z"/></g>
<g><path style="opacity:0.004" fill="#94cff3" d="M 440.5,175.5 C 441.833,176.167 441.833,176.167 440.5,175.5 Z"/></g>
<g><path style="opacity:0.973" fill="#9bdafb" d="M 437.5,181.5 C 438.239,181.369 438.906,181.536 439.5,182C 424.291,195.866 408.958,209.2 393.5,222C 394.71,220.961 395.71,219.794 396.5,218.5C 396.833,217.833 397.167,217.167 397.5,216.5C 410.833,204.833 424.167,193.167 437.5,181.5 Z"/></g>
<g><path style="opacity:0.976" fill="#9ad9fb" d="M 544.5,145.5 C 550.5,150.5 556.5,155.5 562.5,160.5C 580.5,176.833 598.5,193.167 616.5,209.5C 616.565,209.938 616.399,210.272 616,210.5C 591.366,189.108 566.866,167.608 542.5,146C 543.094,145.536 543.761,145.369 544.5,145.5 Z"/></g>
<g><path style="opacity:0.004" fill="#94cff3" d="M 604.5,192.5 C 605.833,193.167 605.833,193.167 604.5,192.5 Z"/></g>
<g><path style="opacity:0.004" fill="#94cff3" d="M 412.5,200.5 C 413.833,201.167 413.833,201.167 412.5,200.5 Z"/></g>
<g><path style="opacity:0.004" fill="#94cff3" d="M 397.5,216.5 C 396.761,216.631 396.094,216.464 395.5,216C 396.437,215.308 397.103,215.475 397.5,216.5 Z"/></g>
<g><path style="opacity:0.004" fill="#94cff3" d="M 391.5,216.5 C 392.833,217.167 392.833,217.167 391.5,216.5 Z"/></g>
<g><path style="opacity:0.004" fill="#94cff3" d="M 393.5,219.5 C 392.833,218.167 392.833,218.167 393.5,219.5 Z"/></g>
<g><path style="opacity:0.988" fill="#99d8fa" d="M 619.5,211.5 C 625.823,216.491 631.823,221.824 637.5,227.5C 637.631,228.239 637.464,228.906 637,229.5C 630.526,223.695 624.026,217.862 617.5,212C 618.094,211.536 618.761,211.369 619.5,211.5 Z"/></g>
<g><path style="opacity:0.004" fill="#94cff3" d="M 384.5,227.5 C 383.833,226.167 383.833,226.167 384.5,227.5 Z"/></g>
<g><path style="opacity:0.961" fill="#9bdafb" d="M 384.5,227.5 C 384.833,227.5 385.167,227.5 385.5,227.5C 386.239,227.369 386.906,227.536 387.5,228C 373.649,240.685 359.649,253.185 345.5,265.5C 344.537,265.03 344.537,264.363 345.5,263.5C 358.5,251.5 371.5,239.5 384.5,227.5 Z"/></g>
<g><path style="opacity:0.004" fill="#94cff3" d="M 665.5,250.5 C 666.833,251.167 666.833,251.167 665.5,250.5 Z"/></g>
<g><path style="opacity:0.971" fill="#9ad9fb" d="M 640.5,230.5 C 649.019,237.262 657.352,244.262 665.5,251.5C 669.806,255.14 673.806,259.14 677.5,263.5C 677.565,263.938 677.399,264.272 677,264.5C 663.871,253.706 651.038,242.54 638.5,231C 639.094,230.536 639.761,230.369 640.5,230.5 Z"/></g>
<g><path style="opacity:0.004" fill="#94cff3" d="M 678.5,260.5 C 679.833,261.167 679.833,261.167 678.5,260.5 Z"/></g>
<g><path style="opacity:0.99" fill="#9ad9fb" d="M 680.5,265.5 C 686.129,269.461 691.129,274.127 695.5,279.5C 695.565,279.938 695.399,280.272 695,280.5C 689.5,275.667 684,270.833 678.5,266C 679.094,265.536 679.761,265.369 680.5,265.5 Z"/></g>
<g><path style="opacity:0.004" fill="#94cff3" d="M 332.5,271.5 C 333.833,272.167 333.833,272.167 332.5,271.5 Z"/></g>
<g><path style="opacity:0.004" fill="#94cff3" d="M 327.5,273.5 C 328.833,274.167 328.833,274.167 327.5,273.5 Z"/></g>
<g><path style="opacity:0.004" fill="#94cff3" d="M 330.5,275.5 C 329.833,274.167 329.833,274.167 330.5,275.5 Z"/></g>
<g><path style="opacity:0.995" fill="#96d6fe" d="M 518.5,124.5 C 516.473,124.338 514.473,124.505 512.5,125C 517.723,125.695 522.223,127.862 526,131.5C 526.399,131.272 526.565,130.938 526.5,130.5C 528.749,131.08 530.415,132.413 531.5,134.5C 530.761,134.369 530.094,134.536 529.5,135C 533.333,138.167 537.167,141.333 541,144.5C 541.399,144.272 541.565,143.938 541.5,143.5C 543.027,143.427 544.027,144.094 544.5,145.5C 543.761,145.369 543.094,145.536 542.5,146C 566.866,167.608 591.366,189.108 616,210.5C 616.399,210.272 616.565,209.938 616.5,209.5C 618.027,209.427 619.027,210.094 619.5,211.5C 618.761,211.369 618.094,211.536 617.5,212C 624.026,217.862 630.526,223.695 637,229.5C 637.464,228.906 637.631,228.239 637.5,227.5C 638.833,228.167 639.833,229.167 640.5,230.5C 639.761,230.369 639.094,230.536 638.5,231C 651.038,242.54 663.871,253.706 677,264.5C 677.399,264.272 677.565,263.938 677.5,263.5C 679.027,263.427 680.027,264.094 680.5,265.5C 679.761,265.369 679.094,265.536 678.5,266C 684,270.833 689.5,275.667 695,280.5C 695.399,280.272 695.565,279.938 695.5,279.5C 697.027,279.427 698.027,280.094 698.5,281.5C 697.761,281.369 697.094,281.536 696.5,282C 716.833,300.333 737.167,318.667 757.5,337C 759.635,337.605 759.969,337.105 758.5,335.5C 763.132,338.798 767.466,342.464 771.5,346.5C 770.761,346.369 770.094,346.536 769.5,347C 777.049,354.783 785.049,361.283 793.5,366.5C 795.404,366.738 796.738,367.738 797.5,369.5C 796.761,369.369 796.094,369.536 795.5,370C 826.446,397.958 857.613,425.458 889,452.5C 889.399,452.272 889.565,451.938 889.5,451.5C 891.027,451.427 892.027,452.094 892.5,453.5C 891.761,453.369 891.094,453.536 890.5,454C 895.508,458.379 900.508,462.712 905.5,467C 915.075,474.242 919.075,483.742 917.5,495.5C 917.806,498.385 917.473,501.052 916.5,503.5C 916.663,501.143 916.497,498.81 916,496.5C 914.684,503.39 913.851,510.057 913.5,516.5C 912.778,521.489 912.612,526.489 913,531.5C 913.183,528.635 913.683,525.969 914.5,523.5C 913.996,533.361 912.996,543.027 911.5,552.5C 911.419,538.052 910.752,538.218 909.5,553C 908.639,558.822 908.473,564.656 909,570.5C 909.186,567.964 909.686,565.631 910.5,563.5C 910.55,569.389 909.884,575.056 908.5,580.5C 908.663,578.143 908.497,575.81 908,573.5C 906.036,584.434 905.036,595.434 905,606.5C 905.661,600.995 906.494,595.662 907.5,590.5C 907.221,599.719 906.221,608.719 904.5,617.5C 904.665,614.482 904.498,611.482 904,608.5C 902.368,617.78 901.702,627.113 902,636.5C 902.182,631.253 903.016,626.253 904.5,621.5C 904.281,628.424 903.281,635.09 901.5,641.5C 901.657,640.127 901.49,638.793 901,637.5C 900.456,643.087 897.956,647.587 893.5,651C 882.833,657.667 872.167,664.333 861.5,671C 862.094,671.464 862.761,671.631 863.5,671.5C 862.486,672.674 861.153,673.34 859.5,673.5C 859.44,672.957 859.107,672.624 858.5,672.5C 855.281,674.894 851.947,677.061 848.5,679C 849.094,679.464 849.761,679.631 850.5,679.5C 849.71,680.401 848.71,681.068 847.5,681.5C 847.631,680.761 847.464,680.094 847,679.5C 832.275,688.709 818.108,697.542 804.5,706C 791.833,714 779.167,722 766.5,730C 767.094,730.464 767.761,730.631 768.5,730.5C 767.101,731.89 765.434,732.89 763.5,733.5C 764.463,732.637 764.463,731.97 763.5,731.5C 759.032,734.137 754.698,736.97 750.5,740C 751.094,740.464 751.761,740.631 752.5,740.5C 751.486,741.674 750.153,742.34 748.5,742.5C 748.44,741.957 748.107,741.624 747.5,741.5C 743.167,744.333 738.833,747.167 734.5,750C 735.094,750.464 735.761,750.631 736.5,750.5C 735.486,751.674 734.153,752.34 732.5,752.5C 732.103,751.475 731.437,751.308 730.5,752C 722.833,757 715.167,762 707.5,767C 708.094,767.464 708.761,767.631 709.5,767.5C 708.486,768.674 707.153,769.34 705.5,769.5C 705.103,768.475 704.437,768.308 703.5,769C 692.167,776.333 680.833,783.667 669.5,791C 670.094,791.464 670.761,791.631 671.5,791.5C 669.651,792.593 667.984,793.926 666.5,795.5C 665.833,795.5 665.167,795.5 664.5,795.5C 664.44,794.957 664.107,794.624 663.5,794.5C 641.054,808.438 618.72,822.605 596.5,837C 597.094,837.464 597.761,837.631 598.5,837.5C 596.206,839.653 593.54,841.32 590.5,842.5C 589.279,841.535 587.946,841.702 586.5,843C 580.833,846.667 575.167,850.333 569.5,854C 570.094,854.464 570.761,854.631 571.5,854.5C 570.101,855.89 568.434,856.89 566.5,857.5C 566.44,856.957 566.107,856.624 565.5,856.5C 559.345,860.167 553.345,864 547.5,868C 548.094,868.464 548.761,868.631 549.5,868.5C 545.656,870.922 541.99,873.589 538.5,876.5C 536.313,877.758 533.98,878.758 531.5,879.5C 531.44,878.957 531.107,878.624 530.5,878.5C 523.293,884.844 514.959,887.011 505.5,885C 483.83,872.167 462.497,858.834 441.5,845C 440.563,844.308 439.897,844.475 439.5,845.5C 438.508,845.672 437.842,845.338 437.5,844.5C 438.043,844.44 438.376,844.107 438.5,843.5C 418.167,830.667 397.833,817.833 377.5,805C 376.563,804.308 375.897,804.475 375.5,805.5C 374.391,805.443 373.391,805.11 372.5,804.5C 372.5,804.167 372.5,803.833 372.5,803.5C 373.239,803.631 373.906,803.464 374.5,803C 362.001,794.916 349.334,787.083 336.5,779.5C 335.893,779.624 335.56,779.957 335.5,780.5C 333.973,780.573 332.973,779.906 332.5,778.5C 334.379,778.607 334.712,778.107 333.5,777C 281.015,744.104 228.348,711.771 175.5,680C 176.056,680.383 176.389,680.883 176.5,681.5C 174.847,681.34 173.514,680.674 172.5,679.5C 174.379,679.607 174.712,679.107 173.5,678C 158.5,668.833 143.5,659.667 128.5,650.5C 127.185,648.684 125.685,647.017 124,645.5C 121.831,632.746 119.997,620.079 118.5,607.5C 118.427,601.105 117.761,594.772 116.5,588.5C 115.893,588.624 115.56,588.957 115.5,589.5C 113.857,580.712 112.857,571.712 112.5,562.5C 113.161,560.866 113.494,559.033 113.5,557C 112.917,548.636 111.917,540.469 110.5,532.5C 109.498,517.313 108.165,502.146 106.5,487C 106.854,484.122 107.021,481.289 107,478.5C 106.722,479.416 106.222,480.082 105.5,480.5C 106.675,474.474 110.008,470.141 115.5,467.5C 115.897,468.525 116.563,468.692 117.5,468C 148.551,440.276 179.551,412.609 210.5,385C 209.906,384.536 209.239,384.369 208.5,384.5C 208.973,383.094 209.973,382.427 211.5,382.5C 211.897,383.525 212.563,383.692 213.5,383C 226.311,371.099 239.311,359.432 252.5,348C 251.906,347.536 251.239,347.369 250.5,347.5C 251.262,345.738 252.596,344.738 254.5,344.5C 254.435,344.938 254.601,345.272 255,345.5C 284.5,319.333 314,293.167 343.5,267C 342.906,266.536 342.239,266.369 341.5,266.5C 342.545,265.122 343.878,264.122 345.5,263.5C 344.537,264.363 344.537,265.03 345.5,265.5C 359.649,253.185 373.649,240.685 387.5,228C 386.906,227.536 386.239,227.369 385.5,227.5C 388.473,225.194 391.14,222.527 393.5,219.5C 394.391,218.89 395.391,218.557 396.5,218.5C 395.71,219.794 394.71,220.961 393.5,222C 408.958,209.2 424.291,195.866 439.5,182C 438.906,181.536 438.239,181.369 437.5,181.5C 438.262,179.738 439.596,178.738 441.5,178.5C 441.435,178.938 441.601,179.272 442,179.5C 461.676,163.246 480.843,146.412 499.5,129C 503.123,126.521 507.123,125.188 511.5,125C 509.527,124.505 507.527,124.338 505.5,124.5C 509.852,121.939 514.185,121.939 518.5,124.5 Z M 465.5,186.5 C 465.938,187.506 466.604,187.506 467.5,186.5C 467.25,188.674 466.25,190.341 464.5,191.5C 464.167,192.833 463.833,194.167 463.5,195.5C 462.326,196.514 461.66,197.847 461.5,199.5C 461.167,199.5 460.833,199.5 460.5,199.5C 450.846,217.473 441.179,235.473 431.5,253.5C 430.326,254.514 429.66,255.847 429.5,257.5C 426.689,261.109 424.355,265.109 422.5,269.5C 422.043,270.298 421.376,270.631 420.5,270.5C 416.445,279.611 412.112,288.611 407.5,297.5C 406.326,298.514 405.66,299.847 405.5,301.5C 394.675,319.81 384.342,338.476 374.5,357.5C 372.654,359.03 371.654,361.03 371.5,363.5C 368.343,367.806 365.676,372.472 363.5,377.5C 362.326,378.514 361.66,379.847 361.5,381.5C 340.662,418.506 320.329,455.839 300.5,493.5C 298.75,494.659 297.75,496.326 297.5,498.5C 294.582,503.333 291.916,508.333 289.5,513.5C 287.75,514.659 286.75,516.326 286.5,518.5C 272.929,542.638 259.595,566.971 246.5,591.5C 245.833,591.833 245.167,592.167 244.5,592.5C 244.592,595.4 243.259,597.067 240.5,597.5C 221.622,603.459 202.955,609.792 184.5,616.5C 182.597,616.796 180.93,617.463 179.5,618.5C 174.216,619.595 169.216,621.261 164.5,623.5C 156.9,625.533 149.4,627.867 142,630.5C 141.768,629.263 141.268,628.263 140.5,627.5C 140.5,627.167 140.5,626.833 140.5,626.5C 139.471,610.292 137.804,594.292 135.5,578.5C 135.546,571.95 134.879,565.617 133.5,559.5C 133.5,558.5 133.5,557.5 133.5,556.5C 133.259,551.306 132.593,546.306 131.5,541.5C 131.813,537.958 131.479,534.625 130.5,531.5C 130.813,527.958 130.479,524.625 129.5,521.5C 129.479,514.626 128.813,507.959 127.5,501.5C 127.257,496.042 127.257,490.708 127.5,485.5C 133.11,481.228 138.443,476.562 143.5,471.5C 144.167,471.167 144.833,470.833 145.5,470.5C 146.078,471.547 146.744,471.38 147.5,470C 147.272,469.601 146.938,469.435 146.5,469.5C 149.306,466.272 152.306,463.272 155.5,460.5C 159.791,457.877 163.457,454.544 166.5,450.5C 168.754,449.585 170.754,448.252 172.5,446.5C 178.167,441.167 183.833,435.833 189.5,430.5C 190.71,430.068 191.71,429.401 192.5,428.5C 193.5,427.833 194.5,427.167 195.5,426.5C 199.36,423.061 203.027,419.395 206.5,415.5C 211.152,412.179 215.485,408.513 219.5,404.5C 227.833,397.167 236.167,389.833 244.5,382.5C 244.5,381.833 244.833,381.5 245.5,381.5C 247.167,380.5 248.5,379.167 249.5,377.5C 255.806,372.134 261.806,367.134 267.5,362.5C 271.194,358.14 275.194,354.14 279.5,350.5C 280.833,349.833 281.833,348.833 282.5,347.5C 288.249,343.295 293.582,338.628 298.5,333.5C 302.482,330.848 306.149,327.848 309.5,324.5C 315.256,319.954 320.59,314.954 325.5,309.5C 327.027,309.573 328.027,308.906 328.5,307.5C 337.159,300.173 345.493,292.507 353.5,284.5C 355.027,284.573 356.027,283.906 356.5,282.5C 360.526,278.805 364.526,275.138 368.5,271.5C 375.167,265.833 381.833,260.167 388.5,254.5C 393.537,249.461 398.871,244.794 404.5,240.5C 408.141,237.195 411.808,233.862 415.5,230.5C 419.14,227.527 422.473,224.194 425.5,220.5C 428.447,219.219 430.781,217.219 432.5,214.5C 434.23,213.974 435.564,212.974 436.5,211.5C 439.464,209.038 442.297,206.371 445,203.5C 445.333,203.833 445.667,204.167 446,204.5C 446.997,202.677 448.164,201.01 449.5,199.5C 453.12,197.547 456.12,194.881 458.5,191.5C 460.657,189.588 462.991,187.921 465.5,186.5 Z M 551.5,180.5 C 557.495,185.495 563.161,190.828 568.5,196.5C 573.123,199.289 576.956,202.955 580,207.5C 580.77,206.402 581.603,206.402 582.5,207.5C 584.64,210.061 586.973,212.395 589.5,214.5C 590.833,215.167 591.833,216.167 592.5,217.5C 610.156,232.49 627.489,247.824 644.5,263.5C 645.795,264.488 647.128,265.488 648.5,266.5C 649.5,267.833 650.5,269.167 651.5,270.5C 653.749,271.08 655.415,272.413 656.5,274.5C 661.46,277.792 665.793,281.792 669.5,286.5C 675.46,291.49 681.46,296.49 687.5,301.5C 688.795,302.488 690.128,303.488 691.5,304.5C 695.64,309.061 699.973,313.395 704.5,317.5C 703.453,318.078 703.62,318.744 705,319.5C 705.399,319.272 705.565,318.938 705.5,318.5C 714.941,326.099 724.274,333.933 733.5,342C 736.371,344.703 739.038,347.536 741.5,350.5C 748.123,356.585 755.123,362.252 762.5,367.5C 764.28,370.29 766.613,372.29 769.5,373.5C 775.843,379.842 782.509,385.842 789.5,391.5C 794.833,396.5 800.167,401.5 805.5,406.5C 806.167,406.833 806.833,407.167 807.5,407.5C 813.177,413.176 819.177,418.509 825.5,423.5C 825.833,424.167 826.167,424.833 826.5,425.5C 827.5,425.833 828.167,426.5 828.5,427.5C 829.167,427.5 829.833,427.5 830.5,427.5C 833.527,431.194 836.86,434.527 840.5,437.5C 839.453,438.078 839.62,438.744 841,439.5C 841.399,439.272 841.565,438.938 841.5,438.5C 846.159,442.455 850.826,446.455 855.5,450.5C 856.262,452.262 857.596,453.262 859.5,453.5C 865.5,459.167 871.5,464.833 877.5,470.5C 880.167,471.167 881.833,472.833 882.5,475.5C 887.437,478.562 891.937,482.229 896,486.5C 896.207,490.094 895.707,493.594 894.5,497C 895.337,498.011 895.67,499.178 895.5,500.5C 894.784,502.556 894.117,504.723 893.5,507C 894.022,507.561 894.355,508.228 894.5,509C 893.285,515.439 892.618,521.939 892.5,528.5C 891.728,532.452 891.395,536.452 891.5,540.5C 890.766,541.878 890.099,543.378 889.5,545C 889.93,549.734 889.93,554.567 889.5,559.5C 888.304,565.97 887.638,572.637 887.5,579.5C 886.318,585.301 885.652,591.301 885.5,597.5C 884.57,601.4 884.237,605.4 884.5,609.5C 883.667,615.26 882.667,621.094 881.5,627C 882.28,628.073 882.113,629.24 881,630.5C 878.699,629.133 876.199,628.466 873.5,628.5C 863.091,624.306 852.424,620.639 841.5,617.5C 839.786,616.262 837.786,615.595 835.5,615.5C 827.784,612.261 819.784,609.595 811.5,607.5C 809.786,606.262 807.786,605.595 805.5,605.5C 797.705,602.452 789.705,599.619 781.5,597C 779.65,596.31 778.316,595.144 777.5,593.5C 777.34,591.847 776.674,590.514 775.5,589.5C 768.671,575.838 761.338,562.504 753.5,549.5C 753.34,547.847 752.674,546.514 751.5,545.5C 745.738,534.305 739.738,523.305 733.5,512.5C 733.25,510.326 732.25,508.659 730.5,507.5C 723.833,494.833 717.167,482.167 710.5,469.5C 706.167,462.167 701.833,454.833 697.5,447.5C 697.34,445.847 696.674,444.514 695.5,443.5C 693.738,439.638 691.738,435.972 689.5,432.5C 689.25,430.326 688.25,428.659 686.5,427.5C 683.577,421.985 680.91,416.318 678.5,410.5C 676.588,408.343 674.921,406.009 673.5,403.5C 673.34,401.847 672.674,400.514 671.5,399.5C 666.738,390.304 661.738,381.304 656.5,372.5C 656.573,370.973 655.906,369.973 654.5,369.5C 650.672,361.173 646.338,353.173 641.5,345.5C 641.34,343.847 640.674,342.514 639.5,341.5C 638.083,338.331 636.417,335.331 634.5,332.5C 634.25,330.326 633.25,328.659 631.5,327.5C 630.258,323.345 628.258,319.678 625.5,316.5C 625.167,315.167 624.833,313.833 624.5,312.5C 624.167,312.5 623.833,312.5 623.5,312.5C 618.738,303.304 613.738,294.304 608.5,285.5C 606.668,281.164 604.335,277.164 601.5,273.5C 600.167,270.167 598.833,266.833 597.5,263.5C 594.387,259.61 592.054,255.276 590.5,250.5C 583.663,240.164 577.33,229.497 571.5,218.5C 570.416,215.996 569.083,213.663 567.5,211.5C 566.258,207.345 564.258,203.678 561.5,200.5C 561.25,198.326 560.25,196.659 558.5,195.5C 555.91,190.651 553.576,185.651 551.5,180.5 Z M 467.5,186.5 C 467.5,185.833 467.167,185.5 466.5,185.5C 467.983,183.906 469.483,182.24 471,180.5C 471.667,181.167 471.667,181.833 471,182.5C 470.051,184.093 468.885,185.426 467.5,186.5 Z M 516.5,161.5 C 519.579,167.327 522.412,173.327 525,179.5C 528.191,184.564 531.358,189.564 534.5,194.5C 534.328,195.492 534.662,196.158 535.5,196.5C 536.833,199.833 538.167,203.167 539.5,206.5C 542.808,210.274 544.808,214.44 545.5,219C 546.416,219.374 547.25,219.874 548,220.5C 549.274,223.391 550.774,226.058 552.5,228.5C 553.11,230.434 554.11,232.101 555.5,233.5C 555.751,235.17 556.418,236.67 557.5,238C 557.167,238.333 556.833,238.667 556.5,239C 558.749,240.352 560.416,242.185 561.5,244.5C 561.998,247.326 563.331,249.66 565.5,251.5C 565.5,252.167 565.5,252.833 565.5,253.5C 572.592,264.679 578.926,276.346 584.5,288.5C 588.337,294.17 591.67,300.17 594.5,306.5C 593.287,307.497 593.454,308.497 595,309.5C 595.399,309.272 595.565,308.938 595.5,308.5C 597.412,310.657 599.079,312.991 600.5,315.5C 602.424,319.017 604.091,322.684 605.5,326.5C 611.766,336.702 617.766,347.035 623.5,357.5C 626.342,363.857 629.675,369.857 633.5,375.5C 633.557,376.609 633.89,377.609 634.5,378.5C 638.671,384.838 642.337,391.504 645.5,398.5C 647.142,401.102 648.808,403.769 650.5,406.5C 652.302,410.105 654.302,414.105 656.5,418.5C 657.833,420.5 659.167,422.5 660.5,424.5C 660.511,426.017 661.177,427.184 662.5,428C 662.167,428.333 661.833,428.667 661.5,429C 663.193,430.25 664.527,431.75 665.5,433.5C 666.079,436.331 667.412,438.664 669.5,440.5C 674.188,449.875 678.854,459.209 683.5,468.5C 685.412,470.657 687.079,472.991 688.5,475.5C 690.332,479.836 692.665,483.836 695.5,487.5C 700.336,498.653 706.003,509.32 712.5,519.5C 712.5,520.167 712.5,520.833 712.5,521.5C 714.412,523.657 716.079,525.991 717.5,528.5C 719.014,531.692 720.68,534.859 722.5,538C 721.584,538.278 720.918,538.778 720.5,539.5C 721.675,539.281 722.675,539.614 723.5,540.5C 728.527,549.229 733.527,557.896 738.5,566.5C 738.082,567.222 737.416,567.722 736.5,568C 737.624,568.249 738.624,568.749 739.5,569.5C 743.274,576.725 747.274,583.725 751.5,590.5C 753.027,593.719 754.693,596.885 756.5,600C 752.773,601.864 749.106,603.697 745.5,605.5C 741.777,606.297 738.11,607.297 734.5,608.5C 727.833,611.5 721.167,614.5 714.5,617.5C 713.5,617.5 712.5,617.5 711.5,617.5C 708.167,619.167 704.833,620.833 701.5,622.5C 700.209,622.263 699.209,622.596 698.5,623.5C 696.597,623.796 694.93,624.463 693.5,625.5C 691.447,625.402 689.78,626.069 688.5,627.5C 685.759,627.707 683.426,628.707 681.5,630.5C 680.209,630.263 679.209,630.596 678.5,631.5C 672.22,633.314 666.22,635.647 660.5,638.5C 659.209,638.263 658.209,638.596 657.5,639.5C 652.856,640.599 648.522,642.266 644.5,644.5C 641.982,645.264 639.649,646.264 637.5,647.5C 635.54,648.138 633.707,648.138 632,647.5C 630.992,649.259 629.492,650.426 627.5,651C 621.019,653.214 614.686,655.714 608.5,658.5C 606.847,658.66 605.514,659.326 604.5,660.5C 593.488,664.504 582.488,668.504 571.5,672.5C 568.921,674.025 566.254,675.359 563.5,676.5C 554.772,679.071 546.439,682.404 538.5,686.5C 536.447,686.402 534.78,687.069 533.5,688.5C 532.209,688.263 531.209,688.596 530.5,689.5C 527.833,690.167 525.167,690.833 522.5,691.5C 519.921,693.025 517.254,694.359 514.5,695.5C 513.041,695.433 511.708,695.766 510.5,696.5C 466.087,679.029 421.754,661.362 377.5,643.5C 361.178,637.504 344.845,631.504 328.5,625.5C 327.791,624.596 326.791,624.263 325.5,624.5C 319.833,621.833 314.167,619.167 308.5,616.5C 304.765,615.699 301.099,614.699 297.5,613.5C 294.482,611.6 291.149,610.267 287.5,609.5C 281.461,606.595 275.127,604.262 268.5,602.5C 267.909,601.849 267.243,601.182 266.5,600.5C 268.86,595.78 271.193,591.114 273.5,586.5C 274.89,585.101 275.89,583.434 276.5,581.5C 278.008,579.819 279.008,577.819 279.5,575.5C 280.921,572.991 282.588,570.657 284.5,568.5C 284.5,567.833 284.5,567.167 284.5,566.5C 286.417,563.669 288.083,560.669 289.5,557.5C 291.75,554.001 293.75,550.335 295.5,546.5C 299.916,538.667 304.582,531 309.5,523.5C 311.243,519.016 313.243,514.683 315.5,510.5C 317.405,507.696 319.071,504.696 320.5,501.5C 321.674,500.486 322.34,499.153 322.5,497.5C 328.75,486.668 334.75,475.668 340.5,464.5C 342.008,462.819 343.008,460.819 343.5,458.5C 345.588,456.664 346.921,454.331 347.5,451.5C 348.674,450.486 349.34,449.153 349.5,447.5C 353.003,442.498 356.003,437.165 358.5,431.5C 360.008,429.819 361.008,427.819 361.5,425.5C 364.258,422.322 366.258,418.655 367.5,414.5C 371.337,408.83 374.67,402.83 377.5,396.5C 378.89,395.101 379.89,393.434 380.5,391.5C 385.005,384.495 389.005,377.161 392.5,369.5C 394.008,367.819 395.008,365.819 395.5,363.5C 395.833,363.5 396.167,363.5 396.5,363.5C 401.101,355.297 405.435,346.964 409.5,338.5C 412.258,335.322 414.258,331.655 415.5,327.5C 417.56,324.76 419.226,321.76 420.5,318.5C 423.227,314.423 425.561,310.09 427.5,305.5C 428.737,304.035 429.737,302.368 430.5,300.5C 433.008,296.818 435.008,292.818 436.5,288.5C 444.004,276.163 451.004,263.496 457.5,250.5C 460.894,245.089 463.894,239.422 466.5,233.5C 469.258,230.322 471.258,226.655 472.5,222.5C 473.167,222.167 473.833,221.833 474.5,221.5C 477.243,215.015 480.243,208.681 483.5,202.5C 485.071,200.365 486.404,198.032 487.5,195.5C 493.496,184.174 499.496,172.841 505.5,161.5C 507.308,158.564 509.141,155.564 511,152.5C 512.859,155.564 514.692,158.564 516.5,161.5 Z M 251.5,618.5 C 252.78,619.931 254.447,620.598 256.5,620.5C 258.792,622.267 261.458,623.267 264.5,623.5C 265.167,624.167 265.833,624.833 266.5,625.5C 267.167,625.5 267.833,625.5 268.5,625.5C 278.312,629.523 288.645,633.523 299.5,637.5C 300.93,638.537 302.597,639.204 304.5,639.5C 324.051,647.441 343.717,655.108 363.5,662.5C 364.93,663.537 366.597,664.204 368.5,664.5C 378.804,669.365 389.137,673.365 399.5,676.5C 400.78,677.931 402.447,678.598 404.5,678.5C 407.551,680.352 410.884,681.686 414.5,682.5C 415.934,684.378 417.601,685.045 419.5,684.5C 437.077,692.254 455.077,699.254 473.5,705.5C 474.514,706.674 475.847,707.34 477.5,707.5C 482.022,709.563 486.688,711.23 491.5,712.5C 494.079,714.025 496.746,715.359 499.5,716.5C 497.354,716.696 497.188,717.696 499,719.5C 499.333,719.167 499.667,718.833 500,718.5C 500.167,724.167 500.333,729.833 500.5,735.5C 499.916,773.14 499.916,810.64 500.5,848C 500.333,851.5 500.167,855 500,858.5C 499.329,857.748 498.496,857.414 497.5,857.5C 497.5,857.167 497.5,856.833 497.5,856.5C 494.489,855.331 491.822,853.664 489.5,851.5C 478.483,844.806 467.483,838.14 456.5,831.5C 456.027,830.094 455.027,829.427 453.5,829.5C 447.34,824.92 441.007,820.586 434.5,816.5C 432.77,815.974 431.436,814.974 430.5,813.5C 423.652,810.247 417.319,806.247 411.5,801.5C 407.827,800 404.494,798 401.5,795.5C 391.5,789.5 381.5,783.5 371.5,777.5C 367.342,774.586 363.009,771.919 358.5,769.5C 348.874,762.681 338.874,756.347 328.5,750.5C 327.101,749.11 325.434,748.11 323.5,747.5C 306.833,736.833 290.167,726.167 273.5,715.5C 274.547,714.922 274.38,714.256 273,713.5C 272.601,713.728 272.435,714.062 272.5,714.5C 264.528,709.845 256.528,705.178 248.5,700.5C 247.486,699.326 246.153,698.66 244.5,698.5C 218.178,681.336 191.511,664.669 164.5,648.5C 164.389,647.883 164.056,647.383 163.5,647C 168.154,645.393 172.82,643.893 177.5,642.5C 187.256,639.027 196.922,635.36 206.5,631.5C 210.784,630.739 214.784,629.405 218.5,627.5C 226.541,625.599 234.208,622.932 241.5,619.5C 243.827,619.335 245.993,618.669 248,617.5C 249.011,618.337 250.178,618.67 251.5,618.5 Z M 803.5,628.5 C 812.237,630.968 820.904,633.635 829.5,636.5C 831.515,637.924 833.848,638.59 836.5,638.5C 841.085,640.695 845.751,642.695 850.5,644.5C 853.5,645.167 856.5,645.833 859.5,646.5C 859.5,647.167 859.5,647.833 859.5,648.5C 857.847,648.66 856.514,649.326 855.5,650.5C 853.147,651.34 851.147,652.674 849.5,654.5C 837.158,661.335 825.158,668.668 813.5,676.5C 811.973,676.427 810.973,677.094 810.5,678.5C 807.15,680.196 803.817,681.863 800.5,683.5C 792.34,689.414 784.007,695.081 775.5,700.5C 773.566,701.11 771.899,702.11 770.5,703.5C 765.167,706.5 759.833,709.5 754.5,712.5C 749.033,716.953 743.033,720.619 736.5,723.5C 723.5,732.167 710.5,740.833 697.5,749.5C 695.973,749.427 694.973,750.094 694.5,751.5C 676.793,762.045 658.793,773.045 640.5,784.5C 636.342,787.414 632.009,790.081 627.5,792.5C 626.306,793.272 625.306,794.272 624.5,795.5C 622.147,796.34 620.147,797.674 618.5,799.5C 595.99,813.253 573.657,827.253 551.5,841.5C 550.29,841.932 549.29,842.599 548.5,843.5C 545.634,845.432 542.634,847.099 539.5,848.5C 535.833,851.167 532.167,853.833 528.5,856.5C 527.833,856.5 527.167,856.5 526.5,856.5C 525.312,857.364 524.145,858.364 523,859.5C 523.331,857.981 523.164,856.648 522.5,855.5C 522.5,809.5 522.5,763.5 522.5,717.5C 525.925,717.633 526.258,716.967 523.5,715.5C 535.488,711.17 547.488,706.837 559.5,702.5C 566.519,698.952 573.519,696.286 580.5,694.5C 583.833,692.833 587.167,691.167 590.5,689.5C 594.901,688.594 598.901,686.928 602.5,684.5C 611.445,681.686 620.112,678.353 628.5,674.5C 635.46,672.346 642.126,669.679 648.5,666.5C 651.443,666.02 654.11,665.02 656.5,663.5C 658.403,663.204 660.07,662.537 661.5,661.5C 666.883,660.266 671.883,658.266 676.5,655.5C 680.137,654.737 683.47,653.403 686.5,651.5C 689.542,651.267 692.208,650.267 694.5,648.5C 696.403,648.204 698.07,647.537 699.5,646.5C 702.241,646.293 704.574,645.293 706.5,643.5C 713.887,641.597 720.887,638.931 727.5,635.5C 729.403,635.204 731.07,634.537 732.5,633.5C 746.179,628.077 760.013,623.077 774,618.5C 784.244,620.97 794.077,624.303 803.5,628.5 Z"/></g>
<g><path style="opacity:0.996" fill="#99d8fb" d="M 457.5,250.5 C 451.004,263.496 444.004,276.163 436.5,288.5C 435.957,288.44 435.624,288.107 435.5,287.5C 436.789,284.42 438.455,281.586 440.5,279C 437.507,278.573 437.007,277.406 439,275.5C 440,276.833 441,276.833 442,275.5C 443.746,271.673 445.746,268.007 448,264.5C 448.494,262.866 448.66,261.199 448.5,259.5C 451.926,259.65 452.259,258.484 449.5,256C 450.715,253.904 451.549,254.071 452,256.5C 453.667,253.833 455.333,251.167 457,248.5C 457.464,249.094 457.631,249.761 457.5,250.5 Z"/></g>
<g><path style="opacity:0.996" fill="#9bd9fb" d="M 368.5,271.5 C 364.526,275.138 360.526,278.805 356.5,282.5C 355.761,282.631 355.094,282.464 354.5,282C 358.5,278.333 362.5,274.667 366.5,271C 367.437,270.308 368.103,270.475 368.5,271.5 Z"/></g>
<g><path style="opacity:0.992" fill="#9ad9fb" d="M 571.5,218.5 C 577.33,229.497 583.663,240.164 590.5,250.5C 592.054,255.276 594.387,259.61 597.5,263.5C 598.833,266.833 600.167,270.167 601.5,273.5C 601.672,274.492 601.338,275.158 600.5,275.5C 590.448,256.399 580.114,237.399 569.5,218.5C 569.97,217.537 570.637,217.537 571.5,218.5 Z"/></g>
<g><path style="opacity:0.996" fill="#97d7fb" d="M 584.5,283.5 C 585.614,284.885 586.614,286.385 587.5,288C 588.449,288.617 589.282,288.451 590,287.5C 590.311,288.742 589.811,289.742 588.5,290.5C 593.576,299.082 598.242,307.416 602.5,315.5C 602.03,316.463 601.363,316.463 600.5,315.5C 599.079,312.991 597.412,310.657 595.5,308.5C 595.672,307.508 595.338,306.842 594.5,306.5C 591.67,300.17 588.337,294.17 584.5,288.5C 578.926,276.346 572.592,264.679 565.5,253.5C 565.5,252.833 565.5,252.167 565.5,251.5C 565.369,250.761 565.536,250.094 566,249.5C 567.252,251.001 568.252,252.668 569,254.5C 570.067,255.191 571.234,255.691 572.5,256C 571.692,256.308 571.025,256.808 570.5,257.5C 571.373,259.413 572.373,261.247 573.5,263C 576.007,263.093 578.174,263.926 580,265.5C 580.718,264.549 581.551,264.383 582.5,265C 580.731,266.667 579.065,268.333 577.5,270C 578.317,271.49 579.15,272.99 580,274.5C 580.249,273.376 580.749,272.376 581.5,271.5C 583.04,273.437 585.04,274.604 587.5,275C 585.598,275.199 584.098,276.033 583,277.5C 582.577,276.044 581.744,275.544 580.5,276C 582.496,278.162 583.83,280.662 584.5,283.5 Z"/></g>
<g><path style="opacity:1" fill="#9bdafb" d="M 561.5,244.5 C 560.416,242.185 558.749,240.352 556.5,239C 556.833,238.667 557.167,238.333 557.5,238C 556.418,236.67 555.751,235.17 555.5,233.5C 555.393,231.621 555.893,231.288 557,232.5C 559.231,237.294 561.731,241.961 564.5,246.5C 564.333,246.833 564.167,247.167 564,247.5C 563.148,246.429 562.315,245.429 561.5,244.5 Z"/></g>
<g><path style="opacity:0.997" fill="#99d9fb" d="M 472.5,222.5 C 471.258,226.655 469.258,230.322 466.5,233.5C 465.957,233.44 465.624,233.107 465.5,232.5C 467.763,228.21 469.929,223.877 472,219.5C 472.654,218.304 473.154,218.304 473.5,219.5C 472.873,220.417 472.539,221.417 472.5,222.5 Z"/></g>
<g><path style="opacity:0.984" fill="#9ad9fb" d="M 644.5,263.5 C 627.489,247.824 610.156,232.49 592.5,217.5C 591.833,216.167 590.833,215.167 589.5,214.5C 586.973,212.395 584.64,210.061 582.5,207.5C 582.897,206.475 583.563,206.308 584.5,207C 605.192,225.695 625.859,244.362 646.5,263C 645.906,263.464 645.239,263.631 644.5,263.5 Z"/></g>
<g><path style="opacity:0.992" fill="#9ad9fb" d="M 460.5,199.5 C 460.833,199.5 461.167,199.5 461.5,199.5C 462.043,199.56 462.376,199.893 462.5,200.5C 452.841,219.155 442.674,237.489 432,255.5C 431.536,254.906 431.369,254.239 431.5,253.5C 441.179,235.473 450.846,217.473 460.5,199.5 Z"/></g>
<g><path style="opacity:0.898" fill="#9ad9fa" d="M 432.5,214.5 C 430.781,217.219 428.447,219.219 425.5,220.5C 425.062,220.565 424.728,220.399 424.5,220C 426.5,218 428.5,216 430.5,214C 431.437,213.308 432.103,213.475 432.5,214.5 Z"/></g>
<g><path style="opacity:0.996" fill="#9ad9fb" d="M 552.5,228.5 C 550.774,226.058 549.274,223.391 548,220.5C 547.25,219.874 546.416,219.374 545.5,219C 544.808,214.44 542.808,210.274 539.5,206.5C 538.167,203.167 536.833,199.833 535.5,196.5C 536.849,195.203 538.182,195.37 539.5,197C 538.483,198.049 538.316,199.216 539,200.5C 544.367,209.706 549.534,219.039 554.5,228.5C 554.03,229.463 553.363,229.463 552.5,228.5 Z"/></g>
<g><path style="opacity:0.294" fill="#99d8fa" d="M 561.5,200.5 C 564.258,203.678 566.258,207.345 567.5,211.5C 567.631,212.239 567.464,212.906 567,213.5C 564.066,208.966 561.733,204.3 560,199.5C 560.383,200.056 560.883,200.389 561.5,200.5 Z"/></g>
<g><path style="opacity:1" fill="#9ad9fb" d="M 449.5,199.5 C 448.164,201.01 446.997,202.677 446,204.5C 445.667,204.167 445.333,203.833 445,203.5C 442.297,206.371 439.464,209.038 436.5,211.5C 435.761,211.631 435.094,211.464 434.5,211C 438.643,206.767 442.977,202.767 447.5,199C 448.437,198.308 449.103,198.475 449.5,199.5 Z"/></g>
<g><path style="opacity:0.998" fill="#9bdbfc" d="M 486.5,193.5 C 487.338,193.842 487.672,194.508 487.5,195.5C 486.404,198.032 485.071,200.365 483.5,202.5C 482.637,203.463 481.97,203.463 481.5,202.5C 483.432,199.634 485.099,196.634 486.5,193.5 Z"/></g>
<g><path style="opacity:1" fill="#9ad9fb" d="M 534.5,194.5 C 531.358,189.564 528.191,184.564 525,179.5C 522.412,173.327 519.579,167.327 516.5,161.5C 516.351,160.448 516.517,159.448 517,158.5C 522.746,169.66 528.746,180.66 535,191.5C 535.74,192.749 535.573,193.749 534.5,194.5 Z"/></g>
<g><path style="opacity:0.997" fill="#98d8fc" d="M 549.5,178.5 C 549.5,179.167 549.833,179.5 550.5,179.5C 550.5,180.167 550.833,180.5 551.5,180.5C 553.576,185.651 555.91,190.651 558.5,195.5C 558.631,196.239 558.464,196.906 558,197.5C 554.788,192.913 551.955,188.08 549.5,183C 547.888,182.28 546.388,182.446 545,183.5C 543.148,181.77 543.314,180.604 545.5,180C 544.289,178.887 544.289,177.72 545.5,176.5C 545.023,175.522 544.357,174.689 543.5,174C 543.833,173.833 544.167,173.667 544.5,173.5C 545.961,175.47 547.627,177.137 549.5,178.5 Z"/></g>
<g><path style="opacity:0.995" fill="#96d7fd" d="M 505.5,161.5 C 499.496,172.841 493.496,184.174 487.5,195.5C 487.672,194.508 487.338,193.842 486.5,193.5C 485.078,193.291 483.745,192.791 482.5,192C 482.833,191.667 483.167,191.333 483.5,191C 482.333,190.5 481.5,189.667 481,188.5C 480.396,190.686 479.23,190.852 477.5,189C 479.595,188.444 479.762,187.944 478,187.5C 477.228,187.645 476.561,187.978 476,188.5C 475.377,192.932 474.377,193.265 473,189.5C 472.667,190.167 472.333,190.833 472,191.5C 471.581,190.328 470.915,189.328 470,188.5C 467.752,191.328 465.752,194.328 464,197.5C 463.536,196.906 463.369,196.239 463.5,195.5C 463.833,194.167 464.167,192.833 464.5,191.5C 466.25,190.341 467.25,188.674 467.5,186.5C 468.885,185.426 470.051,184.093 471,182.5C 471.667,181.833 471.667,181.167 471,180.5C 469.483,182.24 467.983,183.906 466.5,185.5C 465.833,185.5 465.5,185.833 465.5,186.5C 462.991,187.921 460.657,189.588 458.5,191.5C 457.475,191.103 457.308,190.437 458,189.5C 463.155,185.85 467.322,181.517 470.5,176.5C 472.201,176.034 473.701,176.034 475,176.5C 475.684,175.216 475.517,174.049 474.5,173C 475.744,172.544 476.577,173.044 477,174.5C 477.972,172.695 479.139,171.028 480.5,169.5C 481.006,172.25 482.34,172.084 484.5,169C 483.027,168.29 482.36,167.124 482.5,165.5C 485.109,165.83 486.776,167.33 487.5,170C 485.067,173.706 482.401,177.206 479.5,180.5C 479.667,180.833 479.833,181.167 480,181.5C 481.667,178.833 483.333,178.833 485,181.5C 485.507,180.004 485.007,178.837 483.5,178C 484.253,176.513 485.086,176.346 486,177.5C 486.333,176.833 486.667,176.167 487,175.5C 487.741,176.641 488.575,176.641 489.5,175.5C 490.478,175.977 491.311,176.643 492,177.5C 492.576,174.876 493.91,174.209 496,175.5C 498.599,169.911 501.599,164.577 505,159.5C 505.464,160.094 505.631,160.761 505.5,161.5 Z M 467.5,186.5 C 467.5,185.833 467.167,185.5 466.5,185.5C 467.983,183.906 469.483,182.24 471,180.5C 471.667,181.167 471.667,181.833 471,182.5C 470.051,184.093 468.885,185.426 467.5,186.5 Z"/></g>
<g><path style="opacity:0.004" fill="#94cff3" d="M 322.5,282.5 C 321.833,281.167 321.833,281.167 322.5,282.5 Z"/></g>
<g><path style="opacity:0.976" fill="#9ad9fb" d="M 407.5,297.5 C 412.112,288.611 416.445,279.611 420.5,270.5C 421.376,270.631 422.043,270.298 422.5,269.5C 424.355,265.109 426.689,261.109 429.5,257.5C 430.363,256.537 431.03,256.537 431.5,257.5C 423.906,271.693 416.073,285.693 408,299.5C 407.536,298.906 407.369,298.239 407.5,297.5 Z"/></g>
<g><path style="opacity:0.982" fill="#9ad9fb" d="M 687.5,301.5 C 681.46,296.49 675.46,291.49 669.5,286.5C 665.793,281.792 661.46,277.792 656.5,274.5C 655.415,272.413 653.749,271.08 651.5,270.5C 650.5,269.167 649.5,267.833 648.5,266.5C 648.897,265.475 649.563,265.308 650.5,266C 663.5,277.667 676.5,289.333 689.5,301C 688.906,301.464 688.239,301.631 687.5,301.5 Z"/></g>
<g><path style="opacity:0.989" fill="#99d8fb" d="M 353.5,284.5 C 345.493,292.507 337.159,300.173 328.5,307.5C 327.761,307.631 327.094,307.464 326.5,307C 333.833,300.333 341.167,293.667 348.5,287C 347.5,286.667 346.5,286.333 345.5,286C 346.787,284.214 348.287,284.047 350,285.5C 350.95,284.978 351.784,284.311 352.5,283.5C 353.107,283.624 353.44,283.957 353.5,284.5 Z"/></g>
<g><path style="opacity:0.004" fill="#94cff3" d="M 304.5,295.5 C 305.833,296.167 305.833,296.167 304.5,295.5 Z"/></g>
<g><path style="opacity:0.995" fill="#96d6fe" d="M 601.5,273.5 C 604.335,277.164 606.668,281.164 608.5,285.5C 607.637,284.537 606.97,284.537 606.5,285.5C 611.494,295.492 616.994,305.158 623,314.5C 623.464,313.906 623.631,313.239 623.5,312.5C 623.833,312.5 624.167,312.5 624.5,312.5C 624.833,313.833 625.167,315.167 625.5,316.5C 624.883,316.389 624.383,316.056 624,315.5C 624.148,316.825 623.982,317.992 623.5,319C 626.589,321.984 629.089,325.484 631,329.5C 631.464,328.906 631.631,328.239 631.5,327.5C 633.25,328.659 634.25,330.326 634.5,332.5C 633.637,331.537 632.97,331.537 632.5,332.5C 634.667,336.167 636.833,339.833 639,343.5C 639.464,342.906 639.631,342.239 639.5,341.5C 640.674,342.514 641.34,343.847 641.5,345.5C 639.895,344.031 639.395,344.365 640,346.5C 644.92,354.672 649.587,363.005 654,371.5C 654.464,370.906 654.631,370.239 654.5,369.5C 655.906,369.973 656.573,370.973 656.5,372.5C 656.196,373.15 655.863,373.817 655.5,374.5C 660.653,383.468 665.82,392.468 671,401.5C 671.464,400.906 671.631,400.239 671.5,399.5C 672.674,400.514 673.34,401.847 673.5,403.5C 672.637,402.537 671.97,402.537 671.5,403.5C 676.094,412.36 680.927,421.027 686,429.5C 686.464,428.906 686.631,428.239 686.5,427.5C 688.25,428.659 689.25,430.326 689.5,432.5C 688.637,431.537 687.97,431.537 687.5,432.5C 689.986,436.801 692.486,441.135 695,445.5C 695.464,444.906 695.631,444.239 695.5,443.5C 696.674,444.514 697.34,445.847 697.5,447.5C 696.637,446.537 695.97,446.537 695.5,447.5C 698.446,452.395 701.113,457.395 703.5,462.5C 702.279,463.028 701.113,463.695 700,464.5C 699.667,464.167 699.333,463.833 699,463.5C 694.717,467.169 694.884,470.169 699.5,472.5C 698.5,474.167 697.167,475.5 695.5,476.5C 696.262,476.911 697.262,477.077 698.5,477C 699.061,478.566 698.394,479.899 696.5,481C 697.167,481.667 697.833,482.333 698.5,483C 697.167,483 695.833,483 694.5,483C 695.305,484.113 695.972,485.279 696.5,486.5C 695.833,486.5 695.5,486.833 695.5,487.5C 692.665,483.836 690.332,479.836 688.5,475.5C 689.363,476.463 690.03,476.463 690.5,475.5C 683.652,463.135 676.819,450.802 670,438.5C 669.536,439.094 669.369,439.761 669.5,440.5C 667.412,438.664 666.079,436.331 665.5,433.5C 666.363,434.463 667.03,434.463 667.5,433.5C 665.32,429.801 663.153,426.134 661,422.5C 660.536,423.094 660.369,423.761 660.5,424.5C 659.167,422.5 657.833,420.5 656.5,418.5C 654.302,414.105 652.302,410.105 650.5,406.5C 648.808,403.769 647.142,401.102 645.5,398.5C 642.337,391.504 638.671,384.838 634.5,378.5C 633.89,377.609 633.557,376.609 633.5,375.5C 634.363,376.463 635.03,376.463 635.5,375.5C 631.919,368.67 628.086,362.003 624,355.5C 623.536,356.094 623.369,356.761 623.5,357.5C 617.766,347.035 611.766,336.702 605.5,326.5C 604.091,322.684 602.424,319.017 600.5,315.5C 601.363,316.463 602.03,316.463 602.5,315.5C 598.242,307.416 593.576,299.082 588.5,290.5C 589.811,289.742 590.311,288.742 590,287.5C 589.282,288.451 588.449,288.617 587.5,288C 586.614,286.385 585.614,284.885 584.5,283.5C 585.29,282.391 585.79,281.058 586,279.5C 586.308,280.308 586.808,280.975 587.5,281.5C 588.27,277.497 590.604,275.997 594.5,277C 594.507,278.583 594.174,280.249 593.5,282C 595.679,283.987 597.512,283.82 599,281.5C 599.191,279.292 599.691,277.292 600.5,275.5C 601.338,275.158 601.672,274.492 601.5,273.5 Z"/></g>
<g><path style="opacity:0.984" fill="#9cdcfc" d="M 430.5,300.5 C 429.737,302.368 428.737,304.035 427.5,305.5C 425.895,306.969 425.395,306.635 426,304.5C 427.333,302.5 428.667,300.5 430,298.5C 430.464,299.094 430.631,299.761 430.5,300.5 Z"/></g>
<g><path style="opacity:0.992" fill="#9bdafc" d="M 608.5,285.5 C 613.738,294.304 618.738,303.304 623.5,312.5C 623.631,313.239 623.464,313.906 623,314.5C 616.994,305.158 611.494,295.492 606.5,285.5C 606.97,284.537 607.637,284.537 608.5,285.5 Z"/></g>
<g><path style="opacity:0.988" fill="#9ad9fb" d="M 341.5,266.5 C 342.239,266.369 342.906,266.536 343.5,267C 314,293.167 284.5,319.333 255,345.5C 254.601,345.272 254.435,344.938 254.5,344.5C 260.5,338.833 266.5,333.167 272.5,327.5C 289.208,312.49 305.874,297.49 322.5,282.5C 325.488,280.51 328.155,278.177 330.5,275.5C 334.457,272.878 338.124,269.878 341.5,266.5 Z"/></g>
<g><path style="opacity:0.993" fill="#97d7fc" d="M 325.5,309.5 C 320.59,314.954 315.256,319.954 309.5,324.5C 308.761,324.631 308.094,324.464 307.5,324C 310.349,320.984 313.349,318.15 316.5,315.5C 315.355,314.109 315.355,312.776 316.5,311.5C 317.251,312.376 317.751,313.376 318,314.5C 321.32,312.825 321.82,310.825 319.5,308.5C 321.799,307.243 323.799,307.577 325.5,309.5 Z"/></g>
<g><path style="opacity:0.004" fill="#94cff3" d="M 737.5,314.5 C 738.833,315.167 738.833,315.167 737.5,314.5 Z"/></g>
<g><path style="opacity:0.988" fill="#9bdafc" d="M 374.5,357.5 C 384.342,338.476 394.675,319.81 405.5,301.5C 407.105,300.031 407.605,300.365 407,302.5C 396.558,321.726 385.892,340.726 375,359.5C 374.536,358.906 374.369,358.239 374.5,357.5 Z"/></g>
<g><path style="opacity:1" fill="#9bdafc" d="M 625.5,316.5 C 628.258,319.678 630.258,323.345 631.5,327.5C 631.631,328.239 631.464,328.906 631,329.5C 629.089,325.484 626.589,321.984 623.5,319C 623.982,317.992 624.148,316.825 624,315.5C 624.383,316.056 624.883,316.389 625.5,316.5 Z"/></g>
<g><path style="opacity:0.816" fill="#9ad9fb" d="M 762.5,367.5 C 755.123,362.252 748.123,356.585 741.5,350.5C 739.038,347.536 736.371,344.703 733.5,342C 724.274,333.933 714.941,326.099 705.5,318.5C 705.5,317.833 705.167,317.5 704.5,317.5C 699.973,313.395 695.64,309.061 691.5,304.5C 691.897,303.475 692.563,303.308 693.5,304C 716.522,325.039 739.856,345.872 763.5,366.5C 763.376,367.107 763.043,367.44 762.5,367.5 Z"/></g>
<g><path style="opacity:0.997" fill="#9ad9fc" d="M 420.5,318.5 C 419.226,321.76 417.56,324.76 415.5,327.5C 414.637,328.463 413.97,328.463 413.5,327.5C 414.33,325.865 414.497,324.198 414,322.5C 414.667,321.167 415.333,321.167 416,322.5C 417.333,320.5 418.667,318.5 420,316.5C 420.464,317.094 420.631,317.761 420.5,318.5 Z"/></g>
<g><path style="opacity:0.975" fill="#9bdafb" d="M 698.5,281.5 C 711.5,292.833 724.5,304.167 737.5,315.5C 744.5,322.167 751.5,328.833 758.5,335.5C 759.969,337.105 759.635,337.605 757.5,337C 737.167,318.667 716.833,300.333 696.5,282C 697.094,281.536 697.761,281.369 698.5,281.5 Z"/></g>
<g><path style="opacity:0.004" fill="#94cff3" d="M 272.5,327.5 C 271.833,326.167 271.833,326.167 272.5,327.5 Z"/></g>
<g><path style="opacity:0.988" fill="#9cdbfc" d="M 634.5,332.5 C 636.417,335.331 638.083,338.331 639.5,341.5C 639.631,342.239 639.464,342.906 639,343.5C 636.833,339.833 634.667,336.167 632.5,332.5C 632.97,331.537 633.637,331.537 634.5,332.5 Z"/></g>
<g><path style="opacity:0.004" fill="#94cff3" d="M 258.5,336.5 C 259.251,335.427 260.251,335.26 261.5,336C 260.552,336.483 259.552,336.649 258.5,336.5 Z"/></g>
<g><path style="opacity:1" fill="#9ad9fb" d="M 298.5,333.5 C 293.582,338.628 288.249,343.295 282.5,347.5C 282.062,347.565 281.728,347.399 281.5,347C 286.801,342.7 291.801,338.034 296.5,333C 297.437,332.308 298.103,332.475 298.5,333.5 Z"/></g>
<g><path style="opacity:0.998" fill="#98d7fb" d="M 409.5,338.5 C 405.435,346.964 401.101,355.297 396.5,363.5C 396.167,363.5 395.833,363.5 395.5,363.5C 394.957,363.44 394.624,363.107 394.5,362.5C 396.3,358.871 398.3,355.371 400.5,352C 398.963,350.89 398.297,349.39 398.5,347.5C 399.822,347.33 400.989,347.663 402,348.5C 404.333,344.5 406.667,340.5 409,336.5C 409.464,337.094 409.631,337.761 409.5,338.5 Z"/></g>
<g><path style="opacity:0.004" fill="#94cff3" d="M 240.5,355.5 C 239.833,354.167 239.833,354.167 240.5,355.5 Z"/></g>
<g><path style="opacity:0.988" fill="#9ad9fb" d="M 771.5,346.5 C 779.158,352.826 786.492,359.492 793.5,366.5C 785.049,361.283 777.049,354.783 769.5,347C 770.094,346.536 770.761,346.369 771.5,346.5 Z"/></g>
<g><path style="opacity:0.992" fill="#9ad9fb" d="M 641.5,345.5 C 646.338,353.173 650.672,361.173 654.5,369.5C 654.631,370.239 654.464,370.906 654,371.5C 649.587,363.005 644.92,354.672 640,346.5C 639.395,344.365 639.895,344.031 641.5,345.5 Z"/></g>
<g><path style="opacity:0.988" fill="#9ad9fb" d="M 633.5,375.5 C 629.675,369.857 626.342,363.857 623.5,357.5C 623.369,356.761 623.536,356.094 624,355.5C 628.086,362.003 631.919,368.67 635.5,375.5C 635.03,376.463 634.363,376.463 633.5,375.5 Z"/></g>
<g><path style="opacity:0.004" fill="#94cff3" d="M 232.5,359.5 C 233.833,360.167 233.833,360.167 232.5,359.5 Z"/></g>
<g><path style="opacity:1" fill="#99d8fb" d="M 279.5,350.5 C 275.194,354.14 271.194,358.14 267.5,362.5C 261.806,367.134 255.806,372.134 249.5,377.5C 248.761,377.631 248.094,377.464 247.5,377C 258.24,367.88 268.24,358.88 277.5,350C 278.437,349.308 279.103,349.475 279.5,350.5 Z"/></g>
<g><path style="opacity:1" fill="#9bdafb" d="M 250.5,347.5 C 251.239,347.369 251.906,347.536 252.5,348C 239.311,359.432 226.311,371.099 213.5,383C 212.563,383.692 211.897,383.525 211.5,382.5C 220.976,373.268 230.643,364.268 240.5,355.5C 244.122,353.213 247.455,350.547 250.5,347.5 Z"/></g>
<g><path style="opacity:0.984" fill="#9cdcfc" d="M 363.5,377.5 C 365.676,372.472 368.343,367.806 371.5,363.5C 372.315,362.571 373.148,361.571 374,360.5C 371.516,367.128 368.183,373.462 364,379.5C 363.536,378.906 363.369,378.239 363.5,377.5 Z"/></g>
<g><path style="opacity:1" fill="#9ad9fb" d="M 392.5,369.5 C 389.005,377.161 385.005,384.495 380.5,391.5C 379.637,392.463 378.97,392.463 378.5,391.5C 382.747,383.338 387.247,375.338 392,367.5C 392.464,368.094 392.631,368.761 392.5,369.5 Z"/></g>
<g><path style="opacity:0.004" fill="#94cff3" d="M 811.5,380.5 C 812.833,381.167 812.833,381.167 811.5,380.5 Z"/></g>
<g><path style="opacity:0.993" fill="#9bdafb" d="M 789.5,391.5 C 782.509,385.842 775.843,379.842 769.5,373.5C 769.435,373.062 769.601,372.728 770,372.5C 776.923,377.678 783.423,383.345 789.5,389.5C 790.55,390.429 790.55,391.095 789.5,391.5 Z"/></g>
<g><path style="opacity:0.004" fill="#94cff3" d="M 199.5,384.5 C 200.833,385.167 200.833,385.167 199.5,384.5 Z"/></g>
<g><path style="opacity:0.004" fill="#94cff3" d="M 204.5,387.5 C 203.833,386.167 203.833,386.167 204.5,387.5 Z"/></g>
<g><path style="opacity:0.984" fill="#9ad9fb" d="M 656.5,372.5 C 661.738,381.304 666.738,390.304 671.5,399.5C 671.631,400.239 671.464,400.906 671,401.5C 665.82,392.468 660.653,383.468 655.5,374.5C 655.863,373.817 656.196,373.15 656.5,372.5 Z"/></g>
<g><path style="opacity:0.973" fill="#99d8fb" d="M 245.5,381.5 C 244.833,381.5 244.5,381.833 244.5,382.5C 236.167,389.833 227.833,397.167 219.5,404.5C 218.761,404.631 218.094,404.464 217.5,404C 220.832,401.511 223.166,398.344 224.5,394.5C 225.451,395.326 226.451,395.492 227.5,395C 233.308,389.862 239.141,384.695 245,379.5C 245.464,380.094 245.631,380.761 245.5,381.5 Z"/></g>
<g><path style="opacity:0.004" fill="#94cff3" d="M 184.5,399.5 C 185.833,400.167 185.833,400.167 184.5,399.5 Z"/></g>
<g><path style="opacity:0.988" fill="#99d8fb" d="M 377.5,396.5 C 374.67,402.83 371.337,408.83 367.5,414.5C 367.5,413.833 367.5,413.167 367.5,412.5C 368.536,410.609 368.536,408.776 367.5,407C 368.766,406.691 369.933,406.191 371,405.5C 372.746,401.673 374.746,398.007 377,394.5C 377.464,395.094 377.631,395.761 377.5,396.5 Z"/></g>
<g><path style="opacity:0.004" fill="#94cff3" d="M 842.5,407.5 C 843.833,408.167 843.833,408.167 842.5,407.5 Z"/></g>
<g><path style="opacity:0.004" fill="#94cff3" d="M 178.5,410.5 C 177.833,409.167 177.833,409.167 178.5,410.5 Z"/></g>
<g><path style="opacity:1" fill="#9bdafb" d="M 208.5,384.5 C 209.239,384.369 209.906,384.536 210.5,385C 179.551,412.609 148.551,440.276 117.5,468C 116.563,468.692 115.897,468.525 115.5,467.5C 116.167,466.5 116.833,465.5 117.5,464.5C 129.823,454.176 141.823,443.509 153.5,432.5C 159.155,428.177 164.488,423.51 169.5,418.5C 173.12,416.547 176.12,413.881 178.5,410.5C 187.583,403.294 196.25,395.627 204.5,387.5C 205.833,386.5 207.167,385.5 208.5,384.5 Z"/></g>
<g><path style="opacity:0.986" fill="#9bdafb" d="M 673.5,403.5 C 674.921,406.009 676.588,408.343 678.5,410.5C 680.91,416.318 683.577,421.985 686.5,427.5C 686.631,428.239 686.464,428.906 686,429.5C 680.927,421.027 676.094,412.36 671.5,403.5C 671.97,402.537 672.637,402.537 673.5,403.5 Z"/></g>
<g><path style="opacity:0.004" fill="#94cff3" d="M 169.5,418.5 C 168.833,417.167 168.833,417.167 169.5,418.5 Z"/></g>
<g><path style="opacity:0.994" fill="#9ad9fb" d="M 797.5,369.5 C 802.167,373.5 806.833,377.5 811.5,381.5C 821.512,390.844 831.846,399.844 842.5,408.5C 850.88,417.214 859.88,425.214 869.5,432.5C 873.438,435.935 877.271,439.602 881,443.5C 884.008,445.319 886.841,447.985 889.5,451.5C 889.565,451.938 889.399,452.272 889,452.5C 857.613,425.458 826.446,397.958 795.5,370C 796.094,369.536 796.761,369.369 797.5,369.5 Z"/></g>
<g><path style="opacity:0.937" fill="#9ad9fb" d="M 825.5,423.5 C 819.177,418.509 813.177,413.176 807.5,407.5C 807.369,406.761 807.536,406.094 808,405.5C 814.5,411.333 821,417.167 827.5,423C 826.906,423.464 826.239,423.631 825.5,423.5 Z"/></g>
<g><path style="opacity:0.992" fill="#9bdafb" d="M 367.5,412.5 C 367.5,413.167 367.5,413.833 367.5,414.5C 366.258,418.655 364.258,422.322 361.5,425.5C 362.006,420.799 364.006,416.466 367.5,412.5 Z"/></g>
<g><path style="opacity:0.004" fill="#94cff3" d="M 655.5,420.5 C 656.289,420.783 656.956,421.283 657.5,422C 656.184,422.528 655.517,422.028 655.5,420.5 Z"/></g>
<g><path style="opacity:0.994" fill="#99d8fa" d="M 206.5,415.5 C 203.027,419.395 199.36,423.061 195.5,426.5C 194.5,427.167 193.5,427.833 192.5,428.5C 191.761,428.631 191.094,428.464 190.5,428C 195.167,423.667 199.833,419.333 204.5,415C 205.437,414.308 206.103,414.475 206.5,415.5 Z"/></g>
<g><path style="opacity:0.984" fill="#9bdafb" d="M 665.5,433.5 C 664.527,431.75 663.193,430.25 661.5,429C 661.833,428.667 662.167,428.333 662.5,428C 661.177,427.184 660.511,426.017 660.5,424.5C 660.369,423.761 660.536,423.094 661,422.5C 663.153,426.134 665.32,429.801 667.5,433.5C 667.03,434.463 666.363,434.463 665.5,433.5 Z"/></g>
<g><path style="opacity:0.004" fill="#94cff3" d="M 153.5,432.5 C 152.833,431.167 152.833,431.167 153.5,432.5 Z"/></g>
<g><path style="opacity:0.004" fill="#94cff3" d="M 869.5,431.5 C 870.833,432.167 870.833,432.167 869.5,431.5 Z"/></g>
<g><path style="opacity:0.918" fill="#9bd9fb" d="M 855.5,450.5 C 850.826,446.455 846.159,442.455 841.5,438.5C 841.5,437.833 841.167,437.5 840.5,437.5C 836.86,434.527 833.527,431.194 830.5,427.5C 830.435,427.062 830.601,426.728 831,426.5C 840.156,433.991 848.989,441.824 857.5,450C 856.906,450.464 856.239,450.631 855.5,450.5 Z"/></g>
<g><path style="opacity:0.451" fill="#9ad8fa" d="M 358.5,431.5 C 356.003,437.165 353.003,442.498 349.5,447.5C 348.957,447.44 348.624,447.107 348.5,446.5C 351.667,440.833 354.833,435.167 358,429.5C 358.464,430.094 358.631,430.761 358.5,431.5 Z"/></g>
<g><path style="opacity:1" fill="#9bdafb" d="M 689.5,432.5 C 691.738,435.972 693.738,439.638 695.5,443.5C 695.631,444.239 695.464,444.906 695,445.5C 692.486,441.135 689.986,436.801 687.5,432.5C 687.97,431.537 688.637,431.537 689.5,432.5 Z"/></g>
<g><path style="opacity:0.996" fill="#9ad9fb" d="M 189.5,430.5 C 183.833,435.833 178.167,441.167 172.5,446.5C 170.754,448.252 168.754,449.585 166.5,450.5C 166.062,450.565 165.728,450.399 165.5,450C 172.825,442.587 180.658,435.754 189,429.5C 189.399,429.728 189.565,430.062 189.5,430.5 Z"/></g>
<g><path style="opacity:1" fill="#9bdafb" d="M 300.5,493.5 C 320.329,455.839 340.662,418.506 361.5,381.5C 362.363,380.537 363.03,380.537 363.5,381.5C 342.925,419.651 322.091,457.651 301,495.5C 300.536,494.906 300.369,494.239 300.5,493.5 Z"/></g>
<g><path style="opacity:0.004" fill="#94cff3" d="M 132.5,448.5 C 133.833,449.167 133.833,449.167 132.5,448.5 Z"/></g>
<g><path style="opacity:0.004" fill="#94cff3" d="M 127.5,451.5 C 128.833,452.167 128.833,452.167 127.5,451.5 Z"/></g>
<g><path style="opacity:0.99" fill="#9ad9fb" d="M 697.5,447.5 C 701.833,454.833 706.167,462.167 710.5,469.5C 717.167,482.167 723.833,494.833 730.5,507.5C 730.631,508.239 730.464,508.906 730,509.5C 721.139,493.771 712.306,478.104 703.5,462.5C 701.113,457.395 698.446,452.395 695.5,447.5C 695.97,446.537 696.637,446.537 697.5,447.5 Z"/></g>
<g><path style="opacity:1" fill="#9ad9fa" d="M 688.5,475.5 C 687.079,472.991 685.412,470.657 683.5,468.5C 678.854,459.209 674.188,449.875 669.5,440.5C 669.369,439.761 669.536,439.094 670,438.5C 676.819,450.802 683.652,463.135 690.5,475.5C 690.03,476.463 689.363,476.463 688.5,475.5 Z"/></g>
<g><path style="opacity:0.973" fill="#9cdbfb" d="M 347.5,451.5 C 346.921,454.331 345.588,456.664 343.5,458.5C 343.378,455.343 344.545,452.343 347,449.5C 347.464,450.094 347.631,450.761 347.5,451.5 Z"/></g>
<g><path style="opacity:0.004" fill="#94cff3" d="M 121.5,458.5 C 122.833,459.167 122.833,459.167 121.5,458.5 Z"/></g>
<g><path style="opacity:0.004" fill="#94cff3" d="M 902.5,460.5 C 903.833,461.167 903.833,461.167 902.5,460.5 Z"/></g>
<g><path style="opacity:0.004" fill="#94cff3" d="M 117.5,464.5 C 116.833,463.167 116.833,463.167 117.5,464.5 Z"/></g>
<g><path style="opacity:1" fill="#9ad9fb" d="M 155.5,460.5 C 152.306,463.272 149.306,466.272 146.5,469.5C 145.833,469.5 145.5,469.833 145.5,470.5C 144.833,470.833 144.167,471.167 143.5,471.5C 142.761,471.631 142.094,471.464 141.5,471C 145.2,466.965 149.2,463.298 153.5,460C 154.437,459.308 155.103,459.475 155.5,460.5 Z"/></g>
<g><path style="opacity:0.992" fill="#9ad9fb" d="M 340.5,464.5 C 334.75,475.668 328.75,486.668 322.5,497.5C 321.637,498.463 320.97,498.463 320.5,497.5C 327,485.833 333.5,474.167 340,462.5C 340.464,463.094 340.631,463.761 340.5,464.5 Z"/></g>
<g><path style="opacity:0.961" fill="#99d8fa" d="M 892.5,453.5 C 895.545,456.547 898.878,459.213 902.5,461.5C 906.355,465.035 910.188,468.702 914,472.5C 918.444,479.745 919.611,487.411 917.5,495.5C 919.075,483.742 915.075,474.242 905.5,467C 900.508,462.712 895.508,458.379 890.5,454C 891.094,453.536 891.761,453.369 892.5,453.5 Z"/></g>
<g><path style="opacity:0.992" fill="#99d8fa" d="M 897.5,496.5 C 896.833,497.833 896.167,499.167 895.5,500.5C 895.67,499.178 895.337,498.011 894.5,497C 895.707,493.594 896.207,490.094 896,486.5C 891.937,482.229 887.437,478.562 882.5,475.5C 881.833,472.833 880.167,471.167 877.5,470.5C 871.5,464.833 865.5,459.167 859.5,453.5C 859.56,452.957 859.893,452.624 860.5,452.5C 872.815,462.98 884.981,473.647 897,484.5C 898.755,488.412 898.921,492.412 897.5,496.5 Z"/></g>
<g><path style="opacity:0.993" fill="#9cdcfc" d="M 127.5,485.5 C 127.257,490.708 127.257,496.042 127.5,501.5C 127.665,504.85 127.498,508.183 127,511.5C 125.596,503.536 124.929,495.536 125,487.5C 125.667,486.167 126.333,484.833 127,483.5C 127.464,484.094 127.631,484.761 127.5,485.5 Z"/></g>
<g><path style="opacity:0.98" fill="#9ad9fb" d="M 696.5,486.5 C 702.472,497.483 708.472,508.483 714.5,519.5C 714.03,520.463 713.363,520.463 712.5,519.5C 706.003,509.32 700.336,498.653 695.5,487.5C 695.5,486.833 695.833,486.5 696.5,486.5 Z"/></g>
<g><path style="opacity:0.993" fill="#9fe1fe" d="M 897.5,496.5 C 897.111,501.504 896.611,506.504 896,511.5C 895.501,507.848 895.335,504.182 895.5,500.5C 896.167,499.167 896.833,497.833 897.5,496.5 Z"/></g>
<g><path style="opacity:0.342" fill="#94d1f7" d="M 105.5,481.5 C 105.723,488.84 106.056,496.173 106.5,503.5C 105.755,498.718 104.755,493.885 103.5,489C 104.123,486.393 104.79,483.893 105.5,481.5 Z"/></g>
<g><path style="opacity:0.987" fill="#9fdffe" d="M 110.5,532.5 C 109.833,529.5 109.167,526.5 108.5,523.5C 108.612,517.274 107.946,511.274 106.5,505.5C 106.5,504.833 106.5,504.167 106.5,503.5C 106.056,496.173 105.723,488.84 105.5,481.5C 105.5,481.167 105.5,480.833 105.5,480.5C 106.222,480.082 106.722,479.416 107,478.5C 107.021,481.289 106.854,484.122 106.5,487C 108.165,502.146 109.498,517.313 110.5,532.5 Z"/></g>
<g><path style="opacity:0.004" fill="#94cff3" d="M 918.5,501.5 C 919.833,502.167 919.833,502.167 918.5,501.5 Z"/></g>
<g><path style="opacity:1" fill="#9bdafc" d="M 320.5,501.5 C 319.071,504.696 317.405,507.696 315.5,510.5C 314.637,511.463 313.97,511.463 313.5,510.5C 315.667,506.833 317.833,503.167 320,499.5C 320.464,500.094 320.631,500.761 320.5,501.5 Z"/></g>
<g><path style="opacity:0.969" fill="#9cdbfc" d="M 289.5,513.5 C 291.916,508.333 294.582,503.333 297.5,498.5C 298.363,497.537 299.03,497.537 299.5,498.5C 296.319,504.199 293.153,509.865 290,515.5C 289.536,514.906 289.369,514.239 289.5,513.5 Z"/></g>
<g><path style="opacity:0.004" fill="#94cff3" d="M 917.5,510.5 C 918.833,511.167 918.833,511.167 917.5,510.5 Z"/></g>
<g><path style="opacity:0.982" fill="#9ad9fb" d="M 916.5,503.5 C 916.663,510.062 915.996,516.395 914.5,522.5C 914.795,520.265 914.461,518.265 913.5,516.5C 913.851,510.057 914.684,503.39 916,496.5C 916.497,498.81 916.663,501.143 916.5,503.5 Z"/></g>
<g><path style="opacity:0.404" fill="#93d0f6" d="M 106.5,505.5 C 107.946,511.274 108.612,517.274 108.5,523.5C 107.762,519.51 106.762,515.343 105.5,511C 106.406,509.301 106.739,507.467 106.5,505.5 Z"/></g>
<g><path style="opacity:0.004" fill="#94cff3" d="M 916.5,518.5 C 917.833,519.167 917.833,519.167 916.5,518.5 Z"/></g>
<g><path style="opacity:0.974" fill="#a0e0fe" d="M 129.5,521.5 C 129.664,524.187 129.497,526.854 129,529.5C 127.701,523.881 127.368,518.214 128,512.5C 128.181,515.695 128.681,518.695 129.5,521.5 Z"/></g>
<g><path style="opacity:0.99" fill="#a0e1fe" d="M 913.5,516.5 C 914.461,518.265 914.795,520.265 914.5,522.5C 914.5,522.833 914.5,523.167 914.5,523.5C 913.683,525.969 913.183,528.635 913,531.5C 912.612,526.489 912.778,521.489 913.5,516.5 Z"/></g>
<g><path style="opacity:0.004" fill="#94cff3" d="M 106.5,528.5 C 107.833,529.167 107.833,529.167 106.5,528.5 Z"/></g>
<g><path style="opacity:0.988" fill="#9bdbfb" d="M 891.5,540.5 C 891.395,536.452 891.728,532.452 892.5,528.5C 893.302,527.048 893.802,525.382 894,523.5C 894.118,532.537 893.452,541.537 892,550.5C 891.502,547.183 891.335,543.85 891.5,540.5 Z"/></g>
<g><path style="opacity:0.181" fill="#93d0f5" d="M 108.5,523.5 C 109.167,526.5 109.833,529.5 110.5,532.5C 110.5,536.167 110.5,539.833 110.5,543.5C 109.784,541.444 109.117,539.277 108.5,537C 108.758,532.625 108.758,528.125 108.5,523.5 Z"/></g>
<g><path style="opacity:0.992" fill="#9ad9fb" d="M 733.5,512.5 C 739.738,523.305 745.738,534.305 751.5,545.5C 751.631,546.239 751.464,546.906 751,547.5C 744.027,536.062 737.527,524.395 731.5,512.5C 731.97,511.537 732.637,511.537 733.5,512.5 Z"/></g>
<g><path style="opacity:0.979" fill="#9bdafc" d="M 130.5,531.5 C 131.479,534.625 131.813,537.958 131.5,541.5C 131.665,544.518 131.498,547.518 131,550.5C 129.535,544.031 129.368,537.698 130.5,531.5 Z"/></g>
<g><path style="opacity:0.004" fill="#94cff3" d="M 107.5,541.5 C 108.833,542.167 108.833,542.167 107.5,541.5 Z"/></g>
<g><path style="opacity:0.98" fill="#9ad8fb" d="M 738.5,566.5 C 733.527,557.896 728.527,549.229 723.5,540.5C 722.675,539.614 721.675,539.281 720.5,539.5C 720.918,538.778 721.584,538.278 722.5,538C 720.68,534.859 719.014,531.692 717.5,528.5C 717.393,526.621 717.893,526.288 719,527.5C 720.166,530.503 721.833,533.17 724,535.5C 728.695,545.221 733.695,554.888 739,564.5C 740.067,565.191 741.234,565.691 742.5,566C 741.122,567.334 739.789,567.501 738.5,566.5 Z"/></g>
<g><path style="opacity:1" fill="#99d8fb" d="M 295.5,546.5 C 293.75,550.335 291.75,554.001 289.5,557.5C 288.637,558.463 287.97,558.463 287.5,557.5C 290,553.167 292.5,548.833 295,544.5C 295.464,545.094 295.631,545.761 295.5,546.5 Z"/></g>
<g><path style="opacity:0.997" fill="#9cdcfc" d="M 110.5,532.5 C 111.917,540.469 112.917,548.636 113.5,557C 113.494,559.033 113.161,560.866 112.5,562.5C 111.253,556.37 110.586,550.037 110.5,543.5C 110.5,539.833 110.5,536.167 110.5,532.5 Z"/></g>
<g><path style="opacity:0.99" fill="#9bdafc" d="M 246.5,591.5 C 259.595,566.971 272.929,542.638 286.5,518.5C 287.363,517.537 288.03,517.537 288.5,518.5C 274.336,544.161 260.169,569.828 246,595.5C 245.805,594.181 245.972,592.847 246.5,591.5 Z"/></g>
<g><path style="opacity:0.992" fill="#9bdafb" d="M 753.5,549.5 C 761.338,562.504 768.671,575.838 775.5,589.5C 775.607,591.379 775.107,591.712 774,590.5C 766.6,576.824 759.1,563.157 751.5,549.5C 751.97,548.537 752.637,548.537 753.5,549.5 Z"/></g>
<g><path style="opacity:0.99" fill="#9bdbfc" d="M 911.5,552.5 C 911.756,556.269 911.423,559.936 910.5,563.5C 909.686,565.631 909.186,567.964 909,570.5C 908.473,564.656 908.639,558.822 909.5,553C 910.752,538.218 911.419,538.052 911.5,552.5 Z"/></g>
<g><path style="opacity:0.984" fill="#9cdbfb" d="M 284.5,566.5 C 284.5,567.167 284.5,567.833 284.5,568.5C 282.588,570.657 280.921,572.991 279.5,575.5C 278.637,576.463 277.97,576.463 277.5,575.5C 279.667,571.833 281.833,568.167 284,564.5C 284.464,565.094 284.631,565.761 284.5,566.5 Z"/></g>
<g><path style="opacity:0.946" fill="#9bdbfc" d="M 887.5,579.5 C 887.638,572.637 888.304,565.97 889.5,559.5C 890.314,557.369 890.814,555.036 891,552.5C 890.604,564.855 889.604,577.188 888,589.5C 887.502,586.183 887.335,582.85 887.5,579.5 Z"/></g>
<g><path style="opacity:0.478" fill="#93d0f6" d="M 133.5,559.5 C 134.879,565.617 135.546,571.95 135.5,578.5C 134.121,572.383 133.454,566.05 133.5,559.5 Z"/></g>
<g><path style="opacity:0.012" fill="#94cff4" d="M 910.5,573.5 C 911.833,574.167 911.833,574.167 910.5,573.5 Z"/></g>
<g><path style="opacity:0.012" fill="#94cff4" d="M 111.5,574.5 C 112.833,575.167 112.833,575.167 111.5,574.5 Z"/></g>
<g><path style="opacity:0.997" fill="#9fe0fe" d="M 133.5,556.5 C 133.5,557.5 133.5,558.5 133.5,559.5C 133.454,566.05 134.121,572.383 135.5,578.5C 135.665,581.518 135.498,584.518 135,587.5C 133.189,575.543 132.189,563.543 132,551.5C 132.198,553.382 132.698,555.048 133.5,556.5 Z"/></g>
<g><path style="opacity:0.004" fill="#94cff3" d="M 910.5,577.5 C 911.525,577.897 911.692,578.563 911,579.5C 910.536,578.906 910.369,578.239 910.5,577.5 Z"/></g>
<g><path style="opacity:1" fill="#9bdafb" d="M 276.5,581.5 C 275.89,583.434 274.89,585.101 273.5,586.5C 271.895,587.969 271.395,587.635 272,585.5C 273.333,583.5 274.667,581.5 276,579.5C 276.464,580.094 276.631,580.761 276.5,581.5 Z"/></g>
<g><path style="opacity:0.004" fill="#94cff3" d="M 909.5,582.5 C 910.833,583.167 910.833,583.167 909.5,582.5 Z"/></g>
<g><path style="opacity:0.976" fill="#9bdafc" d="M 908.5,580.5 C 908.747,583.939 908.414,587.272 907.5,590.5C 906.494,595.662 905.661,600.995 905,606.5C 905.036,595.434 906.036,584.434 908,573.5C 908.497,575.81 908.663,578.143 908.5,580.5 Z"/></g>
<g><path style="opacity:0.004" fill="#94cff3" d="M 113.5,592.5 C 114.833,593.167 114.833,593.167 113.5,592.5 Z"/></g>
<g><path style="opacity:0.004" fill="#94cff3" d="M 113.5,594.5 C 114.833,595.167 114.833,595.167 113.5,594.5 Z"/></g>
<g><path style="opacity:0.991" fill="#9ddcfc" d="M 118.5,607.5 C 117.833,604.833 117.167,602.167 116.5,599.5C 115.521,596.375 115.187,593.042 115.5,589.5C 115.56,588.957 115.893,588.624 116.5,588.5C 117.761,594.772 118.427,601.105 118.5,607.5 Z"/></g>
<g><path style="opacity:0.004" fill="#94cff3" d="M 908.5,595.5 C 909.833,596.167 909.833,596.167 908.5,595.5 Z"/></g>
<g><path style="opacity:0.986" fill="#a0e0fe" d="M 135.5,591.5 C 137.468,599.936 138.301,608.603 138,617.5C 136.763,608.866 135.929,600.2 135.5,591.5 Z"/></g>
<g><path style="opacity:0.995" fill="#99d8fb" d="M 745.5,605.5 C 749.106,603.697 752.773,601.864 756.5,600C 754.693,596.885 753.027,593.719 751.5,590.5C 751.393,588.621 751.893,588.288 753,589.5C 754.787,593.577 756.954,597.41 759.5,601C 755.409,602.905 751.242,604.738 747,606.5C 746.235,606.43 745.735,606.097 745.5,605.5 Z"/></g>
<g><path style="opacity:0.992" fill="#9ad9fb" d="M 777.5,593.5 C 778.316,595.144 779.65,596.31 781.5,597C 789.705,599.619 797.705,602.452 805.5,605.5C 805.918,606.222 806.584,606.722 807.5,607C 807,607.167 806.5,607.333 806,607.5C 796.239,604.135 786.406,600.969 776.5,598C 776.499,596.601 776.165,595.101 775.5,593.5C 775.97,592.537 776.637,592.537 777.5,593.5 Z"/></g>
<g><path style="opacity:0.004" fill="#94cff3" d="M 114.5,604.5 C 115.833,605.167 115.833,605.167 114.5,604.5 Z"/></g>
<g><path style="opacity:0.969" fill="#9adafb" d="M 268.5,602.5 C 275.127,604.262 281.461,606.595 287.5,609.5C 288.614,611.353 287.948,611.853 285.5,611C 278.829,608.333 272.162,605.666 265.5,603C 266.448,602.517 267.448,602.351 268.5,602.5 Z"/></g>
<g><path style="opacity:0.988" fill="#9cdbfc" d="M 884.5,609.5 C 884.237,605.4 884.57,601.4 885.5,597.5C 886.302,596.048 886.802,594.382 887,592.5C 887.327,601.224 886.66,609.89 885,618.5C 884.502,615.518 884.335,612.518 884.5,609.5 Z"/></g>
<g><path style="opacity:0.996" fill="#9bd9fb" d="M 240.5,597.5 C 241.552,597.351 242.552,597.517 243.5,598C 223.796,604.735 204.129,611.568 184.5,618.5C 183.537,618.03 183.537,617.363 184.5,616.5C 202.955,609.792 221.622,603.459 240.5,597.5 Z"/></g>
<g><path style="opacity:0.201" fill="#93d0f6" d="M 116.5,599.5 C 117.167,602.167 117.833,604.833 118.5,607.5C 118.5,611.167 118.5,614.833 118.5,618.5C 117.679,615.359 117.179,612.025 117,608.5C 116.5,608 116,607.5 115.5,607C 116.435,604.619 116.768,602.119 116.5,599.5 Z"/></g>
<g><path style="opacity:0.996" fill="#9bdafb" d="M 811.5,607.5 C 819.784,609.595 827.784,612.261 835.5,615.5C 835.918,616.222 836.584,616.722 837.5,617C 827.657,614.832 817.99,611.832 808.5,608C 809.448,607.517 810.448,607.351 811.5,607.5 Z"/></g>
<g><path style="opacity:0.977" fill="#9ad9fc" d="M 251.5,618.5 C 250.178,618.67 249.011,618.337 248,617.5C 245.993,618.669 243.827,619.335 241.5,619.5C 240.957,619.44 240.624,619.107 240.5,618.5C 243.287,617.356 246.12,616.356 249,615.5C 250.877,616.253 252.711,617.086 254.5,618C 253.552,618.483 252.552,618.649 251.5,618.5 Z"/></g>
<g><path style="opacity:1" fill="#9bdafb" d="M 297.5,613.5 C 301.099,614.699 304.765,615.699 308.5,616.5C 314.167,619.167 319.833,621.833 325.5,624.5C 325.265,625.097 324.765,625.43 324,625.5C 314.245,621.471 304.412,617.637 294.5,614C 295.448,613.517 296.448,613.351 297.5,613.5 Z"/></g>
<g><path style="opacity:0.988" fill="#9fdffe" d="M 140.5,626.5 C 140.5,626.833 140.5,627.167 140.5,627.5C 140.657,628.873 140.49,630.207 140,631.5C 138.543,627.259 138.209,622.926 139,618.5C 139.183,621.365 139.683,624.031 140.5,626.5 Z"/></g>
<g><path style="opacity:0.984" fill="#9cdbfc" d="M 264.5,623.5 C 261.458,623.267 258.792,622.267 256.5,620.5C 257.251,619.427 258.251,619.26 259.5,620C 261.833,621 264.167,622 266.5,623C 265.906,623.464 265.239,623.631 264.5,623.5 Z"/></g>
<g><path style="opacity:0.98" fill="#9ad9fb" d="M 711.5,617.5 C 712.5,617.5 713.5,617.5 714.5,617.5C 715.239,617.369 715.906,617.536 716.5,618C 711.974,619.757 707.474,621.591 703,623.5C 702.235,623.43 701.735,623.097 701.5,622.5C 704.833,620.833 708.167,619.167 711.5,617.5 Z"/></g>
<g><path style="opacity:0.976" fill="#9ad9fb" d="M 179.5,618.5 C 180.552,618.351 181.552,618.517 182.5,619C 176.94,620.853 171.44,622.687 166,624.5C 165.235,624.43 164.735,624.097 164.5,623.5C 169.216,621.261 174.216,619.595 179.5,618.5 Z"/></g>
<g><path style="opacity:0.988" fill="#9ad9fb" d="M 829.5,636.5 C 820.904,633.635 812.237,630.968 803.5,628.5C 794.077,624.303 784.244,620.97 774,618.5C 760.013,623.077 746.179,628.077 732.5,633.5C 729.402,633.587 729.068,633.087 731.5,632C 745.632,626.229 759.965,620.729 774.5,615.5C 793.985,622.828 813.651,629.662 833.5,636C 832.207,636.49 830.873,636.657 829.5,636.5 Z"/></g>
<g><path style="opacity:1" fill="#9cdbfc" d="M 698.5,623.5 C 700.379,623.393 700.712,623.893 699.5,625C 696.911,626.314 694.244,626.981 691.5,627C 692.416,626.722 693.082,626.222 693.5,625.5C 694.93,624.463 696.597,623.796 698.5,623.5 Z"/></g>
<g><path style="opacity:0.988" fill="#9edffe" d="M 904.5,617.5 C 904.5,618.833 904.5,620.167 904.5,621.5C 903.016,626.253 902.182,631.253 902,636.5C 901.702,627.113 902.368,617.78 904,608.5C 904.498,611.482 904.665,614.482 904.5,617.5 Z"/></g>
<g><path style="opacity:0.991" fill="#9adafb" d="M 841.5,617.5 C 852.424,620.639 863.091,624.306 873.5,628.5C 874.263,629.268 875.263,629.768 876.5,630C 863.666,626.834 850.999,622.834 838.5,618C 839.448,617.517 840.448,617.351 841.5,617.5 Z"/></g>
<g><path style="opacity:0.988" fill="#9adafc" d="M 218.5,627.5 C 214.784,629.405 210.784,630.739 206.5,631.5C 205.761,631.631 205.094,631.464 204.5,631C 209.634,628.388 214.967,626.722 220.5,626C 219.584,626.278 218.918,626.778 218.5,627.5 Z"/></g>
<g><path style="opacity:0.973" fill="#9ad9fb" d="M 688.5,627.5 C 689.239,627.369 689.906,627.536 690.5,628C 687.532,630.062 684.532,630.895 681.5,630.5C 683.426,628.707 685.759,627.707 688.5,627.5 Z"/></g>
<g><path style="opacity:0.996" fill="#9bdafb" d="M 299.5,637.5 C 288.645,633.523 278.312,629.523 268.5,625.5C 267.386,623.647 268.052,623.147 270.5,624C 281.167,628.333 291.833,632.667 302.5,637C 301.552,637.483 300.552,637.649 299.5,637.5 Z"/></g>
<g><path style="opacity:0.988" fill="#9ad9fb" d="M 678.5,631.5 C 679.239,631.369 679.906,631.536 680.5,632C 673.966,635.57 667.299,637.737 660.5,638.5C 666.22,635.647 672.22,633.314 678.5,631.5 Z"/></g>
<g><path style="opacity:0.984" fill="#9bdafb" d="M 859.5,646.5 C 856.5,645.833 853.5,645.167 850.5,644.5C 845.751,642.695 841.085,640.695 836.5,638.5C 836.735,637.903 837.235,637.57 838,637.5C 845.612,640.066 853.112,642.733 860.5,645.5C 860.376,646.107 860.043,646.44 859.5,646.5 Z"/></g>
<g><path style="opacity:1" fill="#9ad9fb" d="M 727.5,635.5 C 720.887,638.931 713.887,641.597 706.5,643.5C 705.761,643.631 705.094,643.464 704.5,643C 711.611,640.028 718.777,637.195 726,634.5C 726.765,634.57 727.265,634.903 727.5,635.5 Z"/></g>
<g><path style="opacity:0.976" fill="#9bdafb" d="M 657.5,639.5 C 658.239,639.369 658.906,639.536 659.5,640C 654.561,642.317 649.561,644.484 644.5,646.5C 643.537,646.03 643.537,645.363 644.5,644.5C 648.522,642.266 652.856,640.599 657.5,639.5 Z"/></g>
<g><path style="opacity:0.996" fill="#9bdbfd" d="M 699.5,646.5 C 698.07,647.537 696.403,648.204 694.5,648.5C 693.448,648.649 692.448,648.483 691.5,648C 694.742,646.361 698.076,645.361 701.5,645C 700.584,645.278 699.918,645.778 699.5,646.5 Z"/></g>
<g><path style="opacity:0.991" fill="#9edefd" d="M 855.5,650.5 C 856.514,649.326 857.847,648.66 859.5,648.5C 860.458,648.047 861.292,647.381 862,646.5C 862.667,647.167 862.667,647.833 862,648.5C 859.551,650.146 857.051,651.313 854.5,652C 855.056,651.617 855.389,651.117 855.5,650.5 Z"/></g>
<g><path style="opacity:0.993" fill="#9bdafb" d="M 363.5,662.5 C 343.717,655.108 324.051,647.441 304.5,639.5C 303.537,638.637 303.537,637.97 304.5,637.5C 325.319,645.414 345.985,653.581 366.5,662C 365.552,662.483 364.552,662.649 363.5,662.5 Z"/></g>
<g><path style="opacity:0.918" fill="#9ad9fb" d="M 637.5,647.5 C 638.239,647.369 638.906,647.536 639.5,648C 629.167,652.167 618.833,656.333 608.5,660.5C 607.537,660.03 607.537,659.363 608.5,658.5C 614.686,655.714 621.019,653.214 627.5,651C 629.492,650.426 630.992,649.259 632,647.5C 633.707,648.138 635.54,648.138 637.5,647.5 Z"/></g>
<g><path style="opacity:0.996" fill="#9bdbfc" d="M 686.5,651.5 C 683.47,653.403 680.137,654.737 676.5,655.5C 675.761,655.631 675.094,655.464 674.5,655C 678.457,652.612 682.457,651.446 686.5,651.5 Z"/></g>
<g><path style="opacity:0.008" fill="#94cff4" d="M 127.5,655.5 C 127.897,654.475 128.563,654.308 129.5,655C 128.906,655.464 128.239,655.631 127.5,655.5 Z"/></g>
<g><path style="opacity:0.957" fill="#9ad9fb" d="M 901.5,641.5 C 901.026,645.281 899.359,648.448 896.5,651C 886.93,656.942 877.597,663.109 868.5,669.5C 866.716,669.893 865.05,670.559 863.5,671.5C 862.761,671.631 862.094,671.464 861.5,671C 872.167,664.333 882.833,657.667 893.5,651C 897.956,647.587 900.456,643.087 901,637.5C 901.49,638.793 901.657,640.127 901.5,641.5 Z"/></g>
<g><path style="opacity:0.984" fill="#9ad9fb" d="M 849.5,654.5 C 850.239,654.369 850.906,654.536 851.5,655C 838.481,662.995 825.481,670.662 812.5,678C 813.056,677.617 813.389,677.117 813.5,676.5C 825.158,668.668 837.158,661.335 849.5,654.5 Z"/></g>
<g><path style="opacity:0.004" fill="#94cff3" d="M 136.5,659.5 C 137.833,660.167 137.833,660.167 136.5,659.5 Z"/></g>
<g><path style="opacity:0.004" fill="#94cff3" d="M 884.5,659.5 C 885.833,660.167 885.833,660.167 884.5,659.5 Z"/></g>
<g><path style="opacity:0.992" fill="#9ad9fb" d="M 118.5,607.5 C 119.997,620.079 121.831,632.746 124,645.5C 125.685,647.017 127.185,648.684 128.5,650.5C 143.5,659.667 158.5,668.833 173.5,678C 174.712,679.107 174.379,679.607 172.5,679.5C 171.609,678.89 170.609,678.557 169.5,678.5C 157.939,670.491 146.106,663.491 134,657.5C 127.704,653.209 122.871,647.709 119.5,641C 120.059,640.275 120.392,639.442 120.5,638.5C 119.437,631.873 118.771,625.206 118.5,618.5C 118.5,614.833 118.5,611.167 118.5,607.5 Z"/></g>
<g><path style="opacity:0.992" fill="#9cdcfc" d="M 661.5,661.5 C 660.07,662.537 658.403,663.204 656.5,663.5C 655.448,663.649 654.448,663.483 653.5,663C 656.742,661.361 660.076,660.361 663.5,660C 662.584,660.278 661.918,660.778 661.5,661.5 Z"/></g>
<g><path style="opacity:0.994" fill="#9bdafb" d="M 328.5,625.5 C 344.845,631.504 361.178,637.504 377.5,643.5C 421.754,661.362 466.087,679.029 510.5,696.5C 510.44,697.043 510.107,697.376 509.5,697.5C 448.187,674.424 387.187,650.591 326.5,626C 327.094,625.536 327.761,625.369 328.5,625.5 Z"/></g>
<g><path style="opacity:0.988" fill="#9ad9fb" d="M 604.5,660.5 C 605.239,660.369 605.906,660.536 606.5,661C 592.173,666.94 577.84,672.773 563.5,678.5C 562.537,678.03 562.537,677.363 563.5,676.5C 566.254,675.359 568.921,674.025 571.5,672.5C 582.488,668.504 593.488,664.504 604.5,660.5 Z"/></g>
<g><path style="opacity:0.004" fill="#94cff3" d="M 873.5,666.5 C 874.833,667.167 874.833,667.167 873.5,666.5 Z"/></g>
<g><path style="opacity:0.98" fill="#9ad9fb" d="M 648.5,666.5 C 642.126,669.679 635.46,672.346 628.5,674.5C 627.448,674.649 626.448,674.483 625.5,674C 633.651,670.175 641.984,667.175 650.5,665C 649.584,665.278 648.918,665.778 648.5,666.5 Z"/></g>
<g><path style="opacity:0.993" fill="#9bd9fb" d="M 164.5,648.5 C 191.511,664.669 218.178,681.336 244.5,698.5C 244.565,698.938 244.399,699.272 244,699.5C 216.74,682.788 189.573,665.955 162.5,649C 163.094,648.536 163.761,648.369 164.5,648.5 Z"/></g>
<g><path style="opacity:0.004" fill="#94cff3" d="M 868.5,669.5 C 869.833,670.167 869.833,670.167 868.5,669.5 Z"/></g>
<g><path style="opacity:0.933" fill="#9bd9fb" d="M 399.5,676.5 C 389.137,673.365 378.804,669.365 368.5,664.5C 367.537,663.637 367.537,662.97 368.5,662.5C 379.54,667.024 390.54,671.524 401.5,676C 400.906,676.464 400.239,676.631 399.5,676.5 Z"/></g>
<g><path style="opacity:0.004" fill="#94cff3" d="M 169.5,678.5 C 168.833,679.167 168.833,679.167 169.5,678.5 Z"/></g>
<g><path style="opacity:0.992" fill="#9adafb" d="M 859.5,673.5 C 857.054,676.231 854.054,678.231 850.5,679.5C 849.761,679.631 849.094,679.464 848.5,679C 851.947,677.061 855.281,674.894 858.5,672.5C 859.107,672.624 859.44,672.957 859.5,673.5 Z"/></g>
<g><path style="opacity:0.004" fill="#94cff3" d="M 854.5,678.5 C 855.833,679.167 855.833,679.167 854.5,678.5 Z"/></g>
<g><path style="opacity:0.987" fill="#9cdbfc" d="M 414.5,682.5 C 410.884,681.686 407.551,680.352 404.5,678.5C 404.082,677.778 403.416,677.278 402.5,677C 407.673,677.835 412.673,679.502 417.5,682C 416.552,682.483 415.552,682.649 414.5,682.5 Z"/></g>
<g><path style="opacity:0.314" fill="#99d8fa" d="M 847.5,681.5 C 832.962,690.264 818.629,699.264 804.5,708.5C 798.878,711.472 793.545,714.805 788.5,718.5C 784.946,719.769 781.946,721.769 779.5,724.5C 776.122,727.589 772.455,729.589 768.5,730.5C 767.761,730.631 767.094,730.464 766.5,730C 779.167,722 791.833,714 804.5,706C 818.108,697.542 832.275,688.709 847,679.5C 847.464,680.094 847.631,680.761 847.5,681.5 Z"/></g>
<g><path style="opacity:0.004" fill="#94cff3" d="M 842.5,685.5 C 843.833,686.167 843.833,686.167 842.5,685.5 Z"/></g>
<g><path style="opacity:0.973" fill="#9ad9fa" d="M 602.5,684.5 C 598.901,686.928 594.901,688.594 590.5,689.5C 588.621,689.607 588.288,689.107 589.5,688C 593.333,686.5 597.167,685 601,683.5C 601.765,683.57 602.265,683.903 602.5,684.5 Z"/></g>
<g><path style="opacity:0.994" fill="#9dddfc" d="M 538.5,686.5 C 539.552,686.351 540.552,686.517 541.5,687C 539.754,687.471 538.087,688.138 536.5,689C 535.251,689.74 534.251,689.573 533.5,688.5C 534.78,687.069 536.447,686.402 538.5,686.5 Z"/></g>
<g><path style="opacity:0.988" fill="#9bdafb" d="M 473.5,705.5 C 455.077,699.254 437.077,692.254 419.5,684.5C 419.735,683.903 420.235,683.57 421,683.5C 439.404,690.296 457.57,697.463 475.5,705C 474.906,705.464 474.239,705.631 473.5,705.5 Z"/></g>
<g><path style="opacity:0.992" fill="#99d9fb" d="M 530.5,689.5 C 531.239,689.369 531.906,689.536 532.5,690C 526.459,692.402 520.459,694.902 514.5,697.5C 513.537,697.03 513.537,696.363 514.5,695.5C 517.254,694.359 519.921,693.025 522.5,691.5C 525.167,690.833 527.833,690.167 530.5,689.5 Z"/></g>
<g><path style="opacity:0.004" fill="#94cff3" d="M 200.5,698.5 C 201.833,699.167 201.833,699.167 200.5,698.5 Z"/></g>
<g><path style="opacity:1" fill="#9ad9fb" d="M 810.5,678.5 C 811.332,679.329 810.999,680.162 809.5,681C 797.815,688.327 786.148,695.327 774.5,702C 775.056,701.617 775.389,701.117 775.5,700.5C 784.007,695.081 792.34,689.414 800.5,683.5C 803.817,681.863 807.15,680.196 810.5,678.5 Z"/></g>
<g><path style="opacity:1" fill="#9bdafb" d="M 491.5,712.5 C 486.688,711.23 482.022,709.563 477.5,707.5C 476.537,706.637 476.537,705.97 477.5,705.5C 483.157,707.66 488.823,709.827 494.5,712C 493.552,712.483 492.552,712.649 491.5,712.5 Z"/></g>
<g><path style="opacity:0.004" fill="#94cff3" d="M 804.5,708.5 C 805.833,709.167 805.833,709.167 804.5,708.5 Z"/></g>
<g><path style="opacity:0.362" fill="#93d0f6" d="M 499.5,716.5 C 499.833,717.833 500.167,717.833 500.5,716.5C 500.833,716.5 501.167,716.5 501.5,716.5C 501.5,761.167 501.5,805.833 501.5,850.5C 501.665,853.85 501.498,857.183 501,860.5C 500.329,859.748 499.496,859.414 498.5,859.5C 498.167,858.833 497.833,858.167 497.5,857.5C 498.496,857.414 499.329,857.748 500,858.5C 500.167,855 500.333,851.5 500.5,848C 499.916,810.64 499.916,773.14 500.5,735.5C 500.333,729.833 500.167,724.167 500,718.5C 499.667,718.833 499.333,719.167 499,719.5C 497.188,717.696 497.354,716.696 499.5,716.5 Z"/></g>
<g><path style="opacity:0.004" fill="#94cff3" d="M 793.5,716.5 C 794.833,717.167 794.833,717.167 793.5,716.5 Z"/></g>
<g><path style="opacity:0.004" fill="#94cff3" d="M 232.5,718.5 C 233.833,719.167 233.833,719.167 232.5,718.5 Z"/></g>
<g><path style="opacity:0.004" fill="#94cff3" d="M 788.5,718.5 C 789.833,719.167 789.833,719.167 788.5,718.5 Z"/></g>
<g><path style="opacity:0.988" fill="#9ad9fb" d="M 332.5,778.5 C 331.833,778.5 331.167,778.5 330.5,778.5C 328.371,776.05 325.704,774.383 322.5,773.5C 318.661,770.183 313.995,767.183 308.5,764.5C 274.492,742.627 240.659,721.294 207,700.5C 196.758,694.927 186.592,688.594 176.5,681.5C 176.389,680.883 176.056,680.383 175.5,680C 228.348,711.771 281.015,744.104 333.5,777C 334.712,778.107 334.379,778.607 332.5,778.5 Z"/></g>
<g><path style="opacity:0.012" fill="#94cff4" d="M 779.5,724.5 C 780.833,725.167 780.833,725.167 779.5,724.5 Z"/></g>
<g><path style="opacity:0.992" fill="#9ad9fb" d="M 770.5,703.5 C 771.239,703.369 771.906,703.536 772.5,704C 747.316,720.241 721.982,735.908 696.5,751C 697.056,750.617 697.389,750.117 697.5,749.5C 710.5,740.833 723.5,732.167 736.5,723.5C 743.033,720.619 749.033,716.953 754.5,712.5C 759.833,709.5 765.167,706.5 770.5,703.5 Z"/></g>
<g><path style="opacity:0.004" fill="#94cff3" d="M 763.5,734.5 C 764.833,735.167 764.833,735.167 763.5,734.5 Z"/></g>
<g><path style="opacity:1" fill="#9bdafb" d="M 763.5,733.5 C 763.5,733.833 763.5,734.167 763.5,734.5C 759.7,736.234 756.034,738.234 752.5,740.5C 751.761,740.631 751.094,740.464 750.5,740C 754.698,736.97 759.032,734.137 763.5,731.5C 764.463,731.97 764.463,732.637 763.5,733.5 Z"/></g>
<g><path style="opacity:0.992" fill="#9bdafb" d="M 248.5,700.5 C 256.528,705.178 264.528,709.845 272.5,714.5C 272.5,715.167 272.833,715.5 273.5,715.5C 290.167,726.167 306.833,736.833 323.5,747.5C 324.969,749.105 324.635,749.605 322.5,749C 297.167,733 271.833,717 246.5,701C 247.094,700.536 247.761,700.369 248.5,700.5 Z"/></g>
<g><path style="opacity:0.957" fill="#9ad9fb" d="M 748.5,742.5 C 746.116,744.885 743.45,746.885 740.5,748.5C 739.833,748.5 739.5,748.833 739.5,749.5C 738.391,749.557 737.391,749.89 736.5,750.5C 735.761,750.631 735.094,750.464 734.5,750C 738.833,747.167 743.167,744.333 747.5,741.5C 748.107,741.624 748.44,741.957 748.5,742.5 Z"/></g>
<g><path style="opacity:0.004" fill="#94cff3" d="M 740.5,748.5 C 741.833,749.167 741.833,749.167 740.5,748.5 Z"/></g>
<g><path style="opacity:0.012" fill="#94cff4" d="M 739.5,749.5 C 739.833,749.5 740.167,749.5 740.5,749.5C 740.315,750.17 739.981,750.17 739.5,749.5 Z"/></g>
<g><path style="opacity:1" fill="#9ad8fb" d="M 732.5,752.5 C 725.126,757.86 717.459,762.86 709.5,767.5C 708.761,767.631 708.094,767.464 707.5,767C 715.167,762 722.833,757 730.5,752C 731.437,751.308 732.103,751.475 732.5,752.5 Z"/></g>
<g><path style="opacity:0.004" fill="#94cff3" d="M 308.5,764.5 C 308.103,765.525 307.437,765.692 306.5,765C 307.094,764.536 307.761,764.369 308.5,764.5 Z"/></g>
<g><path style="opacity:0.004" fill="#94cff3" d="M 714.5,765.5 C 715.833,766.167 715.833,766.167 714.5,765.5 Z"/></g>
<g><path style="opacity:0.975" fill="#9ad9fb" d="M 328.5,750.5 C 338.874,756.347 348.874,762.681 358.5,769.5C 359.463,770.363 359.463,771.03 358.5,771.5C 347.664,764.916 336.997,758.083 326.5,751C 327.094,750.536 327.761,750.369 328.5,750.5 Z"/></g>
<g><path style="opacity:0.004" fill="#94cff3" d="M 319.5,772.5 C 320.833,773.167 320.833,773.167 319.5,772.5 Z"/></g>
<g><path style="opacity:0.004" fill="#94cff3" d="M 322.5,773.5 C 321.833,774.167 321.833,774.167 322.5,773.5 Z"/></g>
<g><path style="opacity:0.012" fill="#94cff4" d="M 330.5,778.5 C 329.833,779.167 329.833,779.167 330.5,778.5 Z"/></g>
<g><path style="opacity:0.004" fill="#94cff3" d="M 694.5,778.5 C 695.833,779.167 695.833,779.167 694.5,778.5 Z"/></g>
<g><path style="opacity:0.004" fill="#94cff3" d="M 690.5,782.5 C 691.833,783.167 691.833,783.167 690.5,782.5 Z"/></g>
<g><path style="opacity:0.988" fill="#99d9fb" d="M 705.5,769.5 C 694.544,777.318 683.21,784.651 671.5,791.5C 670.761,791.631 670.094,791.464 669.5,791C 680.833,783.667 692.167,776.333 703.5,769C 704.437,768.308 705.103,768.475 705.5,769.5 Z"/></g>
<g><path style="opacity:0.991" fill="#9ad9fb" d="M 694.5,751.5 C 695.738,751.81 695.738,752.31 694.5,753C 671.303,768.096 647.969,782.929 624.5,797.5C 623.537,797.03 623.537,796.363 624.5,795.5C 625.306,794.272 626.306,793.272 627.5,792.5C 632.009,790.081 636.342,787.414 640.5,784.5C 658.793,773.045 676.793,762.045 694.5,751.5 Z"/></g>
<g><path style="opacity:0.004" fill="#94cff3" d="M 346.5,788.5 C 346.5,788.833 346.5,789.167 346.5,789.5C 345.83,789.019 345.83,788.685 346.5,788.5 Z"/></g>
<g><path style="opacity:0.996" fill="#99d8fb" d="M 372.5,803.5 C 363.833,798.5 355.167,793.5 346.5,788.5C 342.833,785.833 339.167,783.167 335.5,780.5C 335.56,779.957 335.893,779.624 336.5,779.5C 349.334,787.083 362.001,794.916 374.5,803C 373.906,803.464 373.239,803.631 372.5,803.5 Z"/></g>
<g><path style="opacity:0.004" fill="#94cff3" d="M 346.5,789.5 C 347.833,790.167 347.833,790.167 346.5,789.5 Z"/></g>
<g><path style="opacity:0.991" fill="#9ddcfc" d="M 501.5,850.5 C 501.5,805.833 501.5,761.167 501.5,716.5C 502.186,733.333 502.852,750.833 503.5,769C 502.167,795 502.167,821 503.5,847C 502.915,848.302 502.249,849.469 501.5,850.5 Z"/></g>
<g><path style="opacity:0.004" fill="#94cff3" d="M 676.5,789.5 C 677.833,790.167 677.833,790.167 676.5,789.5 Z"/></g>
<g><path style="opacity:0.004" fill="#94cff3" d="M 666.5,795.5 C 667.833,796.167 667.833,796.167 666.5,795.5 Z"/></g>
<g><path style="opacity:0.004" fill="#94cff3" d="M 372.5,804.5 C 371.833,805.167 371.833,805.167 372.5,804.5 Z"/></g>
<g><path style="opacity:0.976" fill="#9ad9fb" d="M 371.5,777.5 C 381.5,783.5 391.5,789.5 401.5,795.5C 404.494,798 407.827,800 411.5,801.5C 417.319,806.247 423.652,810.247 430.5,813.5C 431.436,814.974 432.77,815.974 434.5,816.5C 441.007,820.586 447.34,824.92 453.5,829.5C 454.463,830.363 454.463,831.03 453.5,831.5C 425.636,813.404 397.636,795.571 369.5,778C 370.094,777.536 370.761,777.369 371.5,777.5 Z"/></g>
<g><path style="opacity:0.004" fill="#94cff3" d="M 651.5,805.5 C 652.833,806.167 652.833,806.167 651.5,805.5 Z"/></g>
<g><path style="opacity:0.004" fill="#94cff3" d="M 636.5,814.5 C 637.833,815.167 637.833,815.167 636.5,814.5 Z"/></g>
<g><path style="opacity:0.992" fill="#99d8fa" d="M 664.5,795.5 C 664.141,797.485 663.308,798.151 662,797.5C 653.176,802.818 644.676,808.485 636.5,814.5C 633.489,815.669 630.822,817.336 628.5,819.5C 626.566,820.11 624.899,821.11 623.5,822.5C 619.543,824.473 615.876,826.806 612.5,829.5C 608.561,831.446 604.894,833.779 601.5,836.5C 600.391,836.557 599.391,836.89 598.5,837.5C 597.761,837.631 597.094,837.464 596.5,837C 618.72,822.605 641.054,808.438 663.5,794.5C 664.107,794.624 664.44,794.957 664.5,795.5 Z"/></g>
<g><path style="opacity:0.004" fill="#94cff3" d="M 391.5,817.5 C 392.833,818.167 392.833,818.167 391.5,817.5 Z"/></g>
<g><path style="opacity:0.004" fill="#94cff3" d="M 628.5,819.5 C 629.833,820.167 629.833,820.167 628.5,819.5 Z"/></g>
<g><path style="opacity:0.984" fill="#9ad8fb" d="M 437.5,844.5 C 433.326,841.912 428.993,839.579 424.5,837.5C 420.181,834.004 415.515,831.004 410.5,828.5C 399.004,820.585 387.338,812.918 375.5,805.5C 375.897,804.475 376.563,804.308 377.5,805C 397.833,817.833 418.167,830.667 438.5,843.5C 438.376,844.107 438.043,844.44 437.5,844.5 Z"/></g>
<g><path style="opacity:0.004" fill="#94cff3" d="M 626.5,821.5 C 627.833,822.167 627.833,822.167 626.5,821.5 Z"/></g>
<g><path style="opacity:0.004" fill="#94cff3" d="M 623.5,822.5 C 624.833,823.167 624.833,823.167 623.5,822.5 Z"/></g>
<g><path style="opacity:0.933" fill="#8fcdf7" d="M 523.5,715.5 C 526.258,716.967 525.925,717.633 522.5,717.5C 522.5,763.5 522.5,809.5 522.5,855.5C 521.335,809.335 521.168,763.002 522,716.5C 522.383,715.944 522.883,715.611 523.5,715.5 Z"/></g>
<g><path style="opacity:0.004" fill="#94cff3" d="M 410.5,828.5 C 409.833,829.167 409.833,829.167 410.5,828.5 Z"/></g>
<g><path style="opacity:0.004" fill="#94cff3" d="M 612.5,829.5 C 613.833,830.167 613.833,830.167 612.5,829.5 Z"/></g>
<g><path style="opacity:0.996" fill="#9bd9fb" d="M 618.5,799.5 C 619.738,799.81 619.738,800.31 618.5,801C 596.644,815.112 574.644,828.945 552.5,842.5C 551.893,842.376 551.56,842.043 551.5,841.5C 573.657,827.253 595.99,813.253 618.5,799.5 Z"/></g>
<g><path style="opacity:0.987" fill="#9bdafb" d="M 456.5,831.5 C 467.483,838.14 478.483,844.806 489.5,851.5C 491.822,853.664 494.489,855.331 497.5,856.5C 497.5,856.833 497.5,857.167 497.5,857.5C 497.833,858.167 498.167,858.833 498.5,859.5C 483.884,850.854 469.551,841.687 455.5,832C 455.728,831.601 456.062,831.435 456.5,831.5 Z"/></g>
<g><path style="opacity:0.004" fill="#94cff3" d="M 601.5,836.5 C 602.833,837.167 602.833,837.167 601.5,836.5 Z"/></g>
<g><path style="opacity:0.004" fill="#94cff3" d="M 424.5,837.5 C 423.833,838.167 423.833,838.167 424.5,837.5 Z"/></g>
<g><path style="opacity:0.004" fill="#94cff3" d="M 588.5,844.5 C 589.833,845.167 589.833,845.167 588.5,844.5 Z"/></g>
<g><path style="opacity:0.004" fill="#94cff3" d="M 437.5,846.5 C 438.833,847.167 438.833,847.167 437.5,846.5 Z"/></g>
<g><path style="opacity:0.98" fill="#9ad9fb" d="M 548.5,843.5 C 549.239,843.369 549.906,843.536 550.5,844C 543.833,848.333 537.167,852.667 530.5,857C 529.563,857.692 528.897,857.525 528.5,856.5C 532.167,853.833 535.833,851.167 539.5,848.5C 542.634,847.099 545.634,845.432 548.5,843.5 Z"/></g>
<g><path style="opacity:0.996" fill="#99d7fa" d="M 590.5,842.5 C 589.833,843.167 589.167,843.833 588.5,844.5C 582.833,847.833 577.167,851.167 571.5,854.5C 570.761,854.631 570.094,854.464 569.5,854C 575.167,850.333 580.833,846.667 586.5,843C 587.946,841.702 589.279,841.535 590.5,842.5 Z"/></g>
<g><path style="opacity:0.004" fill="#94cff3" d="M 457.5,858.5 C 456.833,859.167 456.833,859.167 457.5,858.5 Z"/></g>
<g><path style="opacity:0.251" fill="#99d8fa" d="M 566.5,857.5 C 561.125,861.527 555.459,865.193 549.5,868.5C 548.761,868.631 548.094,868.464 547.5,868C 553.345,864 559.345,860.167 565.5,856.5C 566.107,856.624 566.44,856.957 566.5,857.5 Z"/></g>
<g><path style="opacity:0.008" fill="#94cff4" d="M 473.5,868.5 C 473.5,868.833 473.5,869.167 473.5,869.5C 470.833,869.167 470.833,868.833 473.5,868.5 Z"/></g>
<g><path style="opacity:0.004" fill="#94cff3" d="M 551.5,868.5 C 552.833,869.167 552.833,869.167 551.5,868.5 Z"/></g>
<g><path style="opacity:0.004" fill="#94cff3" d="M 473.5,869.5 C 474.833,870.167 474.833,870.167 473.5,869.5 Z"/></g>
<g><path style="opacity:0.004" fill="#94cff3" d="M 538.5,876.5 C 539.833,877.167 539.833,877.167 538.5,876.5 Z"/></g>
<g><path style="opacity:0.988" fill="#9ad9fb" d="M 531.5,879.5 C 522.45,888.512 512.117,890.345 500.5,885C 491.778,878.976 482.778,873.476 473.5,868.5C 468.511,864.669 463.178,861.336 457.5,858.5C 451.5,854.167 445.5,849.833 439.5,845.5C 439.897,844.475 440.563,844.308 441.5,845C 462.497,858.834 483.83,872.167 505.5,885C 514.959,887.011 523.293,884.844 530.5,878.5C 531.107,878.624 531.44,878.957 531.5,879.5 Z"/></g>
<g><path style="opacity:0.004" fill="#94cff3" d="M 529.5,882.5 C 530.833,883.167 530.833,883.167 529.5,882.5 Z"/></g>
</svg>
