<?xml version="1.0" encoding="UTF-8"?>
<!DOCTYPE svg PUBLIC "-//W3C//DTD SVG 1.1//EN" "http://www.w3.org/Graphics/SVG/1.1/DTD/svg11.dtd">
<svg xmlns="http://www.w3.org/2000/svg" version="1.1" width="1024px" height="1024px" style="shape-rendering:geometricPrecision; text-rendering:geometricPrecision; image-rendering:optimizeQuality; fill-rule:evenodd; clip-rule:evenodd" xmlns:xlink="http://www.w3.org/1999/xlink">
<g><path style="opacity:0.004" fill="#9ed8f6" d="M 871.5,66.5 C 872.833,67.1667 872.833,67.1667 871.5,66.5 Z"/></g>
<g><path style="opacity:0.004" fill="#9ed8f6" d="M 502.5,120.5 C 503.833,121.167 503.833,121.167 502.5,120.5 Z"/></g>
<g><path style="opacity:0.012" fill="#9ed7f6" d="M 514.5,121.5 C 515.833,122.167 515.833,122.167 514.5,121.5 Z"/></g>
<g><path style="opacity:0.004" fill="#9ed8f6" d="M 497.5,124.5 C 498.833,125.167 498.833,125.167 497.5,124.5 Z"/></g>
<g><path style="opacity:0.995" fill="#9edcfe" d="M 510.5,123.5 C 510.735,122.903 511.235,122.57 512,122.5C 515.421,123.072 518.587,124.072 521.5,125.5C 520.448,125.351 519.448,125.517 518.5,126C 584.142,162.645 649.476,199.478 714.5,236.5C 715.463,236.03 715.463,235.363 714.5,234.5C 715.833,234.833 717.167,235.167 718.5,235.5C 718.5,235.833 718.5,236.167 718.5,236.5C 716.621,236.393 716.288,236.893 717.5,238C 724.996,241.914 732.329,246.08 739.5,250.5C 740.463,250.03 740.463,249.363 739.5,248.5C 741.674,248.75 743.341,249.75 744.5,251.5C 743.262,251.81 743.262,252.31 744.5,253C 757.575,259.837 769.908,267.004 781.5,274.5C 794.35,280.986 806.516,287.653 818,294.5C 823.332,298.479 826.665,303.812 828,310.5C 828.49,309.207 828.657,307.873 828.5,306.5C 829.612,308.599 830.279,310.933 830.5,313.5C 829.778,313.082 829.278,312.416 829,311.5C 833.9,329.542 839.233,347.542 845,365.5C 845.49,364.207 845.657,362.873 845.5,361.5C 847.277,364.505 848.277,367.838 848.5,371.5C 847.732,370.737 847.232,369.737 847,368.5C 846.95,372.698 847.95,376.698 850,380.5C 850.483,379.552 850.649,378.552 850.5,377.5C 851.434,378.568 851.768,379.901 851.5,381.5C 850.876,381.917 850.543,382.584 850.5,383.5C 853.701,394.603 857.201,405.603 861,416.5C 861.483,415.552 861.649,414.552 861.5,413.5C 863.279,417.595 864.612,421.928 865.5,426.5C 864.778,426.082 864.278,425.416 864,424.5C 868.85,442.889 874.184,461.222 880,479.5C 880.49,478.207 880.657,476.873 880.5,475.5C 881.612,477.599 882.279,479.933 882.5,482.5C 881.637,481.537 880.97,481.537 880.5,482.5C 884.251,491.836 886.584,501.502 887.5,511.5C 887.272,523.17 886.938,534.837 886.5,546.5C 884.578,579.44 883.412,612.107 883,644.5C 883.175,639.981 883.675,635.647 884.5,631.5C 884.56,643.693 883.894,655.693 882.5,667.5C 882.666,662.821 882.499,658.155 882,653.5C 881.877,659.777 881.044,665.944 879.5,672C 879.57,672.765 879.903,673.265 880.5,673.5C 880.672,674.492 880.338,675.158 879.5,675.5C 871.536,682.638 863.703,690.638 856,699.5C 854.188,702.28 852.021,704.78 849.5,707C 850.094,707.464 850.761,707.631 851.5,707.5C 850.833,708.833 849.833,709.833 848.5,710.5C 848.631,709.761 848.464,709.094 848,708.5C 841.167,716 834.333,723.5 827.5,731C 828.094,731.464 828.761,731.631 829.5,731.5C 828.833,732.5 828.167,733.5 827.5,734.5C 827.167,734.5 826.833,734.5 826.5,734.5C 826.225,732.158 825.392,732.158 824,734.5C 785.603,775.893 747.603,817.56 710,859.5C 699.718,869.904 689.552,880.404 679.5,891C 676.833,892.333 674.167,893.667 671.5,895C 672.094,895.464 672.761,895.631 673.5,895.5C 670.713,896.477 667.713,896.81 664.5,896.5C 646.979,896.276 629.312,896.276 611.5,896.5C 526.245,897.126 441.912,897.459 358.5,897.5C 354.564,897.023 350.897,896.023 347.5,894.5C 310.909,855.017 273.742,814.684 236,773.5C 235.536,774.094 235.369,774.761 235.5,775.5C 234.167,774.833 233.167,773.833 232.5,772.5C 233.239,772.631 233.906,772.464 234.5,772C 230.826,768.658 227.492,764.992 224.5,761C 223.563,760.308 222.897,760.475 222.5,761.5C 220.797,762.66 220.131,761.993 220.5,759.5C 221.239,759.631 221.906,759.464 222.5,759C 195.73,730.557 169.564,701.724 144,672.5C 142.511,661.285 141.678,650.285 141.5,639.5C 141.425,636.794 141.092,634.127 140.5,631.5C 139.558,590.912 137.891,549.912 135.5,508.5C 147.823,465.03 160.656,421.696 174,378.5C 174.667,377.167 174.667,375.833 174,374.5C 173.768,375.737 173.268,376.737 172.5,377.5C 172.41,374.848 173.076,372.515 174.5,370.5C 174.351,371.552 174.517,372.552 175,373.5C 182.341,350.145 189.674,326.812 197,303.5C 197.914,304.654 198.747,304.487 199.5,303C 198.044,302.577 197.544,301.744 198,300.5C 199.529,299.271 200.696,297.771 201.5,296C 217.051,287.059 232.718,278.393 248.5,270C 249.598,269.23 249.598,268.397 248.5,267.5C 249.167,267.5 249.5,267.167 249.5,266.5C 250.167,266.5 250.833,266.5 251.5,266.5C 251.56,267.043 251.893,267.376 252.5,267.5C 308.375,236.069 364.042,204.569 419.5,173C 418.906,172.536 418.239,172.369 417.5,172.5C 418.167,171.833 418.833,171.167 419.5,170.5C 420.167,170.5 420.833,170.5 421.5,170.5C 423.97,170.973 426.304,170.139 428.5,168C 427.906,167.536 427.239,167.369 426.5,167.5C 427.514,166.326 428.847,165.66 430.5,165.5C 429.537,166.363 429.537,167.03 430.5,167.5C 437.5,163.333 444.5,159.167 451.5,155C 450.906,154.536 450.239,154.369 449.5,154.5C 451.181,152.992 453.181,151.992 455.5,151.5C 456.721,152.465 458.054,152.298 459.5,151C 461.67,149.414 464.004,148.08 466.5,147C 465.906,146.536 465.239,146.369 464.5,146.5C 464.973,145.094 465.973,144.427 467.5,144.5C 467.56,145.043 467.893,145.376 468.5,145.5C 480.728,138.765 493.062,132.265 505.5,126C 509.167,125.667 512.833,125.333 516.5,125C 514.482,124.495 512.482,123.995 510.5,123.5 Z M 515.5,148.5 C 515.5,148.833 515.5,149.167 515.5,149.5C 516.167,149.5 516.833,149.5 517.5,149.5C 518.694,150.272 519.694,151.272 520.5,152.5C 529.326,156.41 537.659,161.077 545.5,166.5C 554.374,171.437 563.374,176.104 572.5,180.5C 573.29,181.401 574.29,182.068 575.5,182.5C 576.833,183.5 578.167,184.5 579.5,185.5C 586.996,188.745 593.996,192.745 600.5,197.5C 605.5,199.664 610.167,202.331 614.5,205.5C 617.992,206.41 620.992,208.076 623.5,210.5C 632.14,215.154 640.806,219.821 649.5,224.5C 650.514,225.674 651.847,226.34 653.5,226.5C 656.24,228.56 659.24,230.226 662.5,231.5C 662.833,232.167 663.167,232.833 663.5,233.5C 665.5,234.167 667.5,234.833 669.5,235.5C 677.333,239.916 685,244.582 692.5,249.5C 693.167,249.5 693.833,249.5 694.5,249.5C 694.167,250.167 693.833,250.833 693.5,251.5C 684.183,254.6 675.183,258.267 666.5,262.5C 665.209,262.263 664.209,262.596 663.5,263.5C 661.914,264.413 660.414,264.413 659,263.5C 657.1,265.863 654.6,267.196 651.5,267.5C 646.735,269.871 641.735,271.871 636.5,273.5C 623.195,279.416 609.195,285.083 594.5,290.5C 582.751,295.305 571.085,300.305 559.5,305.5C 557.447,305.402 555.78,306.069 554.5,307.5C 545.784,310.068 537.451,313.401 529.5,317.5C 527.447,317.402 525.78,318.069 524.5,319.5C 521.833,320.167 519.167,320.833 516.5,321.5C 514.149,323.203 511.482,323.703 508.5,323C 502.023,320.24 495.69,317.407 489.5,314.5C 487.447,314.598 485.78,313.931 484.5,312.5C 479.868,311.404 475.534,309.737 471.5,307.5C 472.738,307.19 472.738,306.69 471.5,306C 470.563,305.308 469.897,305.475 469.5,306.5C 467.447,306.598 465.78,305.931 464.5,304.5C 462.784,304.371 461.117,304.038 459.5,303.5C 459.5,303.167 459.5,302.833 459.5,302.5C 457.784,302.371 456.117,302.038 454.5,301.5C 450.395,299.243 446.061,297.576 441.5,296.5C 440.791,295.596 439.791,295.263 438.5,295.5C 424.312,288.543 409.645,282.543 394.5,277.5C 392.739,276.687 391.072,275.687 389.5,274.5C 384.844,272.84 380.177,271.174 375.5,269.5C 367.055,266.584 359.055,262.918 351.5,258.5C 351.44,259.043 351.107,259.376 350.5,259.5C 345.365,256.931 340.031,254.931 334.5,253.5C 332.739,252.687 331.072,251.687 329.5,250.5C 330.675,250.719 331.675,250.386 332.5,249.5C 332.376,248.893 332.043,248.56 331.5,248.5C 335.465,246.182 339.465,243.848 343.5,241.5C 344.5,241.167 345.167,240.5 345.5,239.5C 347.17,239.249 348.67,238.582 350,237.5C 350.333,238.167 350.667,238.833 351,239.5C 351.236,237.881 352.069,236.881 353.5,236.5C 353.435,236.938 353.601,237.272 354,237.5C 356.665,236.526 356.831,235.859 354.5,235.5C 363.752,229.768 372.752,224.435 381.5,219.5C 383.027,219.573 384.027,218.906 384.5,217.5C 386.954,216.773 389.287,215.773 391.5,214.5C 394.131,212.847 396.797,211.181 399.5,209.5C 400.71,209.068 401.71,208.401 402.5,207.5C 408.922,204.289 414.922,201.289 420.5,198.5C 429.5,192.664 438.833,187.331 448.5,182.5C 457.998,176.916 467.665,171.583 477.5,166.5C 487.94,160.108 498.607,153.941 509.5,148C 511.545,147.51 513.545,147.677 515.5,148.5 Z M 320.5,270.5 C 324.116,271.314 327.449,272.648 330.5,274.5C 335.415,276.36 340.415,278.027 345.5,279.5C 348.318,281.072 351.318,282.406 354.5,283.5C 360.656,285.989 366.656,288.656 372.5,291.5C 390.179,298.17 407.845,304.837 425.5,311.5C 427.181,313.008 429.181,314.008 431.5,314.5C 437.424,316.812 443.424,319.146 449.5,321.5C 453.261,323.538 457.261,325.204 461.5,326.5C 465.605,328.757 469.939,330.424 474.5,331.5C 474.842,332.338 475.508,332.672 476.5,332.5C 480.522,334.734 484.856,336.401 489.5,337.5C 491.833,338.833 494.167,340.167 496.5,341.5C 498.044,341.703 499.378,342.37 500.5,343.5C 501.318,346.746 501.651,349.746 501.5,352.5C 501.349,388.474 501.349,424.308 501.5,460C 501.333,466.167 501.167,472.333 501,478.5C 500.667,477.167 500.333,475.833 500,474.5C 501.284,486.73 501.784,499.063 501.5,511.5C 499.77,512.026 498.436,513.026 497.5,514.5C 492.657,516.418 488.323,519.084 484.5,522.5C 483.833,522.5 483.167,522.5 482.5,522.5C 482.158,523.338 481.492,523.672 480.5,523.5C 480.5,523.833 480.5,524.167 480.5,524.5C 476.299,527.1 471.966,529.434 467.5,531.5C 464.01,534.411 460.344,537.078 456.5,539.5C 455.833,539.5 455.167,539.5 454.5,539.5C 454.167,540.167 453.833,540.833 453.5,541.5C 448.485,544.004 443.819,547.004 439.5,550.5C 438.508,550.328 437.842,550.662 437.5,551.5C 436.391,551.557 435.391,551.89 434.5,552.5C 427.993,556.586 421.66,560.92 415.5,565.5C 413.847,565.66 412.514,566.326 411.5,567.5C 404.469,572.349 397.135,576.682 389.5,580.5C 386.106,583.221 382.439,585.554 378.5,587.5C 368.846,594.33 358.846,600.663 348.5,606.5C 348.027,607.906 347.027,608.573 345.5,608.5C 340.125,612.527 334.459,616.193 328.5,619.5C 326.206,621.653 323.54,623.32 320.5,624.5C 306.662,633.251 292.995,642.251 279.5,651.5C 278.5,651.167 277.833,650.5 277.5,649.5C 277.167,649.5 276.833,649.5 276.5,649.5C 273.925,646.681 271.592,643.681 269.5,640.5C 268.094,640.027 267.427,639.027 267.5,637.5C 268.547,636.922 268.38,636.256 267,635.5C 266.601,635.728 266.435,636.062 266.5,636.5C 260.5,629.5 254.5,622.5 248.5,615.5C 247.974,613.77 246.974,612.436 245.5,611.5C 242.833,607.833 240.167,604.167 237.5,600.5C 232.416,595.752 228.083,590.419 224.5,584.5C 221.599,581.688 218.932,578.688 216.5,575.5C 215.833,574.167 214.833,573.167 213.5,572.5C 200.88,555.879 187.88,539.545 174.5,523.5C 170.352,518.571 166.185,513.571 162,508.5C 160.097,506.559 159.264,504.226 159.5,501.5C 160.967,497.099 162.634,492.766 164.5,488.5C 164.721,485.933 165.388,483.599 166.5,481.5C 166.629,479.784 166.962,478.117 167.5,476.5C 170.993,463.553 174.993,450.887 179.5,438.5C 179.5,437.167 179.5,435.833 179.5,434.5C 180.404,433.791 180.737,432.791 180.5,431.5C 182.32,427.218 183.986,422.885 185.5,418.5C 185.5,417.5 185.5,416.5 185.5,415.5C 186.87,412.381 187.87,409.048 188.5,405.5C 188.833,405.5 189.167,405.5 189.5,405.5C 189.959,402.123 190.626,398.789 191.5,395.5C 192.434,394.432 192.768,393.099 192.5,391.5C 196.988,378.548 201.321,365.548 205.5,352.5C 208.395,337.816 213.061,323.816 219.5,310.5C 220.791,310.737 221.791,310.404 222.5,309.5C 229.167,305.833 235.833,302.167 242.5,298.5C 243.71,298.068 244.71,297.401 245.5,296.5C 249.836,294.668 253.836,292.335 257.5,289.5C 258.833,289.167 260.167,288.833 261.5,288.5C 261.5,288.167 261.5,287.833 261.5,287.5C 263.167,286.833 264.833,286.167 266.5,285.5C 279.307,277.927 292.307,270.593 305.5,263.5C 307.815,264.234 309.648,265.568 311,267.5C 313.19,266.416 314.856,267.083 316,269.5C 317.749,268.447 319.249,268.78 320.5,270.5 Z M 726.5,268.5 C 727.492,268.328 728.158,268.662 728.5,269.5C 736.009,273.755 743.676,277.755 751.5,281.5C 751.351,282.552 751.517,283.552 752,284.5C 753.414,283.587 754.914,283.587 756.5,284.5C 758.181,286.008 760.181,287.008 762.5,287.5C 766.474,291.16 771.141,293.827 776.5,295.5C 778.167,296.833 779.833,298.167 781.5,299.5C 783.027,299.427 784.027,300.094 784.5,301.5C 783.262,301.81 783.262,302.31 784.5,303C 785.437,303.692 786.103,303.525 786.5,302.5C 791.09,304.439 795.423,306.773 799.5,309.5C 800.492,309.328 801.158,309.662 801.5,310.5C 803.773,310.957 805.106,312.29 805.5,314.5C 808.606,321.488 810.939,328.821 812.5,336.5C 814.856,340.786 816.189,345.119 816.5,349.5C 819.728,358.113 822.728,367.78 825.5,378.5C 827.37,381.758 828.37,385.091 828.5,388.5C 829.5,390.5 830.5,392.5 831.5,394.5C 831.595,396.786 832.262,398.786 833.5,400.5C 833.443,401.609 833.11,402.609 832.5,403.5C 833.966,404.347 834.8,405.68 835,407.5C 837.564,415.787 839.731,423.787 841.5,431.5C 842.404,432.209 842.737,433.209 842.5,434.5C 843.738,436.214 844.405,438.214 844.5,440.5C 848.01,451.537 851.677,462.537 855.5,473.5C 855.595,475.786 856.262,477.786 857.5,479.5C 857.795,483.513 858.795,487.346 860.5,491C 859.67,492.465 859.504,493.965 860,495.5C 860.333,494.833 860.667,494.167 861,493.5C 861.566,495.723 862.4,497.723 863.5,499.5C 863.663,501.857 863.497,504.19 863,506.5C 861.519,507.471 860.685,508.804 860.5,510.5C 857.833,513.167 855.167,515.833 852.5,518.5C 852.573,520.027 851.906,521.027 850.5,521.5C 848.588,523.657 846.921,525.991 845.5,528.5C 844.833,528.833 844.167,529.167 843.5,529.5C 843.5,530.167 843.5,530.833 843.5,531.5C 839.833,535.5 836.167,539.5 832.5,543.5C 831.752,545.332 830.752,546.999 829.5,548.5C 828.094,548.973 827.427,549.973 827.5,551.5C 826.5,552.167 825.5,552.833 824.5,553.5C 823.876,555.754 822.543,557.421 820.5,558.5C 817.167,563.167 813.833,567.833 810.5,572.5C 807.167,576.167 803.833,579.833 800.5,583.5C 799.89,584.391 799.557,585.391 799.5,586.5C 794.265,591.979 789.265,597.646 784.5,603.5C 783.248,605.001 782.248,606.668 781.5,608.5C 780.5,609.167 779.5,609.833 778.5,610.5C 778.5,611.167 778.5,611.833 778.5,612.5C 772.5,619.167 766.5,625.833 760.5,632.5C 759.92,634.749 758.587,636.415 756.5,637.5C 753.524,641.482 750.524,645.482 747.5,649.5C 746.042,650.782 744.708,650.782 743.5,649.5C 737.973,647.462 733.473,644.128 730,639.5C 729.667,640.167 729.333,640.833 729,641.5C 718.362,634.435 707.528,627.768 696.5,621.5C 695.833,620.5 695.167,619.5 694.5,618.5C 694.167,618.5 693.833,618.5 693.5,618.5C 687.816,615.139 682.149,611.806 676.5,608.5C 675.101,607.11 673.434,606.11 671.5,605.5C 666.833,602.167 662.167,598.833 657.5,595.5C 644.488,587.997 631.821,579.997 619.5,571.5C 618.508,571.672 617.842,571.338 617.5,570.5C 612.485,567.996 607.819,564.996 603.5,561.5C 599.827,560 596.494,558 593.5,555.5C 573.813,543.468 554.146,531.468 534.5,519.5C 533.101,518.11 531.434,517.11 529.5,516.5C 527.833,515.167 526.167,513.833 524.5,512.5C 523.883,512.389 523.383,512.056 523,511.5C 522.5,455.501 522.333,399.501 522.5,343.5C 522.842,342.662 523.508,342.328 524.5,342.5C 524.5,342.167 524.5,341.833 524.5,341.5C 538.422,335.97 552.422,330.637 566.5,325.5C 566.5,325.167 566.5,324.833 566.5,324.5C 567.833,324.167 569.167,323.833 570.5,323.5C 570.5,323.167 570.5,322.833 570.5,322.5C 575.833,320.833 581.167,319.167 586.5,317.5C 599.167,311.833 611.833,306.167 624.5,300.5C 629.132,299.404 633.466,297.737 637.5,295.5C 639.117,294.962 640.784,294.629 642.5,294.5C 642.5,294.167 642.5,293.833 642.5,293.5C 643.5,293.5 644.5,293.5 645.5,293.5C 654.167,289.5 662.833,285.5 671.5,281.5C 675.934,280.447 680.268,279.114 684.5,277.5C 695.516,272.334 706.849,267.667 718.5,263.5C 721.568,264.691 724.235,266.358 726.5,268.5 Z M 510.5,530.5 C 511.167,530.5 511.833,530.5 512.5,530.5C 513.167,530.5 513.5,530.833 513.5,531.5C 517.439,533.446 521.106,535.779 524.5,538.5C 528.3,540.234 531.966,542.234 535.5,544.5C 536.514,545.674 537.847,546.34 539.5,546.5C 549.772,552.774 559.772,559.441 569.5,566.5C 572.004,567.584 574.337,568.917 576.5,570.5C 576.833,570.5 577.167,570.5 577.5,570.5C 578.514,571.674 579.847,572.34 581.5,572.5C 582.306,573.728 583.306,574.728 584.5,575.5C 593.5,580.833 602.5,586.167 611.5,591.5C 615.205,594.526 619.205,597.192 623.5,599.5C 624.167,599.5 624.5,599.833 624.5,600.5C 627.602,602.037 630.268,604.037 632.5,606.5C 632.833,607.833 633.167,607.833 633.5,606.5C 636.409,607.446 638.742,609.113 640.5,611.5C 640.833,612.833 641.167,612.833 641.5,611.5C 647.178,614.336 652.511,617.669 657.5,621.5C 665.459,626.14 673.126,631.14 680.5,636.5C 684.173,638 687.506,640 690.5,642.5C 703.972,650.405 717.306,658.571 730.5,667C 731.252,667.671 731.586,668.504 731.5,669.5C 730.453,670.078 730.62,670.744 732,671.5C 732.383,670.944 732.883,670.611 733.5,670.5C 731.167,677.833 728.833,685.167 726.5,692.5C 725.596,693.209 725.263,694.209 725.5,695.5C 723.621,695.393 723.288,695.893 724.5,697C 720.665,707.754 716.665,717.92 712.5,727.5C 711.962,729.117 711.629,730.784 711.5,732.5C 710.262,734.214 709.595,736.214 709.5,738.5C 706.733,744.615 704.233,750.948 702,757.5C 701.623,758.942 700.79,759.942 699.5,760.5C 699.611,761.117 699.944,761.617 700.5,762C 693.11,780.636 686.11,799.802 679.5,819.5C 678.463,820.93 677.796,822.597 677.5,824.5C 674.676,832.316 671.676,839.983 668.5,847.5C 666.826,852.844 665.159,858.177 663.5,863.5C 662.596,864.209 662.263,865.209 662.5,866.5C 661.59,868.019 660.757,869.685 660,871.5C 658.855,871.619 657.688,871.952 656.5,872.5C 559.646,871.74 463.312,871.74 367.5,872.5C 366.01,870.624 364.343,869.957 362.5,870.5C 354.847,847.565 346.514,824.565 337.5,801.5C 337.167,799.5 336.833,797.5 336.5,795.5C 335.833,794.833 335.167,794.167 334.5,793.5C 333.404,788.868 331.737,784.534 329.5,780.5C 329.737,779.209 329.404,778.209 328.5,777.5C 327.833,774.833 327.167,772.167 326.5,769.5C 324.5,765.167 322.5,760.833 320.5,756.5C 320.768,754.901 320.434,753.568 319.5,752.5C 319.204,750.597 318.537,748.93 317.5,747.5C 316.784,744.402 315.784,741.402 314.5,738.5C 314.34,736.847 313.674,735.514 312.5,734.5C 307.459,719.02 302.125,704.02 296.5,689.5C 296.624,688.893 296.957,688.56 297.5,688.5C 293.838,683.492 291.504,677.826 290.5,671.5C 291.833,670.833 291.833,670.167 290.5,669.5C 290.833,668.833 291.167,668.167 291.5,667.5C 293.284,667.107 294.95,666.441 296.5,665.5C 299.494,663 302.827,661 306.5,659.5C 310.119,656.35 314.119,653.684 318.5,651.5C 334.229,641.112 350.229,631.112 366.5,621.5C 370.819,618.004 375.485,615.004 380.5,612.5C 391.653,604.419 403.32,597.086 415.5,590.5C 416.29,589.599 417.29,588.932 418.5,588.5C 425.963,582.716 433.963,577.716 442.5,573.5C 444.5,571.833 446.5,570.167 448.5,568.5C 449.492,568.672 450.158,568.338 450.5,567.5C 455.543,564.985 460.21,561.985 464.5,558.5C 466.027,558.573 467.027,557.906 467.5,556.5C 472.5,553.833 477.5,551.167 482.5,548.5C 482.833,547.5 483.5,546.833 484.5,546.5C 485.71,546.068 486.71,545.401 487.5,544.5C 493.697,540.569 500.031,536.902 506.5,533.5C 507.795,532.512 509.128,531.512 510.5,530.5 Z M 863.5,576.5 C 863.285,578.523 863.285,580.856 863.5,583.5C 863.133,596.204 862.133,608.87 860.5,621.5C 861.479,624.625 861.813,627.958 861.5,631.5C 860.642,639.132 860.309,646.799 860.5,654.5C 859.523,657.287 859.19,660.287 859.5,663.5C 855.805,667.526 852.138,671.526 848.5,675.5C 846.833,677.833 844.833,679.833 842.5,681.5C 842.167,682.5 841.5,683.167 840.5,683.5C 835.843,689.489 830.843,695.156 825.5,700.5C 812.103,715.859 798.77,730.526 785.5,744.5C 784.833,745.5 784.167,746.5 783.5,747.5C 781.833,748.5 780.5,749.833 779.5,751.5C 773.167,758.167 766.833,764.833 760.5,771.5C 756.622,776.589 752.289,781.255 747.5,785.5C 746.2,788.432 744.2,790.766 741.5,792.5C 741.167,793.167 740.833,793.833 740.5,794.5C 739.094,794.973 738.427,795.973 738.5,797.5C 736.125,799.224 733.792,800.89 731.5,802.5C 728.977,807.504 725.477,811.837 721,815.5C 720.667,815.167 720.333,814.833 720,814.5C 718.802,818.24 716.635,821.24 713.5,823.5C 712.833,824.5 712.167,825.5 711.5,826.5C 709.738,827.262 708.738,828.596 708.5,830.5C 706.5,831.833 704.833,833.5 703.5,835.5C 702.167,836.167 701.167,837.167 700.5,838.5C 697.349,840.73 694.682,843.397 692.5,846.5C 695.216,837.339 698.216,828.672 701.5,820.5C 702.801,817.573 703.801,814.573 704.5,811.5C 705.345,810.329 706.011,808.995 706.5,807.5C 709.461,798.936 712.794,790.603 716.5,782.5C 718.733,774.126 721.733,766.126 725.5,758.5C 726.393,752.299 728.727,746.799 732.5,742C 731.748,741.329 731.414,740.496 731.5,739.5C 732.537,738.07 733.204,736.403 733.5,734.5C 735.462,728.929 737.795,723.596 740.5,718.5C 741.2,714.763 742.2,711.096 743.5,707.5C 744.537,706.07 745.204,704.403 745.5,702.5C 748.563,694.977 751.23,687.31 753.5,679.5C 754.931,678.22 755.598,676.553 755.5,674.5C 756.534,673.313 757.867,672.48 759.5,672C 759.849,668.409 761.849,665.576 765.5,663.5C 766.412,661.405 767.579,659.405 769,657.5C 789.408,633.268 809.575,608.935 829.5,584.5C 837.59,573.321 845.924,562.321 854.5,551.5C 855.833,550.833 856.833,549.833 857.5,548.5C 859.196,546.475 860.863,544.475 862.5,542.5C 862.833,543.167 863.167,543.833 863.5,544.5C 864.833,543.5 864.833,542.5 863.5,541.5C 865.023,537.771 865.689,538.271 865.5,543C 864.628,554.435 863.961,565.602 863.5,576.5 Z M 171.5,556.5 C 171.062,556.435 170.728,556.601 170.5,557C 171.333,557.833 172.167,558.667 173,559.5C 173.399,559.272 173.565,558.938 173.5,558.5C 175.633,560.091 177.299,562.091 178.5,564.5C 179.338,564.842 179.672,565.508 179.5,566.5C 184.927,571.527 189.261,576.861 192.5,582.5C 196.513,586.515 200.179,590.848 203.5,595.5C 206.042,598.326 208.708,601.659 211.5,605.5C 213.86,606.865 215.527,608.865 216.5,611.5C 216.833,611.5 217.167,611.5 217.5,611.5C 218.787,614.453 220.787,616.786 223.5,618.5C 223.557,619.609 223.89,620.609 224.5,621.5C 229.883,626.614 234.55,632.281 238.5,638.5C 241.386,639.807 242.552,641.807 242,644.5C 243.566,643.939 244.899,644.606 246,646.5C 247.75,648.734 249.25,651.068 250.5,653.5C 259.763,662.378 266.763,672.712 271.5,684.5C 271.966,686.201 271.966,687.701 271.5,689C 272.094,689.464 272.761,689.631 273.5,689.5C 274.899,695.342 276.566,700.675 278.5,705.5C 280.226,709.953 282.226,714.286 284.5,718.5C 284.586,719.496 284.252,720.329 283.5,721C 284.094,721.464 284.761,721.631 285.5,721.5C 285.5,722.5 285.5,723.5 285.5,724.5C 289.633,734.588 293.3,744.588 296.5,754.5C 295.903,754.735 295.57,755.235 295.5,756C 296.078,757.811 296.578,759.645 297,761.5C 297.49,760.207 297.657,758.873 297.5,757.5C 300.345,762.191 302.679,768.191 304.5,775.5C 307.833,783.833 311.167,792.167 314.5,800.5C 314.796,802.403 315.463,804.07 316.5,805.5C 316.5,806.5 316.5,807.5 316.5,808.5C 318.4,811.518 319.733,814.851 320.5,818.5C 322.02,820.89 323.02,823.557 323.5,826.5C 324.404,827.209 324.737,828.209 324.5,829.5C 325.98,832.388 327.313,835.388 328.5,838.5C 328.932,839.71 329.599,840.71 330.5,841.5C 330.629,843.216 330.962,844.883 331.5,846.5C 329.937,845.055 328.604,843.389 327.5,841.5C 328.547,840.922 328.38,840.256 327,839.5C 326.601,839.728 326.435,840.062 326.5,840.5C 324.5,839.167 322.833,837.5 321.5,835.5C 315.635,829.388 309.968,823.054 304.5,816.5C 296.5,808.167 288.5,799.833 280.5,791.5C 279.208,788.599 277.208,786.266 274.5,784.5C 272.588,782.343 270.921,780.009 269.5,777.5C 270.547,776.922 270.38,776.256 269,775.5C 268.601,775.728 268.435,776.062 268.5,776.5C 260.465,768.467 252.798,760.133 245.5,751.5C 244.167,750.833 243.167,749.833 242.5,748.5C 236.491,742.49 230.825,736.157 225.5,729.5C 219.472,724.406 214.139,718.739 209.5,712.5C 204.954,707.592 199.954,702.259 194.5,696.5C 192.457,695.421 191.124,693.754 190.5,691.5C 184.371,685.882 178.704,679.882 173.5,673.5C 170.334,671.166 167.667,668.333 165.5,665C 167.932,663.913 167.598,663.413 164.5,663.5C 164.414,659.143 164.08,654.81 163.5,650.5C 163.819,645.637 163.486,640.97 162.5,636.5C 162.808,622.181 162.142,608.181 160.5,594.5C 160.791,588.077 160.458,581.744 159.5,575.5C 159.938,575.565 160.272,575.399 160.5,575C 159.849,567.734 159.182,560.568 158.5,553.5C 158.334,549.154 158.501,544.821 159,540.5C 163.787,545.441 167.954,550.775 171.5,556.5 Z"/></g>
<g><path style="opacity:0.008" fill="#9ed8f7" d="M 487.5,130.5 C 488.833,131.167 488.833,131.167 487.5,130.5 Z"/></g>
<g><path style="opacity:0.947" fill="#a4e0fd" d="M 510.5,123.5 C 512.482,123.995 514.482,124.495 516.5,125C 512.833,125.333 509.167,125.667 505.5,126C 493.062,132.265 480.728,138.765 468.5,145.5C 467.893,145.376 467.56,145.043 467.5,144.5C 470.009,143.079 472.343,141.412 474.5,139.5C 476.819,139.008 478.819,138.008 480.5,136.5C 488.289,132.104 496.289,127.937 504.5,124C 506.473,123.505 508.473,123.338 510.5,123.5 Z"/></g>
<g><path style="opacity:0.004" fill="#9ed8f6" d="M 539.5,133.5 C 540.833,134.167 540.833,134.167 539.5,133.5 Z"/></g>
<g><path style="opacity:0.004" fill="#9ed8f6" d="M 480.5,136.5 C 479.833,135.167 479.833,135.167 480.5,136.5 Z"/></g>
<g><path style="opacity:0.004" fill="#9ed8f6" d="M 474.5,139.5 C 473.833,138.167 473.833,138.167 474.5,139.5 Z"/></g>
<g><path style="opacity:0.004" fill="#9ed8f6" d="M 561.5,144.5 C 562.833,145.167 562.833,145.167 561.5,144.5 Z"/></g>
<g><path style="opacity:0.945" fill="#a6e3fd" d="M 464.5,146.5 C 465.239,146.369 465.906,146.536 466.5,147C 464.004,148.08 461.67,149.414 459.5,151C 458.054,152.298 456.721,152.465 455.5,151.5C 458.008,149.076 461.008,147.41 464.5,146.5 Z"/></g>
<g><path style="opacity:0.982" fill="#a4e0fd" d="M 572.5,180.5 C 563.374,176.104 554.374,171.437 545.5,166.5C 537.659,161.077 529.326,156.41 520.5,152.5C 519.694,151.272 518.694,150.272 517.5,149.5C 518.251,148.427 519.251,148.26 520.5,149C 538.5,159.333 556.5,169.667 574.5,180C 573.906,180.464 573.239,180.631 572.5,180.5 Z"/></g>
<g><path style="opacity:0.004" fill="#9ed8f6" d="M 573.5,152.5 C 574.833,153.167 574.833,153.167 573.5,152.5 Z"/></g>
<g><path style="opacity:0.008" fill="#9ed8f7" d="M 575.5,153.5 C 576.833,154.167 576.833,154.167 575.5,153.5 Z"/></g>
<g><path style="opacity:0.012" fill="#9ed7f6" d="M 442.5,157.5 C 441.833,156.167 441.833,156.167 442.5,157.5 Z"/></g>
<g><path style="opacity:0.008" fill="#9ed8f7" d="M 437.5,160.5 C 436.833,159.167 436.833,159.167 437.5,160.5 Z"/></g>
<g><path style="opacity:0.982" fill="#a4e1fd" d="M 449.5,154.5 C 450.239,154.369 450.906,154.536 451.5,155C 444.5,159.167 437.5,163.333 430.5,167.5C 429.537,167.03 429.537,166.363 430.5,165.5C 431.167,164.833 431.833,164.167 432.5,163.5C 434.434,162.89 436.101,161.89 437.5,160.5C 439.434,159.89 441.101,158.89 442.5,157.5C 444.98,156.758 447.313,155.758 449.5,154.5 Z"/></g>
<g><path style="opacity:0.004" fill="#9ed8f6" d="M 587.5,160.5 C 588.833,161.167 588.833,161.167 587.5,160.5 Z"/></g>
<g><path style="opacity:0.004" fill="#9ed8f6" d="M 432.5,163.5 C 431.833,162.167 431.833,162.167 432.5,163.5 Z"/></g>
<g><path style="opacity:0.004" fill="#9ed8f6" d="M 596.5,163.5 C 597.833,164.167 597.833,164.167 596.5,163.5 Z"/></g>
<g><path style="opacity:0.006" fill="#9ed8f7" d="M 423.5,168.5 C 422.761,168.631 422.094,168.464 421.5,168C 422.437,167.308 423.103,167.475 423.5,168.5 Z"/></g>
<g><path style="opacity:0.965" fill="#a4e1fd" d="M 426.5,167.5 C 427.239,167.369 427.906,167.536 428.5,168C 426.304,170.139 423.97,170.973 421.5,170.5C 422.167,169.833 422.833,169.167 423.5,168.5C 424.391,167.89 425.391,167.557 426.5,167.5 Z"/></g>
<g><path style="opacity:0.004" fill="#9ed8f6" d="M 419.5,170.5 C 418.833,169.167 418.833,169.167 419.5,170.5 Z"/></g>
<g><path style="opacity:0.004" fill="#9ed8f6" d="M 603.5,169.5 C 604.833,170.167 604.833,170.167 603.5,169.5 Z"/></g>
<g><path style="opacity:0.004" fill="#9ed8f6" d="M 606.5,169.5 C 607.833,170.167 607.833,170.167 606.5,169.5 Z"/></g>
<g><path style="opacity:0.004" fill="#9ed8f6" d="M 405.5,175.5 C 406.833,176.167 406.833,176.167 405.5,175.5 Z"/></g>
<g><path style="opacity:0.008" fill="#9ed8f7" d="M 409.5,176.5 C 408.833,175.167 408.833,175.167 409.5,176.5 Z"/></g>
<g><path style="opacity:0.012" fill="#9ed7f6" d="M 628.5,183.5 C 629.833,184.167 629.833,184.167 628.5,183.5 Z"/></g>
<g><path style="opacity:0.004" fill="#9ed8f6" d="M 630.5,183.5 C 631.833,184.167 631.833,184.167 630.5,183.5 Z"/></g>
<g><path style="opacity:0.004" fill="#9ed8f6" d="M 389.5,185.5 C 389.897,184.475 390.563,184.308 391.5,185C 390.906,185.464 390.239,185.631 389.5,185.5 Z"/></g>
<g><path style="opacity:0.012" fill="#9ed7f6" d="M 634.5,185.5 C 635.833,186.167 635.833,186.167 634.5,185.5 Z"/></g>
<g><path style="opacity:0.008" fill="#9ed8f7" d="M 634.5,186.5 C 633.833,187.167 633.833,187.167 634.5,186.5 Z"/></g>
<g><path style="opacity:0.004" fill="#9ed8f6" d="M 377.5,191.5 C 378.833,192.167 378.833,192.167 377.5,191.5 Z"/></g>
<g><path style="opacity:0.004" fill="#9ed8f6" d="M 379.5,191.5 C 380.833,192.167 380.833,192.167 379.5,191.5 Z"/></g>
<g><path style="opacity:0.004" fill="#9ed8f6" d="M 653.5,191.5 C 654.833,192.167 654.833,192.167 653.5,191.5 Z"/></g>
<g><path style="opacity:0.016" fill="#9ed8f7" d="M 643.5,192.5 C 644.833,193.167 644.833,193.167 643.5,192.5 Z"/></g>
<g><path style="opacity:0.004" fill="#9ed8f6" d="M 377.5,194.5 C 376.833,193.167 376.833,193.167 377.5,194.5 Z"/></g>
<g><path style="opacity:0.004" fill="#9ed8f6" d="M 375.5,195.5 C 374.833,194.167 374.833,194.167 375.5,195.5 Z"/></g>
<g><path style="opacity:0.99" fill="#a4e0fd" d="M 649.5,224.5 C 640.806,219.821 632.14,215.154 623.5,210.5C 620.992,208.076 617.992,206.41 614.5,205.5C 610.167,202.331 605.5,199.664 600.5,197.5C 593.996,192.745 586.996,188.745 579.5,185.5C 578.167,184.5 576.833,183.5 575.5,182.5C 575.369,181.761 575.536,181.094 576,180.5C 601.225,194.864 626.392,209.364 651.5,224C 650.906,224.464 650.239,224.631 649.5,224.5 Z"/></g>
<g><path style="opacity:0.995" fill="#a3dffc" d="M 515.5,148.5 C 513.545,147.677 511.545,147.51 509.5,148C 498.607,153.941 487.94,160.108 477.5,166.5C 467.665,171.583 457.998,176.916 448.5,182.5C 438.833,187.331 429.5,192.664 420.5,198.5C 414.922,201.289 408.922,204.289 402.5,207.5C 401.668,206.671 402.001,205.838 403.5,205C 439.798,184.891 475.632,164.725 511,144.5C 513.118,145.283 514.618,146.616 515.5,148.5 Z"/></g>
<g><path style="opacity:0.008" fill="#9ed8f7" d="M 662.5,200.5 C 663.833,201.167 663.833,201.167 662.5,200.5 Z"/></g>
<g><path style="opacity:0.004" fill="#9ed8f6" d="M 359.5,202.5 C 360.833,203.167 360.833,203.167 359.5,202.5 Z"/></g>
<g><path style="opacity:0.929" fill="#a4e1fd" d="M 417.5,172.5 C 418.239,172.369 418.906,172.536 419.5,173C 364.042,204.569 308.375,236.069 252.5,267.5C 251.893,267.376 251.56,267.043 251.5,266.5C 256.833,263.167 262.167,259.833 267.5,256.5C 269.674,256.25 271.341,255.25 272.5,253.5C 275.331,252.921 277.664,251.588 279.5,249.5C 288.76,245.399 297.093,240.732 304.5,235.5C 305.492,235.672 306.158,235.338 306.5,234.5C 329.994,222.256 352.994,209.256 375.5,195.5C 376.492,195.672 377.158,195.338 377.5,194.5C 388.498,189.003 399.165,183.003 409.5,176.5C 412.14,175.18 414.807,173.847 417.5,172.5 Z"/></g>
<g><path style="opacity:0.987" fill="#a4e1fd" d="M 399.5,209.5 C 396.797,211.181 394.131,212.847 391.5,214.5C 389.287,215.773 386.954,216.773 384.5,217.5C 383.262,217.19 383.262,216.69 384.5,216C 389.416,213.293 394.249,210.459 399,207.5C 399.464,208.094 399.631,208.761 399.5,209.5 Z"/></g>
<g><path style="opacity:0.004" fill="#9ed8f6" d="M 327.5,215.5 C 328.833,216.167 328.833,216.167 327.5,215.5 Z"/></g>
<g><path style="opacity:0.016" fill="#9ed8f7" d="M 336.5,215.5 C 337.833,216.167 337.833,216.167 336.5,215.5 Z"/></g>
<g><path style="opacity:0.983" fill="#a4e0fc" d="M 521.5,125.5 C 527.527,128.547 533.527,131.547 539.5,134.5C 554.874,143.671 570.874,152.671 587.5,161.5C 592.502,165.003 597.835,168.003 603.5,170.5C 613.002,176.992 623.002,182.658 633.5,187.5C 636.466,189.988 639.799,191.988 643.5,193.5C 666.862,206.714 690.529,220.381 714.5,234.5C 715.463,235.363 715.463,236.03 714.5,236.5C 649.476,199.478 584.142,162.645 518.5,126C 519.448,125.517 520.448,125.351 521.5,125.5 Z"/></g>
<g><path style="opacity:0.008" fill="#9ed8f7" d="M 687.5,216.5 C 686.833,215.167 686.833,215.167 687.5,216.5 Z"/></g>
<g><path style="opacity:0.027" fill="#9ed8f7" d="M 687.5,216.5 C 688.833,217.167 688.833,217.167 687.5,216.5 Z"/></g>
<g><path style="opacity:0.004" fill="#9ed8f6" d="M 692.5,216.5 C 693.833,217.167 693.833,217.167 692.5,216.5 Z"/></g>
<g><path style="opacity:0.012" fill="#9ed7f6" d="M 694.5,220.5 C 695.833,221.167 695.833,221.167 694.5,220.5 Z"/></g>
<g><path style="opacity:0.008" fill="#9ed8f7" d="M 322.5,223.5 C 323.833,224.167 323.833,224.167 322.5,223.5 Z"/></g>
<g><path style="opacity:0.986" fill="#a3dffc" d="M 381.5,219.5 C 372.752,224.435 363.752,229.768 354.5,235.5C 353.833,235.5 353.5,235.833 353.5,236.5C 352.069,236.881 351.236,237.881 351,239.5C 350.667,238.833 350.333,238.167 350,237.5C 348.67,238.582 347.17,239.249 345.5,239.5C 345.369,238.624 345.702,237.957 346.5,237.5C 358.297,231.1 369.964,224.433 381.5,217.5C 382.463,217.97 382.463,218.637 381.5,219.5 Z"/></g>
<g><path style="opacity:0.004" fill="#9ed8f6" d="M 701.5,224.5 C 702.833,225.167 702.833,225.167 701.5,224.5 Z"/></g>
<g><path style="opacity:0.004" fill="#9ed8f6" d="M 317.5,225.5 C 318.833,226.167 318.833,226.167 317.5,225.5 Z"/></g>
<g><path style="opacity:0.965" fill="#a6e2fd" d="M 662.5,231.5 C 659.24,230.226 656.24,228.56 653.5,226.5C 652.537,225.637 652.537,224.97 653.5,224.5C 657.297,226.467 660.964,228.634 664.5,231C 663.906,231.464 663.239,231.631 662.5,231.5 Z"/></g>
<g><path style="opacity:0.004" fill="#9ed8f6" d="M 306.5,231.5 C 307.833,232.167 307.833,232.167 306.5,231.5 Z"/></g>
<g><path style="opacity:0.008" fill="#9ed8f7" d="M 306.5,234.5 C 305.833,233.167 305.833,233.167 306.5,234.5 Z"/></g>
<g><path style="opacity:0.004" fill="#9ed8f6" d="M 304.5,235.5 C 303.833,234.167 303.833,234.167 304.5,235.5 Z"/></g>
<g><path style="opacity:0.008" fill="#9ed8f7" d="M 718.5,234.5 C 719.833,235.167 719.833,235.167 718.5,234.5 Z"/></g>
<g><path style="opacity:0.004" fill="#9ed8f6" d="M 297.5,237.5 C 298.833,238.167 298.833,238.167 297.5,237.5 Z"/></g>
<g><path style="opacity:0.545" fill="#a4e0fd" d="M 694.5,249.5 C 693.833,249.5 693.167,249.5 692.5,249.5C 685,244.582 677.333,239.916 669.5,235.5C 668.942,234.21 667.942,233.377 666.5,233C 667.5,232.333 668.5,232.333 669.5,233C 677.398,238.477 685.732,243.311 694.5,247.5C 695.773,248.257 695.773,248.923 694.5,249.5 Z"/></g>
<g><path style="opacity:0.996" fill="#a5e1fd" d="M 718.5,236.5 C 725.671,240.251 732.671,244.251 739.5,248.5C 740.463,249.363 740.463,250.03 739.5,250.5C 732.329,246.08 724.996,241.914 717.5,238C 716.288,236.893 716.621,236.393 718.5,236.5 Z"/></g>
<g><path style="opacity:0.994" fill="#a3dffc" d="M 343.5,241.5 C 339.465,243.848 335.465,246.182 331.5,248.5C 330.508,248.328 329.842,248.662 329.5,249.5C 328.448,249.649 327.448,249.483 326.5,249C 331.755,245.454 337.255,242.288 343,239.5C 343.464,240.094 343.631,240.761 343.5,241.5 Z"/></g>
<g><path style="opacity:0.012" fill="#9ed7f6" d="M 742.5,247.5 C 743.833,248.167 743.833,248.167 742.5,247.5 Z"/></g>
<g><path style="opacity:0.004" fill="#9ed8f6" d="M 279.5,249.5 C 278.833,248.167 278.833,248.167 279.5,249.5 Z"/></g>
<g><path style="opacity:0.016" fill="#9ed8f7" d="M 331.5,248.5 C 332.043,248.56 332.376,248.893 332.5,249.5C 331.675,250.386 330.675,250.719 329.5,250.5C 329.5,250.167 329.5,249.833 329.5,249.5C 330.492,249.672 331.158,249.338 331.5,248.5 Z"/></g>
<g><path style="opacity:0.004" fill="#9ed8f6" d="M 747.5,250.5 C 748.833,251.167 748.833,251.167 747.5,250.5 Z"/></g>
<g><path style="opacity:0.804" fill="#a4e0fd" d="M 693.5,251.5 C 694.552,251.351 695.552,251.517 696.5,252C 695.167,252.667 693.833,253.333 692.5,254C 693.167,254.333 693.833,254.667 694.5,255C 693.216,255.684 692.049,255.517 691,254.5C 683.358,257.485 675.692,260.485 668,263.5C 667.235,263.43 666.735,263.097 666.5,262.5C 675.183,258.267 684.183,254.6 693.5,251.5 Z"/></g>
<g><path style="opacity:0.016" fill="#9ed8f7" d="M 272.5,253.5 C 271.833,252.167 271.833,252.167 272.5,253.5 Z"/></g>
<g><path style="opacity:0.004" fill="#9ed8f6" d="M 264.5,255.5 C 265.833,256.167 265.833,256.167 264.5,255.5 Z"/></g>
<g><path style="opacity:0.008" fill="#9ed8f7" d="M 267.5,256.5 C 266.833,255.167 266.833,255.167 267.5,256.5 Z"/></g>
<g><path style="opacity:0.008" fill="#9ed8f7" d="M 757.5,256.5 C 758.833,257.167 758.833,257.167 757.5,256.5 Z"/></g>
<g><path style="opacity:0.807" fill="#a3dffc" d="M 345.5,279.5 C 340.415,278.027 335.415,276.36 330.5,274.5C 327.449,272.648 324.116,271.314 320.5,270.5C 319.249,268.78 317.749,268.447 316,269.5C 314.856,267.083 313.19,266.416 311,267.5C 309.648,265.568 307.815,264.234 305.5,263.5C 292.307,270.593 279.307,277.927 266.5,285.5C 264.833,286.167 263.167,286.833 261.5,287.5C 260.761,287.631 260.094,287.464 259.5,287C 274.646,278.258 289.979,269.758 305.5,261.5C 319.488,267.438 333.488,273.271 347.5,279C 346.906,279.464 346.239,279.631 345.5,279.5 Z"/></g>
<g><path style="opacity:0.627" fill="#a3dffc" d="M 334.5,253.5 C 340.031,254.931 345.365,256.931 350.5,259.5C 351.107,259.376 351.44,259.043 351.5,258.5C 359.055,262.918 367.055,266.584 375.5,269.5C 376.463,270.363 376.463,271.03 375.5,271.5C 362.46,266.431 349.46,261.265 336.5,256C 335.244,255.583 334.577,254.75 334.5,253.5 Z"/></g>
<g><path style="opacity:0.012" fill="#9ed7f6" d="M 770.5,263.5 C 771.833,264.167 771.833,264.167 770.5,263.5 Z"/></g>
<g><path style="opacity:0.882" fill="#a4e0fc" d="M 751.5,281.5 C 743.676,277.755 736.009,273.755 728.5,269.5C 728.158,268.662 727.492,268.328 726.5,268.5C 724.235,266.358 721.568,264.691 718.5,263.5C 706.849,267.667 695.516,272.334 684.5,277.5C 680.268,279.114 675.934,280.447 671.5,281.5C 670.262,281.19 670.262,280.69 671.5,280C 686.934,273.634 702.434,267.467 718,261.5C 730.174,267.338 742.007,273.838 753.5,281C 752.906,281.464 752.239,281.631 751.5,281.5 Z"/></g>
<g><path style="opacity:0.008" fill="#9ed8f7" d="M 772.5,264.5 C 773.833,265.167 773.833,265.167 772.5,264.5 Z"/></g>
<g><path style="opacity:0.008" fill="#9ed8f7" d="M 249.5,266.5 C 248.833,265.167 248.833,265.167 249.5,266.5 Z"/></g>
<g><path style="opacity:0.012" fill="#9ed7f6" d="M 774.5,265.5 C 775.833,266.167 775.833,266.167 774.5,265.5 Z"/></g>
<g><path style="opacity:0.004" fill="#9ed8f6" d="M 245.5,266.5 C 246.833,267.167 246.833,267.167 245.5,266.5 Z"/></g>
<g><path style="opacity:0.008" fill="#9ed8f7" d="M 240.5,271.5 C 239.833,270.167 239.833,270.167 240.5,271.5 Z"/></g>
<g><path style="opacity:0.008" fill="#9ed8f7" d="M 238.5,272.5 C 237.833,271.167 237.833,271.167 238.5,272.5 Z"/></g>
<g><path style="opacity:0.978" fill="#a4e0fd" d="M 663.5,263.5 C 664.239,263.369 664.906,263.536 665.5,264C 630.906,278.384 595.906,292.551 560.5,306.5C 559.893,306.376 559.56,306.043 559.5,305.5C 571.085,300.305 582.751,295.305 594.5,290.5C 609.195,285.083 623.195,279.416 636.5,273.5C 641.735,271.871 646.735,269.871 651.5,267.5C 654.6,267.196 657.1,265.863 659,263.5C 660.414,264.413 661.914,264.413 663.5,263.5 Z"/></g>
<g><path style="opacity:0.004" fill="#9ed8f6" d="M 789.5,271.5 C 790.833,272.167 790.833,272.167 789.5,271.5 Z"/></g>
<g><path style="opacity:0.012" fill="#9ed7f6" d="M 236.5,273.5 C 235.833,272.167 235.833,272.167 236.5,273.5 Z"/></g>
<g><path style="opacity:0.995" fill="#a4e0fc" d="M 744.5,251.5 C 748.984,253.243 753.317,255.243 757.5,257.5C 767.835,264.003 778.502,270.003 789.5,275.5C 793.347,278.593 797.68,280.926 802.5,282.5C 807.185,285.6 812.019,288.6 817,291.5C 817.383,290.944 817.883,290.611 818.5,290.5C 818.414,291.496 818.748,292.329 819.5,293C 821.5,294.333 823.5,295.667 825.5,297C 825.167,297.333 824.833,297.667 824.5,298C 826.782,300.397 828.116,303.231 828.5,306.5C 828.657,307.873 828.49,309.207 828,310.5C 826.665,303.812 823.332,298.479 818,294.5C 806.516,287.653 794.35,280.986 781.5,274.5C 769.908,267.004 757.575,259.837 744.5,253C 743.262,252.31 743.262,251.81 744.5,251.5 Z"/></g>
<g><path style="opacity:0.004" fill="#9ed8f6" d="M 789.5,274.5 C 788.833,273.167 788.833,273.167 789.5,274.5 Z"/></g>
<g><path style="opacity:0.012" fill="#9ed7f6" d="M 232.5,275.5 C 231.833,274.167 231.833,274.167 232.5,275.5 Z"/></g>
<g><path style="opacity:0.012" fill="#9ed7f6" d="M 789.5,274.5 C 790.833,275.167 790.833,275.167 789.5,274.5 Z"/></g>
<g><path style="opacity:0.009" fill="#9ed7f7" d="M 684.5,277.5 C 685.773,278.077 685.773,278.743 684.5,279.5C 683.537,279.03 683.537,278.363 684.5,277.5 Z"/></g>
<g><path style="opacity:0.008" fill="#9ed8f7" d="M 219.5,279.5 C 220.833,280.167 220.833,280.167 219.5,279.5 Z"/></g>
<g><path style="opacity:0.004" fill="#9ed8f6" d="M 224.5,280.5 C 223.833,279.167 223.833,279.167 224.5,280.5 Z"/></g>
<g><path style="opacity:0.004" fill="#9ed8f6" d="M 222.5,281.5 C 221.833,280.167 221.833,280.167 222.5,281.5 Z"/></g>
<g><path style="opacity:0.004" fill="#9ed8f6" d="M 802.5,281.5 C 803.833,282.167 803.833,282.167 802.5,281.5 Z"/></g>
<g><path style="opacity:0.988" fill="#a4e2fd" d="M 762.5,287.5 C 760.181,287.008 758.181,286.008 756.5,284.5C 755.031,282.895 755.365,282.395 757.5,283C 759.001,284.252 760.668,285.252 762.5,286C 763.738,286.69 763.738,287.19 762.5,287.5 Z"/></g>
<g><path style="opacity:0.816" fill="#a4e0fd" d="M 394.5,277.5 C 409.645,282.543 424.312,288.543 438.5,295.5C 438.44,296.043 438.107,296.376 437.5,296.5C 422.32,290.081 406.986,283.914 391.5,278C 392.448,277.517 393.448,277.351 394.5,277.5 Z"/></g>
<g><path style="opacity:0.016" fill="#9ed8f7" d="M 210.5,288.5 C 209.761,288.631 209.094,288.464 208.5,288C 209.437,287.308 210.103,287.475 210.5,288.5 Z"/></g>
<g><path style="opacity:0.004" fill="#9ed8f6" d="M 813.5,287.5 C 814.833,288.167 814.833,288.167 813.5,287.5 Z"/></g>
<g><path style="opacity:0.005" fill="#9ed8f7" d="M 261.5,288.5 C 262.289,288.783 262.956,289.283 263.5,290C 262.184,290.528 261.517,290.028 261.5,288.5 Z"/></g>
<g><path style="opacity:0.004" fill="#9ed8f6" d="M 818.5,289.5 C 819.833,290.167 819.833,290.167 818.5,289.5 Z"/></g>
<g><path style="opacity:0.008" fill="#9ed8f7" d="M 199.5,290.5 C 200.833,291.167 200.833,291.167 199.5,290.5 Z"/></g>
<g><path style="opacity:0.016" fill="#9ed8f7" d="M 201.5,290.5 C 202.833,291.167 202.833,291.167 201.5,290.5 Z"/></g>
<g><path style="opacity:0.98" fill="#a2dffd" d="M 257.5,289.5 C 253.836,292.335 249.836,294.668 245.5,296.5C 244.761,296.631 244.094,296.464 243.5,296C 245.57,295.052 247.07,293.552 248,291.5C 248.414,291.957 248.914,292.291 249.5,292.5C 251.833,291.167 254.167,289.833 256.5,288.5C 257.107,288.624 257.44,288.957 257.5,289.5 Z"/></g>
<g><path style="opacity:1" fill="#a7e4fe" d="M 642.5,293.5 C 642.5,293.833 642.5,294.167 642.5,294.5C 640.784,294.629 639.117,294.962 637.5,295.5C 636.448,295.649 635.448,295.483 634.5,295C 638.401,293.033 642.401,291.7 646.5,291C 644.934,291.608 643.6,292.442 642.5,293.5 Z"/></g>
<g><path style="opacity:0.972" fill="#a4e0fd" d="M 425.5,311.5 C 407.845,304.837 390.179,298.17 372.5,291.5C 366.656,288.656 360.656,285.989 354.5,283.5C 354.369,282.761 354.536,282.094 355,281.5C 379.342,290.922 403.509,300.755 427.5,311C 426.906,311.464 426.239,311.631 425.5,311.5 Z"/></g>
<g><path style="opacity:0.975" fill="#a4e1fd" d="M 441.5,296.5 C 446.061,297.576 450.395,299.243 454.5,301.5C 455.463,302.363 455.463,303.03 454.5,303.5C 449.608,301.22 444.608,299.22 439.5,297.5C 439.957,296.702 440.624,296.369 441.5,296.5 Z"/></g>
<g><path style="opacity:0.271" fill="#a3defc" d="M 242.5,298.5 C 235.833,302.167 229.167,305.833 222.5,309.5C 220.621,309.607 220.288,309.107 221.5,308C 228.414,304.293 235.248,300.46 242,296.5C 242.464,297.094 242.631,297.761 242.5,298.5 Z"/></g>
<g><path style="opacity:0.004" fill="#9ed8f6" d="M 191.5,303.5 C 192.833,304.167 192.833,304.167 191.5,303.5 Z"/></g>
<g><path style="opacity:0.008" fill="#9ed8f7" d="M 830.5,305.5 C 831.833,306.167 831.833,306.167 830.5,305.5 Z"/></g>
<g><path style="opacity:0.99" fill="#a4e1fd" d="M 248.5,267.5 C 249.598,268.397 249.598,269.23 248.5,270C 232.718,278.393 217.051,287.059 201.5,296C 200.696,297.771 199.529,299.271 198,300.5C 197.544,301.744 198.044,302.577 199.5,303C 198.747,304.487 197.914,304.654 197,303.5C 189.674,326.812 182.341,350.145 175,373.5C 174.517,372.552 174.351,371.552 174.5,370.5C 178.322,357.545 181.989,344.545 185.5,331.5C 187.101,328.45 188.101,325.116 188.5,321.5C 190.861,313.768 193.694,306.101 197,298.5C 200.767,294.048 205.267,290.714 210.5,288.5C 214.864,286.656 218.864,284.323 222.5,281.5C 223.492,281.672 224.158,281.338 224.5,280.5C 227.704,279.617 230.371,277.95 232.5,275.5C 234.38,275.771 235.713,275.104 236.5,273.5C 237.492,273.672 238.158,273.338 238.5,272.5C 239.492,272.672 240.158,272.338 240.5,271.5C 243.392,270.606 246.059,269.272 248.5,267.5 Z"/></g>
<g><path style="opacity:0.976" fill="#a4e0fd" d="M 449.5,321.5 C 443.424,319.146 437.424,316.812 431.5,314.5C 430.942,313.21 429.942,312.377 428.5,312C 436.37,314.185 444.036,317.185 451.5,321C 450.906,321.464 450.239,321.631 449.5,321.5 Z"/></g>
<g><path style="opacity:0.991" fill="#a4e0fd" d="M 554.5,307.5 C 555.239,307.369 555.906,307.536 556.5,308C 547.647,312.557 538.647,315.724 529.5,317.5C 537.451,313.401 545.784,310.068 554.5,307.5 Z"/></g>
<g><path style="opacity:0.798" fill="#a3dffc" d="M 624.5,300.5 C 611.833,306.167 599.167,311.833 586.5,317.5C 581.167,319.167 575.833,320.833 570.5,322.5C 569.761,322.631 569.094,322.464 568.5,322C 586.833,314.5 605.167,307 623.5,299.5C 624.107,299.624 624.44,299.957 624.5,300.5 Z"/></g>
<g><path style="opacity:0.008" fill="#9ed8f7" d="M 188.5,316.5 C 189.833,317.167 189.833,317.167 188.5,316.5 Z"/></g>
<g><path style="opacity:0.004" fill="#9ed8f6" d="M 188.5,321.5 C 187.833,320.167 187.833,320.167 188.5,321.5 Z"/></g>
<g><path style="opacity:1" fill="#a4e0fd" d="M 459.5,303.5 C 461.117,304.038 462.784,304.371 464.5,304.5C 465.78,305.931 467.447,306.598 469.5,306.5C 469.842,307.338 470.508,307.672 471.5,307.5C 475.534,309.737 479.868,311.404 484.5,312.5C 485.78,313.931 487.447,314.598 489.5,314.5C 495.69,317.407 502.023,320.24 508.5,323C 511.482,323.703 514.149,323.203 516.5,321.5C 519.167,320.833 521.833,320.167 524.5,319.5C 525.239,319.369 525.906,319.536 526.5,320C 521.592,322.038 516.759,324.205 512,326.5C 493.792,319.205 475.625,311.705 457.5,304C 458.094,303.536 458.761,303.369 459.5,303.5 Z"/></g>
<g><path style="opacity:0.004" fill="#9ed8f6" d="M 835.5,323.5 C 836.833,324.167 836.833,324.167 835.5,323.5 Z"/></g>
<g><path style="opacity:1" fill="#a5e1fc" d="M 474.5,331.5 C 469.939,330.424 465.605,328.757 461.5,326.5C 460.537,325.637 460.537,324.97 461.5,324.5C 466.658,326.383 471.658,328.55 476.5,331C 475.906,331.464 475.239,331.631 474.5,331.5 Z"/></g>
<g><path style="opacity:0.012" fill="#9ed7f6" d="M 184.5,327.5 C 185.833,328.167 185.833,328.167 184.5,327.5 Z"/></g>
<g><path style="opacity:0.984" fill="#a3dffc" d="M 566.5,324.5 C 566.5,324.833 566.5,325.167 566.5,325.5C 552.422,330.637 538.422,335.97 524.5,341.5C 523.448,341.649 522.448,341.483 521.5,341C 536.47,334.851 551.47,328.685 566.5,322.5C 567.463,322.97 567.463,323.637 566.5,324.5 Z"/></g>
<g><path style="opacity:0.006" fill="#9ed7f7" d="M 185.5,331.5 C 184.778,331.918 184.278,332.584 184,333.5C 183.251,332.365 183.417,331.365 184.5,330.5C 185.107,330.624 185.44,330.957 185.5,331.5 Z"/></g>
<g><path style="opacity:0.995" fill="#a5e1fd" d="M 830.5,313.5 C 836.27,329.151 841.27,345.151 845.5,361.5C 845.657,362.873 845.49,364.207 845,365.5C 839.233,347.542 833.9,329.542 829,311.5C 829.278,312.416 829.778,313.082 830.5,313.5 Z"/></g>
<g><path style="opacity:0.979" fill="#a4e0fd" d="M 489.5,337.5 C 484.856,336.401 480.522,334.734 476.5,332.5C 477.15,332.196 477.817,331.863 478.5,331.5C 482.908,333.244 487.242,335.078 491.5,337C 490.906,337.464 490.239,337.631 489.5,337.5 Z"/></g>
<g><path style="opacity:0.008" fill="#9ed8f7" d="M 494.5,342.5 C 494.842,341.662 495.508,341.328 496.5,341.5C 496.591,343.698 495.925,344.031 494.5,342.5 Z"/></g>
<g><path style="opacity:0.004" fill="#9ed8f6" d="M 841.5,343.5 C 842.833,344.167 842.833,344.167 841.5,343.5 Z"/></g>
<g><path style="opacity:0.004" fill="#9ed8f6" d="M 179.5,344.5 C 180.833,345.167 180.833,345.167 179.5,344.5 Z"/></g>
<g><path style="opacity:0.004" fill="#9ed8f6" d="M 843.5,347.5 C 844.833,348.167 844.833,348.167 843.5,347.5 Z"/></g>
<g><path style="opacity:0.004" fill="#9ed8f6" d="M 178.5,348.5 C 179.833,349.167 179.833,349.167 178.5,348.5 Z"/></g>
<g><path style="opacity:0.004" fill="#9ed8f6" d="M 843.5,351.5 C 843.897,350.475 844.563,350.308 845.5,351C 844.906,351.464 844.239,351.631 843.5,351.5 Z"/></g>
<g><path style="opacity:0.012" fill="#9ed7f6" d="M 845.5,352.5 C 846.833,353.167 846.833,353.167 845.5,352.5 Z"/></g>
<g><path style="opacity:0.98" fill="#a3e0fc" d="M 219.5,310.5 C 213.061,323.816 208.395,337.816 205.5,352.5C 201.321,365.548 196.988,378.548 192.5,391.5C 192.196,390.85 191.863,390.183 191.5,389.5C 198.826,363.195 206.993,337.195 216,311.5C 217.041,309.689 218.207,309.355 219.5,310.5 Z"/></g>
<g><path style="opacity:0.008" fill="#9ed8f7" d="M 175.5,358.5 C 176.833,359.167 176.833,359.167 175.5,358.5 Z"/></g>
<g><path style="opacity:0.981" fill="#a6e3fe" d="M 521.5,343.5 C 521.829,357.677 521.496,371.677 520.5,385.5C 519.559,373.144 519.225,360.644 519.5,348C 519.97,345.717 520.637,344.217 521.5,343.5 Z"/></g>
<g><path style="opacity:0.027" fill="#9ed8f7" d="M 846.5,359.5 C 847.833,360.167 847.833,360.167 846.5,359.5 Z"/></g>
<g><path style="opacity:0.012" fill="#9ed7f6" d="M 849.5,370.5 C 850.833,371.167 850.833,371.167 849.5,370.5 Z"/></g>
<g><path style="opacity:0.004" fill="#9ed8f6" d="M 850.5,372.5 C 851.833,373.167 851.833,373.167 850.5,372.5 Z"/></g>
<g><path style="opacity:0.824" fill="#a4dffc" d="M 831.5,394.5 C 830.5,392.5 829.5,390.5 828.5,388.5C 828.37,385.091 827.37,381.758 825.5,378.5C 822.728,367.78 819.728,358.113 816.5,349.5C 816.189,345.119 814.856,340.786 812.5,336.5C 810.939,328.821 808.606,321.488 805.5,314.5C 805.106,312.29 803.773,310.957 801.5,310.5C 801.158,309.662 800.492,309.328 799.5,309.5C 795.423,306.773 791.09,304.439 786.5,302.5C 786.158,301.662 785.492,301.328 784.5,301.5C 784.027,300.094 783.027,299.427 781.5,299.5C 779.833,298.167 778.167,296.833 776.5,295.5C 776.56,294.957 776.893,294.624 777.5,294.5C 787.378,300.024 797.211,305.691 807,311.5C 816.703,339.602 825.37,367.936 833,396.5C 832.722,395.584 832.222,394.918 831.5,394.5 Z"/></g>
<g><path style="opacity:0.004" fill="#9ed8f6" d="M 852.5,375.5 C 853.833,376.167 853.833,376.167 852.5,375.5 Z"/></g>
<g><path style="opacity:0.841" fill="#a5e1fd" d="M 848.5,371.5 C 848.833,371.5 849.167,371.5 849.5,371.5C 849.833,373.5 850.167,375.5 850.5,377.5C 850.649,378.552 850.483,379.552 850,380.5C 847.95,376.698 846.95,372.698 847,368.5C 847.232,369.737 847.732,370.737 848.5,371.5 Z"/></g>
<g><path style="opacity:0.008" fill="#9ed8f7" d="M 852.5,378.5 C 853.833,379.167 853.833,379.167 852.5,378.5 Z"/></g>
<g><path style="opacity:0.004" fill="#9ed8f6" d="M 853.5,383.5 C 854.833,384.167 854.833,384.167 853.5,383.5 Z"/></g>
<g><path style="opacity:0.004" fill="#9ed8f6" d="M 828.5,388.5 C 828.541,392.243 827.874,392.41 826.5,389C 827.094,388.536 827.761,388.369 828.5,388.5 Z"/></g>
<g><path style="opacity:0.957" fill="#a4e1fd" d="M 191.5,395.5 C 190.626,398.789 189.959,402.123 189.5,405.5C 189.167,405.5 188.833,405.5 188.5,405.5C 187.778,405.918 187.278,406.584 187,407.5C 187.535,402.363 188.869,397.363 191,392.5C 191.483,393.448 191.649,394.448 191.5,395.5 Z"/></g>
<g><path style="opacity:0.973" fill="#a5e1fd" d="M 851.5,381.5 C 852.167,382.5 852.833,383.5 853.5,384.5C 856.167,394.167 858.833,403.833 861.5,413.5C 861.649,414.552 861.483,415.552 861,416.5C 857.201,405.603 853.701,394.603 850.5,383.5C 850.543,382.584 850.876,381.917 851.5,381.5 Z"/></g>
<g><path style="opacity:0.984" fill="#a6e2fe" d="M 521.5,427.5 C 520.799,424.437 520.132,421.27 519.5,418C 520.186,410.437 520.186,402.937 519.5,395.5C 520.314,393.369 520.814,391.036 521,388.5C 521.5,401.496 521.667,414.496 521.5,427.5 Z"/></g>
<g><path style="opacity:0.008" fill="#9ed8f7" d="M 860.5,405.5 C 861.833,406.167 861.833,406.167 860.5,405.5 Z"/></g>
<g><path style="opacity:0.279" fill="#9fdaf9" d="M 521.5,343.5 C 521.833,343.5 522.167,343.5 522.5,343.5C 522.333,399.501 522.5,455.501 523,511.5C 523.383,512.056 523.883,512.389 524.5,512.5C 526.167,513.833 527.833,515.167 529.5,516.5C 530.463,517.363 530.463,518.03 529.5,518.5C 525.996,516.582 522.663,514.416 519.5,512C 520.416,511.722 521.082,511.222 521.5,510.5C 521.068,483.026 521.068,455.693 521.5,428.5C 521.5,428.167 521.5,427.833 521.5,427.5C 521.667,414.496 521.5,401.496 521,388.5C 520.814,391.036 520.314,393.369 519.5,395.5C 519.187,391.958 519.521,388.625 520.5,385.5C 521.496,371.677 521.829,357.677 521.5,343.5 Z"/></g>
<g><path style="opacity:0.71" fill="#a2dffc" d="M 185.5,415.5 C 185.5,416.5 185.5,417.5 185.5,418.5C 183.986,422.885 182.32,427.218 180.5,431.5C 179.876,431.083 179.543,430.416 179.5,429.5C 181.253,423.743 183.086,418.076 185,412.5C 185.483,413.448 185.649,414.448 185.5,415.5 Z"/></g>
<g><path style="opacity:0.985" fill="#a4e1fd" d="M 855.5,473.5 C 851.677,462.537 848.01,451.537 844.5,440.5C 844.405,438.214 843.738,436.214 842.5,434.5C 842.737,433.209 842.404,432.209 841.5,431.5C 839.731,423.787 837.564,415.787 835,407.5C 834.8,405.68 833.966,404.347 832.5,403.5C 833.11,402.609 833.443,401.609 833.5,400.5C 833.413,397.402 833.913,397.068 835,399.5C 841.959,424.506 849.459,449.339 857.5,474C 857.333,474.5 857.167,475 857,475.5C 856.722,474.584 856.222,473.918 855.5,473.5 Z"/></g>
<g><path style="opacity:0.004" fill="#9ed8f6" d="M 870.5,432.5 C 871.833,433.167 871.833,433.167 870.5,432.5 Z"/></g>
<g><path style="opacity:0.004" fill="#9ed8f6" d="M 869.5,434.5 C 870.833,435.167 870.833,435.167 869.5,434.5 Z"/></g>
<g><path style="opacity:0.008" fill="#9ed8f7" d="M 870.5,436.5 C 871.833,437.167 871.833,437.167 870.5,436.5 Z"/></g>
<g><path style="opacity:0.004" fill="#9ed8f6" d="M 151.5,437.5 C 152.833,438.167 152.833,438.167 151.5,437.5 Z"/></g>
<g><path style="opacity:0.004" fill="#9ed8f6" d="M 144.5,447.5 C 145.833,448.167 145.833,448.167 144.5,447.5 Z"/></g>
<g><path style="opacity:0.882" fill="#a5e1fd" d="M 865.5,426.5 C 871.072,442.558 876.072,458.891 880.5,475.5C 880.657,476.873 880.49,478.207 880,479.5C 874.184,461.222 868.85,442.889 864,424.5C 864.278,425.416 864.778,426.082 865.5,426.5 Z"/></g>
<g><path style="opacity:0.004" fill="#9ed8f6" d="M 146.5,453.5 C 147.833,454.167 147.833,454.167 146.5,453.5 Z"/></g>
<g><path style="opacity:0.004" fill="#9ed8f6" d="M 143.5,464.5 C 144.833,465.167 144.833,465.167 143.5,464.5 Z"/></g>
<g><path style="opacity:0.949" fill="#a3e0fc" d="M 179.5,434.5 C 179.5,435.833 179.5,437.167 179.5,438.5C 174.993,450.887 170.993,463.553 167.5,476.5C 166.624,476.631 165.957,476.298 165.5,475.5C 169.901,461.131 174.401,446.797 179,432.5C 179.464,433.094 179.631,433.761 179.5,434.5 Z"/></g>
<g><path style="opacity:0.012" fill="#9ed7f6" d="M 144.5,467.5 C 143.833,466.167 143.833,466.167 144.5,467.5 Z"/></g>
<g><path style="opacity:0.985" fill="#a6e2fe" d="M 521.5,428.5 C 521.068,455.693 521.068,483.026 521.5,510.5C 520.733,509.828 520.066,508.995 519.5,508C 520.401,483.495 520.401,459.495 519.5,436C 520.123,433.393 520.79,430.893 521.5,428.5 Z"/></g>
<g><path style="opacity:0.004" fill="#9ed8f6" d="M 881.5,472.5 C 882.833,473.167 882.833,473.167 881.5,472.5 Z"/></g>
<g><path style="opacity:1" fill="#a4e0fd" d="M 135.5,508.5 C 135.167,508.5 134.833,508.5 134.5,508.5C 134.5,507.833 134.5,507.167 134.5,506.5C 135.976,497.431 138.309,488.597 141.5,480C 141.167,479.667 140.833,479.333 140.5,479C 142.614,475.15 143.947,471.317 144.5,467.5C 151.037,446.957 157.37,426.624 163.5,406.5C 163.291,405.914 162.957,405.414 162.5,405C 166.14,395.911 169.473,386.744 172.5,377.5C 173.268,376.737 173.768,375.737 174,374.5C 174.667,375.833 174.667,377.167 174,378.5C 160.656,421.696 147.823,465.03 135.5,508.5 Z"/></g>
<g><path style="opacity:0.004" fill="#9ed8f6" d="M 138.5,482.5 C 139.833,483.167 139.833,483.167 138.5,482.5 Z"/></g>
<g><path style="opacity:0.004" fill="#9ed8f6" d="M 886.5,483.5 C 887.833,484.167 887.833,484.167 886.5,483.5 Z"/></g>
<g><path style="opacity:0.008" fill="#9ed8f7" d="M 884.5,485.5 C 885.833,486.167 885.833,486.167 884.5,485.5 Z"/></g>
<g><path style="opacity:0.004" fill="#9ed8f6" d="M 136.5,488.5 C 137.833,489.167 137.833,489.167 136.5,488.5 Z"/></g>
<g><path style="opacity:0.987" fill="#a3e0fc" d="M 882.5,482.5 C 883.167,483.833 883.833,485.167 884.5,486.5C 885.688,492.233 887.188,497.9 889,503.5C 889.824,513.009 889.658,522.343 888.5,531.5C 888.824,524.646 888.491,517.979 887.5,511.5C 886.584,501.502 884.251,491.836 880.5,482.5C 880.97,481.537 881.637,481.537 882.5,482.5 Z"/></g>
<g><path style="opacity:0.008" fill="#9ed8f7" d="M 886.5,489.5 C 887.833,490.167 887.833,490.167 886.5,489.5 Z"/></g>
<g><path style="opacity:0.004" fill="#9ed8f6" d="M 135.5,491.5 C 136.833,492.167 136.833,492.167 135.5,491.5 Z"/></g>
<g><path style="opacity:0.613" fill="#a2ddfb" d="M 503.5,471.5 C 502.833,484.833 502.167,498.167 501.5,511.5C 501.784,499.063 501.284,486.73 500,474.5C 500.333,475.833 500.667,477.167 501,478.5C 501.167,472.333 501.333,466.167 501.5,460C 501.349,424.308 501.349,388.474 501.5,352.5C 502.319,349.695 502.819,346.695 503,343.5C 503.5,386.165 503.667,428.832 503.5,471.5 Z"/></g>
<g><path style="opacity:0.988" fill="#a8e3fe" d="M 503.5,471.5 C 503.833,485.183 503.499,498.85 502.5,512.5C 501.893,512.376 501.56,512.043 501.5,511.5C 502.167,498.167 502.833,484.833 503.5,471.5 Z"/></g>
<g><path style="opacity:0.987" fill="#a4e1fd" d="M 863.5,499.5 C 862.4,497.723 861.566,495.723 861,493.5C 860.667,494.167 860.333,494.833 860,495.5C 859.504,493.965 859.67,492.465 860.5,491C 858.795,487.346 857.795,483.513 857.5,479.5C 857.351,478.448 857.517,477.448 858,476.5C 860.465,484.895 863.132,493.228 866,501.5C 866.774,503.403 866.44,505.07 865,506.5C 864.814,503.964 864.314,501.631 863.5,499.5 Z"/></g>
<g><path style="opacity:0.006" fill="#9ed8f7" d="M 131.5,507.5 C 132.525,507.897 132.692,508.563 132,509.5C 131.536,508.906 131.369,508.239 131.5,507.5 Z"/></g>
<g><path style="opacity:0.984" fill="#a4e0fd" d="M 159.5,501.5 C 159.264,504.226 160.097,506.559 162,508.5C 166.185,513.571 170.352,518.571 174.5,523.5C 187.88,539.545 200.88,555.879 213.5,572.5C 212.811,573.774 211.977,573.774 211,572.5C 194.214,551.996 177.548,531.33 161,510.5C 157.444,506.952 156.778,502.952 159,498.5C 159.483,499.448 159.649,500.448 159.5,501.5 Z"/></g>
<g><path style="opacity:0.992" fill="#a6e2fd" d="M 497.5,514.5 C 498.239,514.369 498.906,514.536 499.5,515C 494.999,517.416 490.666,520.083 486.5,523C 485.563,523.692 484.897,523.525 484.5,522.5C 488.323,519.084 492.657,516.418 497.5,514.5 Z"/></g>
<g><path style="opacity:0.987" fill="#abe8fe" d="M 887.5,511.5 C 888.491,517.979 888.824,524.646 888.5,531.5C 888.5,532.167 888.5,532.833 888.5,533.5C 887.515,537.634 887.182,541.968 887.5,546.5C 887.167,546.5 886.833,546.5 886.5,546.5C 886.938,534.837 887.272,523.17 887.5,511.5 Z"/></g>
<g><path style="opacity:0.004" fill="#9ed8f6" d="M 133.5,520.5 C 132.833,521.167 132.833,521.167 133.5,520.5 Z"/></g>
<g><path style="opacity:0.004" fill="#9ed8f6" d="M 132.5,521.5 C 131.833,522.167 131.833,522.167 132.5,521.5 Z"/></g>
<g><path style="opacity:0.98" fill="#a4e0fd" d="M 860.5,510.5 C 860.938,510.435 861.272,510.601 861.5,511C 856.333,517.5 851.167,524 846,530.5C 845.536,529.906 845.369,529.239 845.5,528.5C 846.921,525.991 848.588,523.657 850.5,521.5C 851.906,521.027 852.573,520.027 852.5,518.5C 855.167,515.833 857.833,513.167 860.5,510.5 Z"/></g>
<g><path style="opacity:0.969" fill="#a4e0fd" d="M 480.5,524.5 C 481.239,524.369 481.906,524.536 482.5,525C 473.646,530.913 464.646,536.247 455.5,541C 456.056,540.617 456.389,540.117 456.5,539.5C 460.344,537.078 464.01,534.411 467.5,531.5C 471.966,529.434 476.299,527.1 480.5,524.5 Z"/></g>
<g><path style="opacity:0.976" fill="#a3dffc" d="M 510.5,530.5 C 509.128,531.512 507.795,532.512 506.5,533.5C 500.031,536.902 493.697,540.569 487.5,544.5C 485.621,544.607 485.288,544.107 486.5,543C 494.584,538.543 502.418,533.709 510,528.5C 510.464,529.094 510.631,529.761 510.5,530.5 Z"/></g>
<g><path style="opacity:0.983" fill="#a4e0fc" d="M 534.5,519.5 C 554.146,531.468 573.813,543.468 593.5,555.5C 596.494,558 599.827,560 603.5,561.5C 607.819,564.996 612.485,567.996 617.5,570.5C 617.842,571.338 618.508,571.672 619.5,571.5C 631.821,579.997 644.488,587.997 657.5,595.5C 662.167,598.833 666.833,602.167 671.5,605.5C 669.248,606.453 666.581,606.953 663.5,607C 664.5,606.167 665.5,605.333 666.5,604.5C 622.494,576.272 577.828,548.106 532.5,520C 533.094,519.536 533.761,519.369 534.5,519.5 Z"/></g>
<g><path style="opacity:0.996" fill="#a3dffc" d="M 843.5,531.5 C 840.146,538.042 835.646,544.376 830,550.5C 829.536,549.906 829.369,549.239 829.5,548.5C 830.752,546.999 831.752,545.332 832.5,543.5C 836.167,539.5 839.833,535.5 843.5,531.5 Z"/></g>
<g><path style="opacity:0.051" fill="#9ed9f9" d="M 134.5,506.5 C 134.5,507.167 134.5,507.833 134.5,508.5C 135.222,519.819 135.555,531.152 135.5,542.5C 134.751,541.469 134.085,540.302 133.5,539C 134.461,532.899 134.461,526.733 133.5,520.5C 133.181,515.637 133.514,510.97 134.5,506.5 Z"/></g>
<g><path style="opacity:0.008" fill="#9ed8f7" d="M 889.5,536.5 C 890.833,537.167 890.833,537.167 889.5,536.5 Z"/></g>
<g><path style="opacity:0.988" fill="#a4e0fc" d="M 535.5,544.5 C 531.966,542.234 528.3,540.234 524.5,538.5C 521.106,535.779 517.439,533.446 513.5,531.5C 513.5,530.833 513.167,530.5 512.5,530.5C 511.697,529.577 511.53,528.577 512,527.5C 520.585,532.875 529.085,538.375 537.5,544C 536.906,544.464 536.239,544.631 535.5,544.5 Z"/></g>
<g><path style="opacity:0.004" fill="#9ed8f6" d="M 889.5,539.5 C 890.833,540.167 890.833,540.167 889.5,539.5 Z"/></g>
<g><path style="opacity:0.004" fill="#9ed8f6" d="M 889.5,546.5 C 890.833,547.167 890.833,547.167 889.5,546.5 Z"/></g>
<g><path style="opacity:0.984" fill="#a4e0fd" d="M 217.5,611.5 C 217.167,611.5 216.833,611.5 216.5,611.5C 215.527,608.865 213.86,606.865 211.5,605.5C 208.708,601.659 206.042,598.326 203.5,595.5C 200.179,590.848 196.513,586.515 192.5,582.5C 189.261,576.861 184.927,571.527 179.5,566.5C 179.672,565.508 179.338,564.842 178.5,564.5C 177.299,562.091 175.633,560.091 173.5,558.5C 173.167,557.5 172.5,556.833 171.5,556.5C 167.954,550.775 163.787,545.441 159,540.5C 158.501,544.821 158.334,549.154 158.5,553.5C 158.067,556.166 157.567,558.832 157,561.5C 156.5,553.173 156.334,544.84 156.5,536.5C 158.39,536.297 159.89,536.963 161,538.5C 179.042,561.944 197.542,584.944 216.5,607.5C 217.04,608.748 217.707,609.915 218.5,611C 218.272,611.399 217.938,611.565 217.5,611.5 Z"/></g>
<g><path style="opacity:0.99" fill="#a3dffd" d="M 453.5,541.5 C 454.332,542.329 453.999,543.162 452.5,544C 448.575,546.93 444.408,549.43 440,551.5C 439.601,551.272 439.435,550.938 439.5,550.5C 443.819,547.004 448.485,544.004 453.5,541.5 Z"/></g>
<g><path style="opacity:0.049" fill="#9fdaf9" d="M 888.5,533.5 C 888.611,534.117 888.944,534.617 889.5,535C 888.486,550.803 887.486,566.636 886.5,582.5C 887.024,590.399 887.357,598.232 887.5,606C 886.906,606.464 886.239,606.631 885.5,606.5C 885.723,586.483 886.39,566.483 887.5,546.5C 887.182,541.968 887.515,537.634 888.5,533.5 Z"/></g>
<g><path style="opacity:0.458" fill="#9fdafa" d="M 135.5,545.5 C 137.032,559.972 137.699,574.639 137.5,589.5C 136.911,578.064 135.911,566.564 134.5,555C 135.451,551.943 135.784,548.777 135.5,545.5 Z"/></g>
<g><path style="opacity:0.965" fill="#a4e0fc" d="M 484.5,546.5 C 483.5,546.833 482.833,547.5 482.5,548.5C 477.5,551.167 472.5,553.833 467.5,556.5C 466.262,556.19 466.262,555.69 467.5,555C 473.085,551.625 478.585,548.125 484,544.5C 484.464,545.094 484.631,545.761 484.5,546.5 Z"/></g>
<g><path style="opacity:0.998" fill="#a7e4ff" d="M 866.5,537.5 C 867.075,548.325 867.075,559.325 866.5,570.5C 865.611,559.388 865.611,548.388 866.5,537.5 Z"/></g>
<g><path style="opacity:0.552" fill="#a1ddfb" d="M 866.5,537.5 C 865.611,548.388 865.611,559.388 866.5,570.5C 865.79,572.746 865.29,575.08 865,577.5C 864.617,576.944 864.117,576.611 863.5,576.5C 863.961,565.602 864.628,554.435 865.5,543C 865.689,538.271 865.023,537.771 863.5,541.5C 862.833,541.5 862.5,541.833 862.5,542.5C 860.863,544.475 859.196,546.475 857.5,548.5C 856.761,548.631 856.094,548.464 855.5,548C 859,543.833 862.5,539.667 866,535.5C 866.464,536.094 866.631,536.761 866.5,537.5 Z"/></g>
<g><path style="opacity:0.016" fill="#9ed7f7" d="M 863.5,541.5 C 864.833,542.5 864.833,543.5 863.5,544.5C 863.167,543.833 862.833,543.167 862.5,542.5C 863.167,542.5 863.5,542.167 863.5,541.5 Z"/></g>
<g><path style="opacity:0.979" fill="#a4e1fd" d="M 827.5,551.5 C 827.938,551.435 828.272,551.601 828.5,552C 822.546,559.41 816.713,566.91 811,574.5C 810.536,573.906 810.369,573.239 810.5,572.5C 813.833,567.833 817.167,563.167 820.5,558.5C 822.543,557.421 823.876,555.754 824.5,553.5C 825.5,552.833 826.5,552.167 827.5,551.5 Z"/></g>
<g><path style="opacity:0.005" fill="#9ed8f7" d="M 605.5,559.5 C 606.289,559.783 606.956,560.283 607.5,561C 606.184,561.528 605.517,561.028 605.5,559.5 Z"/></g>
<g><path style="opacity:0.976" fill="#a4e1fd" d="M 437.5,551.5 C 438.738,551.81 438.738,552.31 437.5,553C 430.5,557.5 423.5,562 416.5,566.5C 415.893,566.376 415.56,566.043 415.5,565.5C 421.66,560.92 427.993,556.586 434.5,552.5C 435.391,551.89 436.391,551.557 437.5,551.5 Z"/></g>
<g><path style="opacity:0.569" fill="#a3dffc" d="M 577.5,570.5 C 577.167,570.5 576.833,570.5 576.5,570.5C 574.337,568.917 572.004,567.584 569.5,566.5C 559.772,559.441 549.772,552.774 539.5,546.5C 538.031,544.895 538.365,544.395 540.5,545C 553.5,553.333 566.5,561.667 579.5,570C 578.906,570.464 578.239,570.631 577.5,570.5 Z"/></g>
<g><path style="opacity:0.933" fill="#a3dffc" d="M 464.5,558.5 C 460.21,561.985 455.543,564.985 450.5,567.5C 449.668,566.671 450.001,565.838 451.5,565C 456.023,561.748 460.69,559.082 465.5,557C 464.944,557.383 464.611,557.883 464.5,558.5 Z"/></g>
<g><path style="opacity:0.975" fill="#a3e0fc" d="M 611.5,591.5 C 602.5,586.167 593.5,580.833 584.5,575.5C 583.306,574.728 582.306,573.728 581.5,572.5C 581.897,571.475 582.563,571.308 583.5,572C 593.5,578.333 603.5,584.667 613.5,591C 612.906,591.464 612.239,591.631 611.5,591.5 Z"/></g>
<g><path style="opacity:0.975" fill="#a6e4fe" d="M 134.5,508.5 C 134.833,508.5 135.167,508.5 135.5,508.5C 137.891,549.912 139.558,590.912 140.5,631.5C 139.833,627.167 139.167,622.833 138.5,618.5C 138.5,616.167 138.5,613.833 138.5,611.5C 138.825,604.313 138.491,597.313 137.5,590.5C 137.5,590.167 137.5,589.833 137.5,589.5C 137.699,574.639 137.032,559.972 135.5,545.5C 135.5,544.5 135.5,543.5 135.5,542.5C 135.555,531.152 135.222,519.819 134.5,508.5 Z"/></g>
<g><path style="opacity:0.96" fill="#a7e3fe" d="M 159.5,575.5 C 160.458,581.744 160.791,588.077 160.5,594.5C 160.823,600.69 160.49,606.69 159.5,612.5C 159.188,599.485 158.521,586.485 157.5,573.5C 157.667,570.833 157.833,568.167 158,565.5C 158.179,569.025 158.679,572.359 159.5,575.5 Z"/></g>
<g><path style="opacity:0.979" fill="#a5e1fd" d="M 216.5,575.5 C 218.932,578.688 221.599,581.688 224.5,584.5C 228.083,590.419 232.416,595.752 237.5,600.5C 240.167,604.167 242.833,607.833 245.5,611.5C 245.414,612.496 245.748,613.329 246.5,614C 235.352,602.148 224.686,589.481 214.5,576C 215.094,575.536 215.761,575.369 216.5,575.5 Z"/></g>
<g><path style="opacity:0.016" fill="#9ed8f7" d="M 135.5,598.5 C 136.833,599.167 136.833,599.167 135.5,598.5 Z"/></g>
<g><path style="opacity:0.568" fill="#a3dffc" d="M 863.5,628.5 C 862.833,629.5 862.167,630.5 861.5,631.5C 861.813,627.958 861.479,624.625 860.5,621.5C 862.133,608.87 863.133,596.204 863.5,583.5C 864.222,583.082 864.722,582.416 865,581.5C 865.167,583.5 865.333,585.5 865.5,587.5C 865.309,597.685 864.309,607.685 862.5,617.5C 863.426,621.094 863.759,624.76 863.5,628.5 Z"/></g>
<g><path style="opacity:0.983" fill="#a6e3fe" d="M 886.5,546.5 C 886.833,546.5 887.167,546.5 887.5,546.5C 886.39,566.483 885.723,586.483 885.5,606.5C 886.141,607.482 886.807,608.482 887.5,609.5C 887.154,610.696 886.654,610.696 886,609.5C 885.536,610.094 885.369,610.761 885.5,611.5C 884.747,617.013 884.081,622.68 883.5,628.5C 883.543,629.416 883.876,630.083 884.5,630.5C 884.5,630.833 884.5,631.167 884.5,631.5C 883.675,635.647 883.175,639.981 883,644.5C 883.412,612.107 884.578,579.44 886.5,546.5 Z"/></g>
<g><path style="opacity:0.992" fill="#a6e1fd" d="M 799.5,586.5 C 799.938,586.435 800.272,586.601 800.5,587C 794.333,594.5 788.167,602 782,609.5C 781.601,609.272 781.435,608.938 781.5,608.5C 782.248,606.668 783.248,605.001 784.5,603.5C 789.265,597.646 794.265,591.979 799.5,586.5 Z"/></g>
<g><path style="opacity:0.05" fill="#9fd9f9" d="M 137.5,590.5 C 138.491,597.313 138.825,604.313 138.5,611.5C 137.766,610.122 137.099,608.622 136.5,607C 137.473,601.593 137.807,596.093 137.5,590.5 Z"/></g>
<g><path style="opacity:0.98" fill="#a4dffc" d="M 676.5,608.5 C 682.149,611.806 687.816,615.139 693.5,618.5C 693.483,620.028 692.816,620.528 691.5,620C 685.663,616.582 679.996,612.916 674.5,609C 675.094,608.536 675.761,608.369 676.5,608.5 Z"/></g>
<g><path style="opacity:0.004" fill="#9ed8f6" d="M 136.5,614.5 C 137.833,615.167 137.833,615.167 136.5,614.5 Z"/></g>
<g><path style="opacity:0.012" fill="#9ed7f6" d="M 886.5,617.5 C 887.833,618.167 887.833,618.167 886.5,617.5 Z"/></g>
<g><path style="opacity:0.991" fill="#a3dffc" d="M 160.5,594.5 C 162.142,608.181 162.808,622.181 162.5,636.5C 162.649,637.552 162.483,638.552 162,639.5C 161.667,639.167 161.333,638.833 161,638.5C 160.417,629.834 159.917,621.167 159.5,612.5C 160.49,606.69 160.823,600.69 160.5,594.5 Z"/></g>
<g><path style="opacity:0.898" fill="#a4e0fd" d="M 271.5,684.5 C 266.763,672.712 259.763,662.378 250.5,653.5C 249.25,651.068 247.75,648.734 246,646.5C 244.899,644.606 243.566,643.939 242,644.5C 242.552,641.807 241.386,639.807 238.5,638.5C 234.55,632.281 229.883,626.614 224.5,621.5C 223.89,620.609 223.557,619.609 223.5,618.5C 223.435,618.062 223.601,617.728 224,617.5C 237.333,633.5 250.667,649.5 264,665.5C 268.958,671.74 271.958,678.74 273,686.5C 272.722,685.584 272.222,684.918 271.5,684.5 Z"/></g>
<g><path style="opacity:0.17" fill="#9fdafa" d="M 885.5,611.5 C 885.823,618.022 885.49,624.355 884.5,630.5C 883.876,630.083 883.543,629.416 883.5,628.5C 884.081,622.68 884.747,617.013 885.5,611.5 Z"/></g>
<g><path style="opacity:0.008" fill="#9ed8f7" d="M 886.5,621.5 C 887.833,622.167 887.833,622.167 886.5,621.5 Z"/></g>
<g><path style="opacity:0.004" fill="#9ed8f6" d="M 886.5,625.5 C 887.525,625.897 887.692,626.563 887,627.5C 886.536,626.906 886.369,626.239 886.5,625.5 Z"/></g>
<g><path style="opacity:0.004" fill="#9ed8f6" d="M 136.5,626.5 C 137.833,627.167 137.833,627.167 136.5,626.5 Z"/></g>
<g><path style="opacity:0.992" fill="#a3dffc" d="M 448.5,568.5 C 446.5,570.167 444.5,571.833 442.5,573.5C 433.963,577.716 425.963,582.716 418.5,588.5C 417.29,588.932 416.29,589.599 415.5,590.5C 403.32,597.086 391.653,604.419 380.5,612.5C 375.485,615.004 370.819,618.004 366.5,621.5C 350.229,631.112 334.229,641.112 318.5,651.5C 314.119,653.684 310.119,656.35 306.5,659.5C 302.827,661 299.494,663 296.5,665.5C 294.95,666.441 293.284,667.107 291.5,667.5C 290.761,667.631 290.094,667.464 289.5,667C 341.998,633.689 394.665,600.522 447.5,567.5C 448.107,567.624 448.44,567.957 448.5,568.5 Z"/></g>
<g><path style="opacity:0.004" fill="#9ed8f6" d="M 886.5,628.5 C 887.833,629.167 887.833,629.167 886.5,628.5 Z"/></g>
<g><path style="opacity:0.976" fill="#a5e1fd" d="M 248.5,615.5 C 254.5,622.5 260.5,629.5 266.5,636.5C 266.5,637.167 266.833,637.5 267.5,637.5C 267.427,639.027 268.094,640.027 269.5,640.5C 271.592,643.681 273.925,646.681 276.5,649.5C 274.61,649.703 273.11,649.037 272,647.5C 265.045,638.21 257.712,629.21 250,620.5C 249.365,619.034 248.531,617.7 247.5,616.5C 247.624,615.893 247.957,615.56 248.5,615.5 Z"/></g>
<g><path style="opacity:0.983" fill="#a4e0fc" d="M 854.5,551.5 C 845.924,562.321 837.59,573.321 829.5,584.5C 809.575,608.935 789.408,633.268 769,657.5C 767.579,659.405 766.412,661.405 765.5,663.5C 761.849,665.576 759.849,668.409 759.5,672C 757.867,672.48 756.534,673.313 755.5,674.5C 754.778,674.918 754.278,675.584 754,676.5C 753.405,675.101 753.572,673.768 754.5,672.5C 788.294,632.22 821.461,591.553 854,550.5C 854.399,550.728 854.565,551.062 854.5,551.5 Z"/></g>
<g><path style="opacity:0.993" fill="#a4e0fc" d="M 778.5,612.5 C 778.938,612.435 779.272,612.601 779.5,613C 768.701,626.964 757.368,640.464 745.5,653.5C 732.631,645.468 719.631,637.635 706.5,630C 703.01,627.089 699.344,624.422 695.5,622C 695.728,621.601 696.062,621.435 696.5,621.5C 707.528,627.768 718.362,634.435 729,641.5C 729.333,640.833 729.667,640.167 730,639.5C 733.473,644.128 737.973,647.462 743.5,649.5C 744.708,650.782 746.042,650.782 747.5,649.5C 750.524,645.482 753.524,641.482 756.5,637.5C 758.587,636.415 759.92,634.749 760.5,632.5C 766.5,625.833 772.5,619.167 778.5,612.5 Z"/></g>
<g><path style="opacity:0.992" fill="#a4e0fd" d="M 411.5,567.5 C 412.552,567.351 413.552,567.517 414.5,568C 369.9,595.605 325.566,623.605 281.5,652C 280.563,652.692 279.897,652.525 279.5,651.5C 292.995,642.251 306.662,633.251 320.5,624.5C 323.54,623.32 326.206,621.653 328.5,619.5C 334.459,616.193 340.125,612.527 345.5,608.5C 347.027,608.573 348.027,607.906 348.5,606.5C 358.846,600.663 368.846,594.33 378.5,587.5C 382.439,585.554 386.106,583.221 389.5,580.5C 397.135,576.682 404.469,572.349 411.5,567.5 Z"/></g>
<g><path style="opacity:0.006" fill="#9ed8f7" d="M 137.5,650.5 C 138.525,650.897 138.692,651.563 138,652.5C 137.536,651.906 137.369,651.239 137.5,650.5 Z"/></g>
<g><path style="opacity:0.047" fill="#a0dbfa" d="M 138.5,618.5 C 139.167,622.833 139.833,627.167 140.5,631.5C 141.092,634.127 141.425,636.794 141.5,639.5C 140.593,649.334 140.593,659.334 141.5,669.5C 140.683,667.031 140.183,664.365 140,661.5C 139.353,647.169 138.853,632.836 138.5,618.5 Z"/></g>
<g><path style="opacity:0.978" fill="#a5e1fd" d="M 863.5,628.5 C 862.763,639.141 862.263,649.808 862,660.5C 861.667,661.167 861.333,661.833 861,662.5C 860.971,659.674 860.805,657.007 860.5,654.5C 860.309,646.799 860.642,639.132 861.5,631.5C 862.167,630.5 862.833,629.5 863.5,628.5 Z"/></g>
<g><path style="opacity:0.012" fill="#9ed7f6" d="M 884.5,654.5 C 885.833,655.167 885.833,655.167 884.5,654.5 Z"/></g>
<g><path style="opacity:0.996" fill="#a4e0fd" d="M 726.5,692.5 C 728.833,685.167 731.167,677.833 733.5,670.5C 734.547,669.922 734.38,669.256 733,668.5C 732.617,669.056 732.117,669.389 731.5,669.5C 731.586,668.504 731.252,667.671 730.5,667C 717.306,658.571 703.972,650.405 690.5,642.5C 687.506,640 684.173,638 680.5,636.5C 673.126,631.14 665.459,626.14 657.5,621.5C 652.511,617.669 647.178,614.336 641.5,611.5C 641.167,610.167 640.833,610.167 640.5,611.5C 638.742,609.113 636.409,607.446 633.5,606.5C 633.167,605.167 632.833,605.167 632.5,606.5C 630.268,604.037 627.602,602.037 624.5,600.5C 624.5,599.833 624.167,599.5 623.5,599.5C 623.696,597.354 624.696,597.188 626.5,599C 661.774,621.552 697.274,643.719 733,665.5C 733.772,665.355 734.439,665.022 735,664.5C 735.311,666.556 735.811,668.556 736.5,670.5C 733.61,678.612 730.444,686.612 727,694.5C 726.536,693.906 726.369,693.239 726.5,692.5 Z"/></g>
<g><path style="opacity:0.982" fill="#a5e3fe" d="M 882.5,667.5 C 882.741,669.898 882.074,671.898 880.5,673.5C 879.903,673.265 879.57,672.765 879.5,672C 881.044,665.944 881.877,659.777 882,653.5C 882.499,658.155 882.666,662.821 882.5,667.5 Z"/></g>
<g><path style="opacity:0.012" fill="#9ed7f6" d="M 135.5,666.5 C 136.833,667.167 136.833,667.167 135.5,666.5 Z"/></g>
<g><path style="opacity:0.007" fill="#9ed7f7" d="M 173.5,673.5 C 173.202,670.664 173.869,670.164 175.5,672C 174.956,672.717 174.289,673.217 173.5,673.5 Z"/></g>
<g><path style="opacity:0.004" fill="#9ed8f6" d="M 883.5,670.5 C 884.833,671.167 884.833,671.167 883.5,670.5 Z"/></g>
<g><path style="opacity:0.006" fill="#9ed8f7" d="M 265.5,674.5 C 266.713,675.497 266.546,676.497 265,677.5C 263.205,676.281 263.372,675.281 265.5,674.5 Z"/></g>
<g><path style="opacity:0.004" fill="#9ed8f6" d="M 881.5,674.5 C 882.833,675.167 882.833,675.167 881.5,674.5 Z"/></g>
<g><path style="opacity:0.004" fill="#9ed8f6" d="M 880.5,676.5 C 881.833,677.167 881.833,677.167 880.5,676.5 Z"/></g>
<g><path style="opacity:0.643" fill="#a3dffc" d="M 879.5,675.5 C 877.087,679.314 874.421,682.981 871.5,686.5C 864.833,693.5 858.167,700.5 851.5,707.5C 850.761,707.631 850.094,707.464 849.5,707C 852.021,704.78 854.188,702.28 856,699.5C 863.703,690.638 871.536,682.638 879.5,675.5 Z"/></g>
<g><path style="opacity:0.008" fill="#9ed8f7" d="M 871.5,686.5 C 872.833,687.167 872.833,687.167 871.5,686.5 Z"/></g>
<g><path style="opacity:0.986" fill="#a4e1fd" d="M 753.5,679.5 C 751.23,687.31 748.563,694.977 745.5,702.5C 744.637,703.463 743.97,703.463 743.5,702.5C 746.565,694.139 749.732,685.805 753,677.5C 753.464,678.094 753.631,678.761 753.5,679.5 Z"/></g>
<g><path style="opacity:0.004" fill="#9ed8f6" d="M 156.5,690.5 C 155.833,691.167 155.833,691.167 156.5,690.5 Z"/></g>
<g><path style="opacity:0.004" fill="#9ed8f6" d="M 869.5,692.5 C 870.833,693.167 870.833,693.167 869.5,692.5 Z"/></g>
<g><path style="opacity:0.008" fill="#9ed8f7" d="M 159.5,698.5 C 160.833,699.167 160.833,699.167 159.5,698.5 Z"/></g>
<g><path style="opacity:0.008" fill="#9ed8f7" d="M 162.5,699.5 C 161.833,698.167 161.833,698.167 162.5,699.5 Z"/></g>
<g><path style="opacity:0.006" fill="#9ed8f7" d="M 162.5,700.5 C 162.5,700.167 162.5,699.833 162.5,699.5C 163.167,699.5 163.833,699.5 164.5,699.5C 164.158,700.338 163.492,700.672 162.5,700.5 Z"/></g>
<g><path style="opacity:0.004" fill="#9ed8f6" d="M 162.5,700.5 C 161.833,701.167 161.833,701.167 162.5,700.5 Z"/></g>
<g><path style="opacity:0.004" fill="#9ed8f6" d="M 858.5,701.5 C 859.833,702.167 859.833,702.167 858.5,701.5 Z"/></g>
<g><path style="opacity:0.004" fill="#9ed8f6" d="M 172.5,708.5 C 171.833,709.167 171.833,709.167 172.5,708.5 Z"/></g>
<g><path style="opacity:0.007" fill="#9ed8f7" d="M 211.5,711.5 C 212.289,711.783 212.956,712.283 213.5,713C 212.184,713.528 211.517,713.028 211.5,711.5 Z"/></g>
<g><path style="opacity:0.008" fill="#9ed8f7" d="M 176.5,712.5 C 175.833,713.167 175.833,713.167 176.5,712.5 Z"/></g>
<g><path style="opacity:1" fill="#a4e0fd" d="M 141.5,639.5 C 141.678,650.285 142.511,661.285 144,672.5C 169.564,701.724 195.73,730.557 222.5,759C 221.906,759.464 221.239,759.631 220.5,759.5C 219.833,759.167 219.167,758.833 218.5,758.5C 212.5,751.833 206.5,745.167 200.5,738.5C 199.167,736.5 197.5,734.833 195.5,733.5C 194.243,730.573 192.243,728.239 189.5,726.5C 188.5,724.833 187.167,723.5 185.5,722.5C 183.212,718.544 180.212,715.211 176.5,712.5C 175.5,710.833 174.167,709.5 172.5,708.5C 170.547,704.88 167.881,701.88 164.5,699.5C 162.176,696.177 159.509,693.177 156.5,690.5C 152.674,686.198 148.841,681.865 145,677.5C 143.007,675.182 141.841,672.516 141.5,669.5C 140.593,659.334 140.593,649.334 141.5,639.5 Z"/></g>
<g><path style="opacity:1" fill="#a4e0fc" d="M 163.5,650.5 C 164.08,654.81 164.414,659.143 164.5,663.5C 167.598,663.413 167.932,663.913 165.5,665C 167.667,668.333 170.334,671.166 173.5,673.5C 178.704,679.882 184.371,685.882 190.5,691.5C 191.124,693.754 192.457,695.421 194.5,696.5C 199.954,702.259 204.954,707.592 209.5,712.5C 214.139,718.739 219.472,724.406 225.5,729.5C 230.825,736.157 236.491,742.49 242.5,748.5C 243.167,749.833 244.167,750.833 245.5,751.5C 252.798,760.133 260.465,768.467 268.5,776.5C 268.5,777.167 268.833,777.5 269.5,777.5C 270.921,780.009 272.588,782.343 274.5,784.5C 274.565,784.938 274.399,785.272 274,785.5C 237.574,745.618 200.908,705.952 164,666.5C 162.164,664.257 161.664,661.924 162.5,659.5C 161.893,654.809 161.226,650.142 160.5,645.5C 160.846,644.304 161.346,644.304 162,645.5C 162.198,647.382 162.698,649.048 163.5,650.5 Z"/></g>
<g><path style="opacity:0.988" fill="#a4e0fd" d="M 284.5,718.5 C 282.226,714.286 280.226,709.953 278.5,705.5C 276.566,700.675 274.899,695.342 273.5,689.5C 273.369,688.761 273.536,688.094 274,687.5C 277.972,697.278 281.805,707.111 285.5,717C 285.43,717.765 285.097,718.265 284.5,718.5 Z"/></g>
<g><path style="opacity:0.004" fill="#9ed8f6" d="M 846.5,713.5 C 847.833,714.167 847.833,714.167 846.5,713.5 Z"/></g>
<g><path style="opacity:0.008" fill="#9ed8f7" d="M 175.5,714.5 C 176.833,715.167 176.833,715.167 175.5,714.5 Z"/></g>
<g><path style="opacity:0.979" fill="#a4e0fd" d="M 290.5,671.5 C 291.504,677.826 293.838,683.492 297.5,688.5C 296.957,688.56 296.624,688.893 296.5,689.5C 302.125,704.02 307.459,719.02 312.5,734.5C 312.631,735.239 312.464,735.906 312,736.5C 303.859,714.873 295.692,693.206 287.5,671.5C 288.233,670.913 289.233,670.913 290.5,671.5 Z"/></g>
<g><path style="opacity:0.008" fill="#9ed8f7" d="M 180.5,718.5 C 179.833,717.167 179.833,717.167 180.5,718.5 Z"/></g>
<g><path style="opacity:0.027" fill="#9ed8f7" d="M 180.5,718.5 C 181.833,719.167 181.833,719.167 180.5,718.5 Z"/></g>
<g><path style="opacity:0.986" fill="#a4e1fd" d="M 725.5,695.5 C 726.097,695.735 726.43,696.235 726.5,697C 721.863,709.911 717.03,722.744 712,735.5C 711.517,734.552 711.351,733.552 711.5,732.5C 711.629,730.784 711.962,729.117 712.5,727.5C 716.665,717.92 720.665,707.754 724.5,697C 723.288,695.893 723.621,695.393 725.5,695.5 Z"/></g>
<g><path style="opacity:0.986" fill="#a4e0fc" d="M 848.5,710.5 C 847.833,711.5 847.167,712.5 846.5,713.5C 840.861,719.474 835.195,725.474 829.5,731.5C 828.761,731.631 828.094,731.464 827.5,731C 834.333,723.5 841.167,716 848,708.5C 848.464,709.094 848.631,709.761 848.5,710.5 Z"/></g>
<g><path style="opacity:0.004" fill="#9ed8f6" d="M 185.5,722.5 C 184.833,723.167 184.833,723.167 185.5,722.5 Z"/></g>
<g><path style="opacity:0.98" fill="#a4e0fd" d="M 859.5,663.5 C 860.239,663.369 860.906,663.536 861.5,664C 836.063,692.441 810.23,720.607 784,748.5C 783.601,748.272 783.435,747.938 783.5,747.5C 784.167,746.5 784.833,745.5 785.5,744.5C 798.77,730.526 812.103,715.859 825.5,700.5C 830.843,695.156 835.843,689.489 840.5,683.5C 841.5,683.167 842.167,682.5 842.5,681.5C 844.833,679.833 846.833,677.833 848.5,675.5C 852.138,671.526 855.805,667.526 859.5,663.5 Z"/></g>
<g><path style="opacity:0.008" fill="#9ed8f7" d="M 189.5,726.5 C 188.833,727.167 188.833,727.167 189.5,726.5 Z"/></g>
<g><path style="opacity:0.8" fill="#a3e0fc" d="M 743.5,707.5 C 742.2,711.096 741.2,714.763 740.5,718.5C 737.795,723.596 735.462,728.929 733.5,734.5C 732.637,735.463 731.97,735.463 731.5,734.5C 735.056,724.389 738.889,714.389 743,704.5C 743.483,705.448 743.649,706.448 743.5,707.5 Z"/></g>
<g><path style="opacity:0.016" fill="#9ed8f7" d="M 195.5,733.5 C 194.833,734.167 194.833,734.167 195.5,733.5 Z"/></g>
<g><path style="opacity:0.004" fill="#9ed8f6" d="M 827.5,734.5 C 828.833,735.167 828.833,735.167 827.5,734.5 Z"/></g>
<g><path style="opacity:0.004" fill="#9ed8f6" d="M 200.5,738.5 C 199.833,739.167 199.833,739.167 200.5,738.5 Z"/></g>
<g><path style="opacity:0.016" fill="#9ed8f7" d="M 200.5,740.5 C 201.833,741.167 201.833,741.167 200.5,740.5 Z"/></g>
<g><path style="opacity:0.99" fill="#a5e2fd" d="M 314.5,738.5 C 315.784,741.402 316.784,744.402 317.5,747.5C 317.649,748.552 317.483,749.552 317,750.5C 315.402,746.539 313.902,742.539 312.5,738.5C 312.97,737.537 313.637,737.537 314.5,738.5 Z"/></g>
<g><path style="opacity:0.004" fill="#9ed8f6" d="M 814.5,749.5 C 815.833,750.167 815.833,750.167 814.5,749.5 Z"/></g>
<g><path style="opacity:0.004" fill="#9ed8f6" d="M 208.5,750.5 C 209.833,751.167 209.833,751.167 208.5,750.5 Z"/></g>
<g><path style="opacity:0.671" fill="#a4e0fd" d="M 679.5,819.5 C 686.11,799.802 693.11,780.636 700.5,762C 699.944,761.617 699.611,761.117 699.5,760.5C 700.79,759.942 701.623,758.942 702,757.5C 704.233,750.948 706.733,744.615 709.5,738.5C 710.222,738.082 710.722,737.416 711,736.5C 701.595,765.42 691.262,794.086 680,822.5C 679.517,821.552 679.351,820.552 679.5,819.5 Z"/></g>
<g><path style="opacity:1" fill="#aceafe" d="M 319.5,752.5 C 319.388,756.339 318.721,756.339 317.5,752.5C 317.97,751.537 318.637,751.537 319.5,752.5 Z"/></g>
<g><path style="opacity:0.004" fill="#9ed8f6" d="M 215.5,758.5 C 216.833,759.167 216.833,759.167 215.5,758.5 Z"/></g>
<g><path style="opacity:0.008" fill="#9ed8f7" d="M 218.5,758.5 C 217.833,759.167 217.833,759.167 218.5,758.5 Z"/></g>
<g><path style="opacity:0.004" fill="#9ed8f6" d="M 805.5,759.5 C 806.833,760.167 806.833,760.167 805.5,759.5 Z"/></g>
<g><path style="opacity:0.004" fill="#9ed8f6" d="M 801.5,762.5 C 802.833,763.167 802.833,763.167 801.5,762.5 Z"/></g>
<g><path style="opacity:0.975" fill="#a4e1fd" d="M 232.5,772.5 C 229.231,768.892 225.897,765.225 222.5,761.5C 222.897,760.475 223.563,760.308 224.5,761C 227.492,764.992 230.826,768.658 234.5,772C 233.906,772.464 233.239,772.631 232.5,772.5 Z"/></g>
<g><path style="opacity:1" fill="#a4e1fd" d="M 320.5,756.5 C 322.5,760.833 324.5,765.167 326.5,769.5C 327.167,772.167 327.833,774.833 328.5,777.5C 328.649,778.552 328.483,779.552 328,780.5C 325.299,772.935 322.466,765.435 319.5,758C 319.57,757.235 319.903,756.735 320.5,756.5 Z"/></g>
<g><path style="opacity:0.008" fill="#9ed8f7" d="M 797.5,767.5 C 798.833,768.167 798.833,768.167 797.5,767.5 Z"/></g>
<g><path style="opacity:0.012" fill="#9ed7f6" d="M 797.5,768.5 C 796.833,769.167 796.833,769.167 797.5,768.5 Z"/></g>
<g><path style="opacity:0.98" fill="#a5e1fd" d="M 731.5,739.5 C 731.414,740.496 731.748,741.329 732.5,742C 728.727,746.799 726.393,752.299 725.5,758.5C 721.733,766.126 718.733,774.126 716.5,782.5C 712.794,790.603 709.461,798.936 706.5,807.5C 705.624,807.631 704.957,807.298 704.5,806.5C 713.611,783.277 722.444,759.943 731,736.5C 731.483,737.448 731.649,738.448 731.5,739.5 Z"/></g>
<g><path style="opacity:0.012" fill="#9ed7f6" d="M 229.5,774.5 C 230.833,775.167 230.833,775.167 229.5,774.5 Z"/></g>
<g><path style="opacity:0.008" fill="#9ed8f7" d="M 788.5,776.5 C 789.833,777.167 789.833,777.167 788.5,776.5 Z"/></g>
<g><path style="opacity:0.975" fill="#a4e0fc" d="M 314.5,800.5 C 311.167,792.167 307.833,783.833 304.5,775.5C 302.679,768.191 300.345,762.191 297.5,757.5C 297.737,756.209 297.404,755.209 296.5,754.5C 293.3,744.588 289.633,734.588 285.5,724.5C 285.5,723.5 285.5,722.5 285.5,721.5C 285.393,719.621 285.893,719.288 287,720.5C 296.549,747.266 306.382,773.932 316.5,800.5C 316.03,801.463 315.363,801.463 314.5,800.5 Z"/></g>
<g><path style="opacity:0.016" fill="#9ed8f7" d="M 235.5,778.5 C 236.833,779.167 236.833,779.167 235.5,778.5 Z"/></g>
<g><path style="opacity:0.004" fill="#9ed8f6" d="M 787.5,778.5 C 788.833,779.167 788.833,779.167 787.5,778.5 Z"/></g>
<g><path style="opacity:0.008" fill="#9ed8f7" d="M 787.5,779.5 C 786.833,780.167 786.833,780.167 787.5,779.5 Z"/></g>
<g><path style="opacity:0.993" fill="#a3e0fc" d="M 779.5,751.5 C 780.239,751.369 780.906,751.536 781.5,752C 768,766.833 754.5,781.667 741,796.5C 740.536,795.906 740.369,795.239 740.5,794.5C 740.833,793.833 741.167,793.167 741.5,792.5C 744.2,790.766 746.2,788.432 747.5,785.5C 752.289,781.255 756.622,776.589 760.5,771.5C 766.833,764.833 773.167,758.167 779.5,751.5 Z"/></g>
<g><path style="opacity:0.012" fill="#9ed7f6" d="M 781.5,784.5 C 782.833,785.167 782.833,785.167 781.5,784.5 Z"/></g>
<g><path style="opacity:0.016" fill="#9ed8f7" d="M 779.5,786.5 C 780.833,787.167 780.833,787.167 779.5,786.5 Z"/></g>
<g><path style="opacity:0.004" fill="#9ed8f6" d="M 781.5,786.5 C 782.833,787.167 782.833,787.167 781.5,786.5 Z"/></g>
<g><path style="opacity:0.983" fill="#a4e0fd" d="M 329.5,780.5 C 331.737,784.534 333.404,788.868 334.5,793.5C 334.649,794.552 334.483,795.552 334,796.5C 331.207,791.303 329.707,785.97 329.5,780.5 Z"/></g>
<g><path style="opacity:0.004" fill="#9ed8f6" d="M 778.5,788.5 C 779.833,789.167 779.833,789.167 778.5,788.5 Z"/></g>
<g><path style="opacity:0.004" fill="#9ed8f6" d="M 244.5,789.5 C 245.833,790.167 245.833,790.167 244.5,789.5 Z"/></g>
<g><path style="opacity:0.008" fill="#9ed8f7" d="M 248.5,794.5 C 249.833,795.167 249.833,795.167 248.5,794.5 Z"/></g>
<g><path style="opacity:0.012" fill="#9ed7f6" d="M 252.5,795.5 C 251.833,796.167 251.833,796.167 252.5,795.5 Z"/></g>
<g><path style="opacity:0.985" fill="#a4e0fd" d="M 280.5,791.5 C 288.5,799.833 296.5,808.167 304.5,816.5C 309.968,823.054 315.635,829.388 321.5,835.5C 322.833,837.5 324.5,839.167 326.5,840.5C 326.5,841.167 326.833,841.5 327.5,841.5C 328.604,843.389 329.937,845.055 331.5,846.5C 330.962,844.883 330.629,843.216 330.5,841.5C 330.393,839.621 330.893,839.288 332,840.5C 333.029,843.39 334.195,846.224 335.5,849C 333.126,852.634 331.459,852.3 330.5,848C 313.667,829.833 296.833,811.667 280,793.5C 279.308,792.563 279.475,791.897 280.5,791.5 Z"/></g>
<g><path style="opacity:0.994" fill="#a3e0fc" d="M 347.5,894.5 C 346.193,893.847 344.86,893.18 343.5,892.5C 339.146,887.479 334.479,882.812 329.5,878.5C 319.839,867.506 309.839,856.839 299.5,846.5C 297.547,842.88 294.881,839.88 291.5,837.5C 291.167,836.5 290.5,835.833 289.5,835.5C 289.5,834.833 289.167,834.5 288.5,834.5C 287.164,832.99 285.997,831.323 285,829.5C 284.184,828.177 283.017,827.511 281.5,827.5C 280.92,825.251 279.587,823.585 277.5,822.5C 276.5,820.833 275.167,819.5 273.5,818.5C 272.92,816.251 271.587,814.585 269.5,813.5C 268.167,812.167 266.833,810.833 265.5,809.5C 261.845,804.179 257.512,799.513 252.5,795.5C 246.796,788.802 241.13,782.135 235.5,775.5C 235.369,774.761 235.536,774.094 236,773.5C 273.742,814.684 310.909,855.017 347.5,894.5 Z"/></g>
<g><path style="opacity:0.004" fill="#9ed8f6" d="M 772.5,798.5 C 773.833,799.167 773.833,799.167 772.5,798.5 Z"/></g>
<g><path style="opacity:0.004" fill="#9ed8f6" d="M 731.5,801.5 C 731.517,799.972 732.184,799.472 733.5,800C 732.956,800.717 732.289,801.217 731.5,801.5 Z"/></g>
<g><path style="opacity:0.008" fill="#9ed8f7" d="M 257.5,802.5 C 258.833,803.167 258.833,803.167 257.5,802.5 Z"/></g>
<g><path style="opacity:0.965" fill="#a4e1fd" d="M 738.5,797.5 C 738.938,797.435 739.272,797.601 739.5,798C 730.216,808.072 721.05,818.239 712,828.5C 711.536,827.906 711.369,827.239 711.5,826.5C 712.167,825.5 712.833,824.5 713.5,823.5C 716.635,821.24 718.802,818.24 720,814.5C 720.333,814.833 720.667,815.167 721,815.5C 725.477,811.837 728.977,807.504 731.5,802.5C 733.792,800.89 736.125,799.224 738.5,797.5 Z"/></g>
<g><path style="opacity:0.008" fill="#9ed7f7" d="M 299.5,809.5 C 300.077,808.227 300.743,808.227 301.5,809.5C 301.03,810.463 300.363,810.463 299.5,809.5 Z"/></g>
<g><path style="opacity:0.008" fill="#9ed7f7" d="M 265.5,809.5 C 265.103,810.525 264.437,810.692 263.5,810C 264.094,809.536 264.761,809.369 265.5,809.5 Z"/></g>
<g><path style="opacity:0.008" fill="#9ed8f7" d="M 263.5,813.5 C 264.833,814.167 264.833,814.167 263.5,813.5 Z"/></g>
<g><path style="opacity:0.008" fill="#9ed8f7" d="M 269.5,813.5 C 268.833,814.167 268.833,814.167 269.5,813.5 Z"/></g>
<g><path style="opacity:0.978" fill="#a4e0fc" d="M 328.5,838.5 C 327.313,835.388 325.98,832.388 324.5,829.5C 324.737,828.209 324.404,827.209 323.5,826.5C 323.02,823.557 322.02,820.89 320.5,818.5C 319.733,814.851 318.4,811.518 316.5,808.5C 316.5,807.5 316.5,806.5 316.5,805.5C 316.413,802.402 316.913,802.068 318,804.5C 321.578,815.568 325.745,826.402 330.5,837C 330.164,838.03 329.497,838.53 328.5,838.5 Z"/></g>
<g><path style="opacity:0.004" fill="#9ed8f6" d="M 273.5,818.5 C 272.833,819.167 272.833,819.167 273.5,818.5 Z"/></g>
<g><path style="opacity:0.012" fill="#9ed7f6" d="M 277.5,822.5 C 276.833,823.167 276.833,823.167 277.5,822.5 Z"/></g>
<g><path style="opacity:0.004" fill="#9ed8f6" d="M 281.5,827.5 C 280.833,828.167 280.833,828.167 281.5,827.5 Z"/></g>
<g><path style="opacity:0.004" fill="#9ed8f6" d="M 282.5,829.5 C 283.833,830.167 283.833,830.167 282.5,829.5 Z"/></g>
<g><path style="opacity:0.004" fill="#9ed8f6" d="M 280.5,830.5 C 281.833,831.167 281.833,831.167 280.5,830.5 Z"/></g>
<g><path style="opacity:0.996" fill="#a3e0fc" d="M 704.5,811.5 C 703.801,814.573 702.801,817.573 701.5,820.5C 698.216,828.672 695.216,837.339 692.5,846.5C 694.682,843.397 697.349,840.73 700.5,838.5C 701.239,838.369 701.906,838.536 702.5,839C 698.623,842.708 694.957,846.542 691.5,850.5C 690.575,849.359 689.741,849.359 689,850.5C 689.148,849.175 688.982,848.008 688.5,847C 694.349,834.464 699.516,821.631 704,808.5C 704.483,809.448 704.649,810.448 704.5,811.5 Z"/></g>
<g><path style="opacity:0.999" fill="#a5e1fd" d="M 708.5,830.5 C 708.938,830.435 709.272,830.601 709.5,831C 707.548,833.074 705.715,835.241 704,837.5C 703.536,836.906 703.369,836.239 703.5,835.5C 704.833,833.5 706.5,831.833 708.5,830.5 Z"/></g>
<g><path style="opacity:0.01" fill="#9ed8f7" d="M 288.5,834.5 C 289.167,834.5 289.5,834.833 289.5,835.5C 289.44,836.043 289.107,836.376 288.5,836.5C 287.227,835.743 287.227,835.077 288.5,834.5 Z"/></g>
<g><path style="opacity:0.978" fill="#a5e1fd" d="M 663.5,863.5 C 665.159,858.177 666.826,852.844 668.5,847.5C 671.676,839.983 674.676,832.316 677.5,824.5C 679.353,823.386 679.853,824.052 679,826.5C 674,839.5 669,852.5 664,865.5C 663.536,864.906 663.369,864.239 663.5,863.5 Z"/></g>
<g><path style="opacity:0.004" fill="#9ed8f6" d="M 291.5,837.5 C 290.833,838.167 290.833,838.167 291.5,837.5 Z"/></g>
<g><path style="opacity:0.008" fill="#9ed8f7" d="M 732.5,837.5 C 733.833,838.167 733.833,838.167 732.5,837.5 Z"/></g>
<g><path style="opacity:0.004" fill="#9ed8f6" d="M 292.5,840.5 C 293.833,841.167 293.833,841.167 292.5,840.5 Z"/></g>
<g><path style="opacity:0.957" fill="#a3e0fc" d="M 826.5,734.5 C 818.167,743.833 809.833,753.167 801.5,762.5C 799.413,763.585 798.08,765.251 797.5,767.5C 794.215,770.118 791.215,773.118 788.5,776.5C 786.177,779.126 783.843,781.793 781.5,784.5C 780.5,784.833 779.833,785.5 779.5,786.5C 763.522,803.148 747.855,820.148 732.5,837.5C 715.394,855.443 698.394,873.61 681.5,892C 679.182,893.993 676.516,895.159 673.5,895.5C 672.761,895.631 672.094,895.464 671.5,895C 674.167,893.667 676.833,892.333 679.5,891C 689.552,880.404 699.718,869.904 710,859.5C 747.603,817.56 785.603,775.893 824,734.5C 825.392,732.158 826.225,732.158 826.5,734.5 Z"/></g>
<g><path style="opacity:0.012" fill="#9ed7f6" d="M 299.5,846.5 C 298.833,847.167 298.833,847.167 299.5,846.5 Z"/></g>
<g><path style="opacity:1" fill="#a4e0fd" d="M 337.5,801.5 C 346.514,824.565 354.847,847.565 362.5,870.5C 362.5,871.167 362.5,871.833 362.5,872.5C 352.952,849.211 343.952,825.544 335.5,801.5C 335.97,800.537 336.637,800.537 337.5,801.5 Z"/></g>
<g><path style="opacity:0.004" fill="#9ed8f6" d="M 306.5,856.5 C 307.833,857.167 307.833,857.167 306.5,856.5 Z"/></g>
<g><path style="opacity:0.004" fill="#9ed8f6" d="M 311.5,862.5 C 312.833,863.167 312.833,863.167 311.5,862.5 Z"/></g>
<g><path style="opacity:0.004" fill="#9ed8f6" d="M 317.5,870.5 C 318.833,871.167 318.833,871.167 317.5,870.5 Z"/></g>
<g><path style="opacity:0.004" fill="#9ed8f6" d="M 320.5,870.5 C 321.833,871.167 321.833,871.167 320.5,870.5 Z"/></g>
<g><path style="opacity:0.381" fill="#9ed9f8" d="M 362.5,870.5 C 364.343,869.957 366.01,870.624 367.5,872.5C 463.312,871.74 559.646,871.74 656.5,872.5C 558.627,873.83 460.627,873.83 362.5,872.5C 362.5,871.833 362.5,871.167 362.5,870.5 Z"/></g>
<g><path style="opacity:1" fill="#a9e5fe" d="M 662.5,866.5 C 663.097,866.735 663.43,867.235 663.5,868C 663.248,870.809 661.915,872.809 659.5,874C 644.17,874.5 628.837,874.667 613.5,874.5C 582.167,874.5 550.833,874.5 519.5,874.5C 505.167,874.5 490.833,874.5 476.5,874.5C 455.5,874.5 434.5,874.5 413.5,874.5C 396.83,874.667 380.163,874.5 363.5,874C 362.944,873.617 362.611,873.117 362.5,872.5C 460.627,873.83 558.627,873.83 656.5,872.5C 657.688,871.952 658.855,871.619 660,871.5C 660.757,869.685 661.59,868.019 662.5,866.5 Z"/></g>
<g><path style="opacity:0.982" fill="#9ad8fd" d="M 413.5,874.5 C 434.5,874.5 455.5,874.5 476.5,874.5C 474.782,875.224 472.948,875.891 471,876.5C 452.015,875.482 433.348,875.482 415,876.5C 414.283,875.956 413.783,875.289 413.5,874.5 Z"/></g>
<g><path style="opacity:0.981" fill="#9ad7fd" d="M 519.5,874.5 C 550.833,874.5 582.167,874.5 613.5,874.5C 608.767,875.19 603.934,875.856 599,876.5C 572.706,875.83 546.372,875.83 520,876.5C 519.536,875.906 519.369,875.239 519.5,874.5 Z"/></g>
<g><path style="opacity:0.004" fill="#9ed8f6" d="M 699.5,874.5 C 700.525,874.897 700.692,875.563 700,876.5C 699.536,875.906 699.369,875.239 699.5,874.5 Z"/></g>
<g><path style="opacity:0.027" fill="#9ed8f7" d="M 329.5,878.5 C 328.833,879.167 328.833,879.167 329.5,878.5 Z"/></g>
<g><path style="opacity:0.004" fill="#9ed8f6" d="M 327.5,882.5 C 328.833,883.167 328.833,883.167 327.5,882.5 Z"/></g>
<g><path style="opacity:0.004" fill="#9ed8f6" d="M -0.5,890.5 C 0.833333,891.167 0.833333,891.167 -0.5,890.5 Z"/></g>
<g><path style="opacity:0.008" fill="#9ed8f7" d="M 335.5,890.5 C 336.833,891.167 336.833,891.167 335.5,890.5 Z"/></g>
<g><path style="opacity:0.008" fill="#9ed8f7" d="M 680.5,893.5 C 681.833,894.167 681.833,894.167 680.5,893.5 Z"/></g>
<g><path style="opacity:0.008" fill="#9ed8f7" d="M 344.5,894.5 C 345.833,895.167 345.833,895.167 344.5,894.5 Z"/></g>
<g><path style="opacity:0.027" fill="#9dd7f7" d="M 664.5,896.5 C 646.833,897.833 629.167,897.833 611.5,896.5C 629.312,896.276 646.979,896.276 664.5,896.5 Z"/></g>
<g><path style="opacity:0.004" fill="#9ed8f6" d="M 358.5,898.5 C 359.833,899.167 359.833,899.167 358.5,898.5 Z"/></g>
<g><path style="opacity:0.012" fill="#9ed7f6" d="M 377.5,898.5 C 378.833,899.167 378.833,899.167 377.5,898.5 Z"/></g>
<g><path style="opacity:0.004" fill="#9ed8f6" d="M 398.5,898.5 C 399.833,899.167 399.833,899.167 398.5,898.5 Z"/></g>
<g><path style="opacity:0.008" fill="#9ed8f7" d="M 438.5,898.5 C 439.833,899.167 439.833,899.167 438.5,898.5 Z"/></g>
<g><path style="opacity:0.004" fill="#9ed8f6" d="M 478.5,898.5 C 479.833,899.167 479.833,899.167 478.5,898.5 Z"/></g>
<g><path style="opacity:0.004" fill="#9ed8f6" d="M 486.5,898.5 C 487.833,899.167 487.833,899.167 486.5,898.5 Z"/></g>
<g><path style="opacity:0.012" fill="#9ed7f6" d="M 518.5,898.5 C 519.833,899.167 519.833,899.167 518.5,898.5 Z"/></g>
<g><path style="opacity:0.004" fill="#9ed8f6" d="M 523.5,898.5 C 524.833,899.167 524.833,899.167 523.5,898.5 Z"/></g>
<g><path style="opacity:0.008" fill="#9ed8f7" d="M 542.5,898.5 C 543.833,899.167 543.833,899.167 542.5,898.5 Z"/></g>
<g><path style="opacity:0.004" fill="#9ed8f6" d="M 595.5,898.5 C 596.833,899.167 596.833,899.167 595.5,898.5 Z"/></g>
<g><path style="opacity:0.004" fill="#9ed8f6" d="M 598.5,898.5 C 599.833,899.167 599.833,899.167 598.5,898.5 Z"/></g>
<g><path style="opacity:0.004" fill="#9ed8f6" d="M 622.5,898.5 C 623.833,899.167 623.833,899.167 622.5,898.5 Z"/></g>
<g><path style="opacity:0.004" fill="#9ed8f6" d="M 629.5,898.5 C 630.833,899.167 630.833,899.167 629.5,898.5 Z"/></g>
<g><path style="opacity:0.004" fill="#9ed8f6" d="M 665.5,898.5 C 666.833,899.167 666.833,899.167 665.5,898.5 Z"/></g>
<g><path style="opacity:0.004" fill="#9ed8f6" d="M 502.5,900.5 C 503.833,901.167 503.833,901.167 502.5,900.5 Z"/></g>
<g><path style="opacity:0.004" fill="#9ed8f6" d="M 411.5,901.5 C 412.833,902.167 412.833,902.167 411.5,901.5 Z"/></g>
</svg>
