<?xml version="1.0" encoding="UTF-8"?>
<!DOCTYPE svg PUBLIC "-//W3C//DTD SVG 1.1//EN" "http://www.w3.org/Graphics/SVG/1.1/DTD/svg11.dtd">
<svg xmlns="http://www.w3.org/2000/svg" version="1.1" width="1024px" height="1024px" style="shape-rendering:geometricPrecision; text-rendering:geometricPrecision; image-rendering:optimizeQuality; fill-rule:evenodd; clip-rule:evenodd" xmlns:xlink="http://www.w3.org/1999/xlink">
<g><path style="opacity:0.004" fill="#98c9f9" d="M 189.5,190.5 C 190.833,191.167 190.833,191.167 189.5,190.5 Z"/></g>
<g><path style="opacity:0.004" fill="#98c9f9" d="M 510.5,192.5 C 511.833,193.167 511.833,193.167 510.5,192.5 Z"/></g>
<g><path style="opacity:0.008" fill="#99cbfc" d="M 518.5,194.5 C 519.833,195.167 519.833,195.167 518.5,194.5 Z"/></g>
<g><path style="opacity:0.978" fill="#9bd0fe" d="M 508.5,195.5 C 511.829,195.264 514.829,196.097 517.5,198C 516.324,199.914 515.324,199.748 514.5,197.5C 513.549,198.326 512.549,198.492 511.5,198C 512.696,197.346 512.696,196.846 511.5,196.5C 509.885,197.154 508.218,197.654 506.5,198C 504.212,200.743 502.045,203.577 500,206.5C 499.536,205.906 499.369,205.239 499.5,204.5C 500.372,200.075 503.372,197.075 508.5,195.5 Z"/></g>
<g><path style="opacity:0.994" fill="#95cbfe" d="M 508.5,195.5 C 513.912,193.699 518.079,195.365 521,200.5C 522.666,199.66 522.833,200.16 521.5,202C 522.044,202.717 522.711,203.217 523.5,203.5C 527.085,211.011 531.418,218.011 536.5,224.5C 537.669,227.511 539.336,230.178 541.5,232.5C 549.05,246.37 557.383,259.704 566.5,272.5C 573.086,284.68 580.419,296.347 588.5,307.5C 598.752,325.679 609.752,343.345 621.5,360.5C 628.833,372.833 636.167,385.167 643.5,397.5C 642.352,396.105 641.352,396.272 640.5,398C 645.943,402.656 648.276,408.323 647.5,415C 648.931,415.465 650.097,416.299 651,417.5C 651.535,415.729 652.369,415.396 653.5,416.5C 658.559,424.54 662.892,431.54 666.5,437.5C 666.291,438.086 665.957,438.586 665.5,439C 667.667,440.5 669.5,442.333 671,444.5C 671.464,443.906 671.631,443.239 671.5,442.5C 672.167,442.833 672.833,443.167 673.5,443.5C 689.008,470.628 705.341,496.628 722.5,521.5C 726.5,528.833 730.5,536.167 734.5,543.5C 733.115,542.426 731.949,541.093 731,539.5C 730.25,540.126 729.416,540.626 728.5,541C 730.847,541.846 732.68,543.346 734,545.5C 737,550.167 740,554.833 743,559.5C 743.087,563.109 743.921,566.609 745.5,570C 745.333,570.5 745.167,571 745,571.5C 744.333,570.167 743.667,570.167 743,571.5C 742.667,572.5 742.333,573.5 742,574.5C 740.235,575.239 738.235,575.239 736,574.5C 735.805,575.819 735.972,577.153 736.5,578.5C 713.205,542.604 690.372,506.271 668,469.5C 663.393,462.164 658.227,454.164 652.5,445.5C 652.5,444.833 652.167,444.5 651.5,444.5C 608.276,373.702 564.776,304.035 521,235.5C 520.5,236 520,236.5 519.5,237C 520.332,338.097 520.832,439.263 521,540.5C 545.135,553.147 568.969,566.147 592.5,579.5C 590.235,580.94 590.068,582.607 592,584.5C 592.718,583.549 593.551,583.383 594.5,584C 593.672,584.915 592.672,585.581 591.5,586C 592.833,587.667 594.167,589.333 595.5,591C 593.915,593.744 591.915,595.911 589.5,597.5C 563.978,584.145 538.145,570.478 512,556.5C 488.733,568.258 465.566,580.258 442.5,592.5C 442.611,591.883 442.944,591.383 443.5,591C 442.354,590.355 441.354,589.522 440.5,588.5C 439.667,589.5 438.833,590.5 438,591.5C 437.667,590.833 437.333,590.167 437,589.5C 436.316,590.784 436.483,591.951 437.5,593C 436.034,593.635 434.7,594.469 433.5,595.5C 432.8,592.985 431.467,592.318 429.5,593.5C 428.833,592.5 428.167,591.5 427.5,590.5C 425.815,591.509 424.482,591.009 423.5,589C 423.905,588.055 424.572,587.388 425.5,587C 422.736,585.456 422.903,584.289 426,583.5C 426.451,585.929 427.285,586.096 428.5,584C 428.167,583.667 427.833,583.333 427.5,583C 429.01,582.15 430.51,581.317 432,580.5C 433.057,581.627 434.223,582.127 435.5,582C 434.978,581.439 434.645,580.772 434.5,580C 435.858,578.311 437.525,576.978 439.5,576C 441.5,576.333 443.5,576.667 445.5,577C 444.833,576.667 444.167,576.333 443.5,576C 446.152,572.093 449.652,570.26 454,570.5C 454.318,568.939 455.151,567.772 456.5,567C 455.906,566.536 455.239,566.369 454.5,566.5C 467.784,558.52 481.45,551.02 495.5,544C 498.305,542.618 500.639,540.784 502.5,538.5C 502.5,539.167 502.5,539.833 502.5,540.5C 502.56,541.043 502.893,541.376 503.5,541.5C 504.832,468.668 504.832,396.001 503.5,323.5C 503.831,295.328 503.498,267.328 502.5,239.5C 500.075,239.316 500.075,238.649 502.5,237.5C 502.192,236.692 501.692,236.025 501,235.5C 447.032,322.606 392.532,409.273 337.5,495.5C 337.631,494.761 337.464,494.094 337,493.5C 335.638,496.236 333.804,498.569 331.5,500.5C 330.749,499.624 330.249,498.624 330,497.5C 327.397,499.456 325.064,498.789 323,495.5C 321.68,497.583 320.346,497.249 319,494.5C 318.617,495.056 318.117,495.389 317.5,495.5C 318.758,493.313 319.758,490.98 320.5,488.5C 325.247,482.681 329.247,476.348 332.5,469.5C 342.741,454.603 352.075,439.603 360.5,424.5C 364.553,419.108 368.22,413.441 371.5,407.5C 398.998,364.511 425.998,321.177 452.5,277.5C 468.423,253.318 484.09,228.984 499.5,204.5C 499.369,205.239 499.536,205.906 500,206.5C 502.045,203.577 504.212,200.743 506.5,198C 508.218,197.654 509.885,197.154 511.5,196.5C 512.696,196.846 512.696,197.346 511.5,198C 512.549,198.492 513.549,198.326 514.5,197.5C 515.324,199.748 516.324,199.914 517.5,198C 514.829,196.097 511.829,195.264 508.5,195.5 Z"/></g>
<g><path style="opacity:0.004" fill="#98c9f9" d="M 496.5,202.5 C 497.833,203.167 497.833,203.167 496.5,202.5 Z"/></g>
<g><path style="opacity:0.004" fill="#98c9f9" d="M 523.5,202.5 C 524.833,203.167 524.833,203.167 523.5,202.5 Z"/></g>
<g><path style="opacity:0.008" fill="#99cbfc" d="M 491.5,212.5 C 492.833,213.167 492.833,213.167 491.5,212.5 Z"/></g>
<g><path style="opacity:0.008" fill="#99cbfc" d="M 487.5,218.5 C 488.833,219.167 488.833,219.167 487.5,218.5 Z"/></g>
<g><path style="opacity:0.008" fill="#99cbfc" d="M 481.5,223.5 C 482.833,224.167 482.833,224.167 481.5,223.5 Z"/></g>
<g><path style="opacity:0.004" fill="#98c9f9" d="M 536.5,223.5 C 537.833,224.167 537.833,224.167 536.5,223.5 Z"/></g>
<g><path style="opacity:0.012" fill="#99cafa" d="M 481.5,227.5 C 482.525,227.897 482.692,228.563 482,229.5C 481.536,228.906 481.369,228.239 481.5,227.5 Z"/></g>
<g><path style="opacity:0.012" fill="#9accfc" d="M 541.5,231.5 C 542.833,232.167 542.833,232.167 541.5,231.5 Z"/></g>
<g><path style="opacity:0.004" fill="#98c9f9" d="M 550.5,245.5 C 551.833,246.167 551.833,246.167 550.5,245.5 Z"/></g>
<g><path style="opacity:0.004" fill="#98c9f9" d="M 557.5,249.5 C 558.833,250.167 558.833,250.167 557.5,249.5 Z"/></g>
<g><path style="opacity:0.004" fill="#98c9f9" d="M 556.5,254.5 C 557.833,255.167 557.833,255.167 556.5,254.5 Z"/></g>
<g><path style="opacity:0.016" fill="#9ccdfd" d="M 463.5,256.5 C 464.833,257.167 464.833,257.167 463.5,256.5 Z"/></g>
<g><path style="opacity:0.004" fill="#98c9f9" d="M 566.5,271.5 C 567.833,272.167 567.833,272.167 566.5,271.5 Z"/></g>
<g><path style="opacity:0.004" fill="#98c9f9" d="M 573.5,272.5 C 574.833,273.167 574.833,273.167 573.5,272.5 Z"/></g>
<g><path style="opacity:0.008" fill="#99cbfc" d="M 452.5,277.5 C 451.833,276.167 451.833,276.167 452.5,277.5 Z"/></g>
<g><path style="opacity:0.995" fill="#9ed7ff" d="M 517.5,232.5 C 518.666,334.999 518.833,437.666 518,540.5C 517.5,540 517,539.5 516.5,539C 517.499,436.904 517.832,334.737 517.5,232.5 Z"/></g>
<g><path style="opacity:0.004" fill="#98c9f9" d="M 444.5,287.5 C 445.833,288.167 445.833,288.167 444.5,287.5 Z"/></g>
<g><path style="opacity:0.004" fill="#98c9f9" d="M 436.5,299.5 C 437.833,300.167 437.833,300.167 436.5,299.5 Z"/></g>
<g><path style="opacity:0.008" fill="#99cbfc" d="M 585.5,301.5 C 586.833,302.167 586.833,302.167 585.5,301.5 Z"/></g>
<g><path style="opacity:0.01" fill="#99cbfc" d="M 431.5,307.5 C 431.897,306.475 432.563,306.308 433.5,307C 432.906,307.464 432.239,307.631 431.5,307.5 Z"/></g>
<g><path style="opacity:0.004" fill="#98c9f9" d="M 588.5,306.5 C 589.833,307.167 589.833,307.167 588.5,306.5 Z"/></g>
<g><path style="opacity:0.004" fill="#98c9f9" d="M 428.5,312.5 C 429.833,313.167 429.833,313.167 428.5,312.5 Z"/></g>
<g><path style="opacity:0.004" fill="#98c9f9" d="M 424.5,315.5 C 425.833,316.167 425.833,316.167 424.5,315.5 Z"/></g>
<g><path style="opacity:0.004" fill="#98c9f9" d="M 423.5,317.5 C 424.833,318.167 424.833,318.167 423.5,317.5 Z"/></g>
<g><path style="opacity:0.012" fill="#9accfc" d="M 423.5,320.5 C 424.833,321.167 424.833,321.167 423.5,320.5 Z"/></g>
<g><path style="opacity:0.004" fill="#98c9f9" d="M 415.5,328.5 C 416.833,329.167 416.833,329.167 415.5,328.5 Z"/></g>
<g><path style="opacity:0.008" fill="#99cbfc" d="M 407.5,336.5 C 408.833,337.167 408.833,337.167 407.5,336.5 Z"/></g>
<g><path style="opacity:0.004" fill="#98c9f9" d="M 614.5,347.5 C 615.833,348.167 615.833,348.167 614.5,347.5 Z"/></g>
<g><path style="opacity:0.008" fill="#99cbfc" d="M 401.5,353.5 C 402.833,354.167 402.833,354.167 401.5,353.5 Z"/></g>
<g><path style="opacity:0.016" fill="#9acbfb" d="M 399.5,357.5 C 400.525,357.897 400.692,358.563 400,359.5C 399.536,358.906 399.369,358.239 399.5,357.5 Z"/></g>
<g><path style="opacity:0.004" fill="#98c9f9" d="M 621.5,359.5 C 622.833,360.167 622.833,360.167 621.5,359.5 Z"/></g>
<g><path style="opacity:0.9" fill="#90c2f9" d="M 502.5,239.5 C 503.498,267.328 503.831,295.328 503.5,323.5C 503.833,396.002 503.499,468.335 502.5,540.5C 502.5,539.833 502.5,539.167 502.5,538.5C 501.339,530.919 501.339,523.419 502.5,516C 502.245,514.674 501.578,513.674 500.5,513C 501.718,511.562 502.385,509.895 502.5,508C 501.87,418.89 501.87,329.39 502.5,239.5 Z"/></g>
<g><path style="opacity:0.004" fill="#98c9f9" d="M 633.5,376.5 C 634.833,377.167 634.833,377.167 633.5,376.5 Z"/></g>
<g><path style="opacity:0.004" fill="#98c9f9" d="M 383.5,384.5 C 384.833,385.167 384.833,385.167 383.5,384.5 Z"/></g>
<g><path style="opacity:0.008" fill="#99cbfc" d="M 644.5,391.5 C 645.833,392.167 645.833,392.167 644.5,391.5 Z"/></g>
<g><path style="opacity:0.004" fill="#98c9f9" d="M 367.5,399.5 C 368.833,400.167 368.833,400.167 367.5,399.5 Z"/></g>
<g><path style="opacity:0.004" fill="#98c9f9" d="M 370.5,400.5 C 371.833,401.167 371.833,401.167 370.5,400.5 Z"/></g>
<g><path style="opacity:0.004" fill="#98c9f9" d="M 369.5,402.5 C 370.833,403.167 370.833,403.167 369.5,402.5 Z"/></g>
<g><path style="opacity:0.004" fill="#98c9f9" d="M 371.5,407.5 C 370.475,407.103 370.308,406.437 371,405.5C 371.464,406.094 371.631,406.761 371.5,407.5 Z"/></g>
<g><path style="opacity:0.004" fill="#98c9f9" d="M 660.5,416.5 C 661.833,417.167 661.833,417.167 660.5,416.5 Z"/></g>
<g><path style="opacity:0.992" fill="#98cefe" d="M 643.5,397.5 C 653.582,411.988 662.915,426.988 671.5,442.5C 671.631,443.239 671.464,443.906 671,444.5C 669.5,442.333 667.667,440.5 665.5,439C 665.957,438.586 666.291,438.086 666.5,437.5C 662.892,431.54 658.559,424.54 653.5,416.5C 652.369,415.396 651.535,415.729 651,417.5C 650.097,416.299 648.931,415.465 647.5,415C 648.276,408.323 645.943,402.656 640.5,398C 641.352,396.272 642.352,396.105 643.5,397.5 Z"/></g>
<g><path style="opacity:0.012" fill="#9acbfc" d="M 360.5,424.5 C 359.475,424.103 359.308,423.437 360,422.5C 360.464,423.094 360.631,423.761 360.5,424.5 Z"/></g>
<g><path style="opacity:0.004" fill="#98c9f9" d="M 661.5,422.5 C 662.833,423.167 662.833,423.167 661.5,422.5 Z"/></g>
<g><path style="opacity:0.004" fill="#98c9f9" d="M 351.5,434.5 C 352.833,435.167 352.833,435.167 351.5,434.5 Z"/></g>
<g><path style="opacity:0.004" fill="#98c9f9" d="M 669.5,434.5 C 670.833,435.167 670.833,435.167 669.5,434.5 Z"/></g>
<g><path style="opacity:0.012" fill="#9accfc" d="M 670.5,436.5 C 671.833,437.167 671.833,437.167 670.5,436.5 Z"/></g>
<g><path style="opacity:0.008" fill="#99cbfc" d="M 343.5,442.5 C 344.833,443.167 344.833,443.167 343.5,442.5 Z"/></g>
<g><path style="opacity:0.008" fill="#99cbfc" d="M 673.5,442.5 C 674.833,443.167 674.833,443.167 673.5,442.5 Z"/></g>
<g><path style="opacity:0.993" fill="#9dd5ff" d="M 503.5,323.5 C 504.832,396.001 504.832,468.668 503.5,541.5C 502.893,541.376 502.56,541.043 502.5,540.5C 503.499,468.335 503.833,396.002 503.5,323.5 Z"/></g>
<g><path style="opacity:0.004" fill="#98c9f9" d="M 651.5,444.5 C 652.167,444.5 652.5,444.833 652.5,445.5C 652.44,446.043 652.107,446.376 651.5,446.5C 650.227,445.743 650.227,445.077 651.5,444.5 Z"/></g>
<g><path style="opacity:0.004" fill="#98c9f9" d="M 683.5,458.5 C 684.833,459.167 684.833,459.167 683.5,458.5 Z"/></g>
<g><path style="opacity:0.008" fill="#99cbfc" d="M 689.5,466.5 C 690.833,467.167 690.833,467.167 689.5,466.5 Z"/></g>
<g><path style="opacity:0.004" fill="#98c9f9" d="M 329.5,468.5 C 330.833,469.167 330.833,469.167 329.5,468.5 Z"/></g>
<g><path style="opacity:0.004" fill="#98c9f9" d="M 332.5,469.5 C 331.833,468.167 331.833,468.167 332.5,469.5 Z"/></g>
<g><path style="opacity:0.008" fill="#99cbfc" d="M 328.5,472.5 C 329.833,473.167 329.833,473.167 328.5,472.5 Z"/></g>
<g><path style="opacity:0.008" fill="#99cbfc" d="M 324.5,479.5 C 325.833,480.167 325.833,480.167 324.5,479.5 Z"/></g>
<g><path style="opacity:0.008" fill="#99cbfc" d="M 320.5,488.5 C 319.833,487.167 319.833,487.167 320.5,488.5 Z"/></g>
<g><path style="opacity:0.004" fill="#98c9f9" d="M 702.5,488.5 C 703.833,489.167 703.833,489.167 702.5,488.5 Z"/></g>
<g><path style="opacity:0.004" fill="#98c9f9" d="M 710.5,501.5 C 711.833,502.167 711.833,502.167 710.5,501.5 Z"/></g>
<g><path style="opacity:0.008" fill="#99cbfc" d="M 303.5,506.5 C 304.833,507.167 304.833,507.167 303.5,506.5 Z"/></g>
<g><path style="opacity:0.004" fill="#98c9f9" d="M 714.5,507.5 C 715.833,508.167 715.833,508.167 714.5,507.5 Z"/></g>
<g><path style="opacity:0.008" fill="#99cbfc" d="M 305.5,512.5 C 304.833,511.167 304.833,511.167 305.5,512.5 Z"/></g>
<g><path style="opacity:0.008" fill="#99cbfc" d="M 304.5,512.5 C 303.833,513.167 303.833,513.167 304.5,512.5 Z"/></g>
<g><path style="opacity:0.004" fill="#98c9f9" d="M 722.5,520.5 C 723.833,521.167 723.833,521.167 722.5,520.5 Z"/></g>
<g><path style="opacity:0.004" fill="#98c9f9" d="M 288.5,532.5 C 289.833,533.167 289.833,533.167 288.5,532.5 Z"/></g>
<g><path style="opacity:0.016" fill="#9ccdfd" d="M 287.5,538.5 C 288.833,539.167 288.833,539.167 287.5,538.5 Z"/></g>
<g><path style="opacity:0.004" fill="#98c9f9" d="M 285.5,544.5 C 284.833,543.167 284.833,543.167 285.5,544.5 Z"/></g>
<g><path style="opacity:0.016" fill="#9ccdfd" d="M 736.5,543.5 C 737.833,544.167 737.833,544.167 736.5,543.5 Z"/></g>
<g><path style="opacity:0.008" fill="#99cbfc" d="M 279.5,548.5 C 280.833,549.167 280.833,549.167 279.5,548.5 Z"/></g>
<g><path style="opacity:0.008" fill="#99cbfc" d="M 741.5,550.5 C 742.833,551.167 742.833,551.167 741.5,550.5 Z"/></g>
<g><path style="opacity:0.008" fill="#99cbfc" d="M 275.5,557.5 C 276.833,558.167 276.833,558.167 275.5,557.5 Z"/></g>
<g><path style="opacity:0.004" fill="#98c9f9" d="M 749.5,562.5 C 750.833,563.167 750.833,563.167 749.5,562.5 Z"/></g>
<g><path style="opacity:0.004" fill="#98c9f9" d="M 753.5,570.5 C 754.833,571.167 754.833,571.167 753.5,570.5 Z"/></g>
<g><path style="opacity:0.994" fill="#97cdfe" d="M 734.5,543.5 C 735.167,543.833 735.833,544.167 736.5,544.5C 741.42,554.014 747.086,563.014 753.5,571.5C 754.167,573.167 754.833,574.833 755.5,576.5C 755.631,577.376 755.298,578.043 754.5,578.5C 753.333,576.833 752.167,575.167 751,573.5C 750.558,575.679 749.558,576.345 748,575.5C 747.667,576.5 747.333,577.5 747,578.5C 744.806,575.983 742.806,576.316 741,579.5C 740.333,580.5 740.333,581.5 741,582.5C 743.684,584.469 744.518,586.802 743.5,589.5C 740.779,586.106 738.446,582.439 736.5,578.5C 735.972,577.153 735.805,575.819 736,574.5C 738.235,575.239 740.235,575.239 742,574.5C 742.333,573.5 742.667,572.5 743,571.5C 743.667,570.167 744.333,570.167 745,571.5C 745.167,571 745.333,570.5 745.5,570C 743.921,566.609 743.087,563.109 743,559.5C 740,554.833 737,550.167 734,545.5C 732.68,543.346 730.847,541.846 728.5,541C 729.416,540.626 730.25,540.126 731,539.5C 731.949,541.093 733.115,542.426 734.5,543.5 Z"/></g>
<g><path style="opacity:0.004" fill="#98c9f9" d="M 765.5,584.5 C 766.833,585.167 766.833,585.167 765.5,584.5 Z"/></g>
<g><path style="opacity:0.008" fill="#99cbfc" d="M 766.5,591.5 C 767.833,592.167 767.833,592.167 766.5,591.5 Z"/></g>
<g><path style="opacity:0.004" fill="#98c9f9" d="M 773.5,601.5 C 774.833,602.167 774.833,602.167 773.5,601.5 Z"/></g>
<g><path style="opacity:0.012" fill="#9accfc" d="M 781.5,614.5 C 782.833,615.167 782.833,615.167 781.5,614.5 Z"/></g>
<g><path style="opacity:0.994" fill="#96ccfe" d="M 755.5,576.5 C 759.167,581.833 762.833,587.167 766.5,592.5C 775.67,608.179 785.336,623.512 795.5,638.5C 800.779,647.772 806.446,656.772 812.5,665.5C 813.079,668.331 814.412,670.664 816.5,672.5C 817.833,675.167 819.167,677.833 820.5,680.5C 821.156,682.484 821.822,684.484 822.5,686.5C 820.794,689.252 819.628,692.252 819,695.5C 818.333,694.167 817.667,694.167 817,695.5C 816.667,694.833 816.333,694.167 816,693.5C 815.077,694.759 814.243,696.092 813.5,697.5C 813.167,697.333 812.833,697.167 812.5,697C 809.955,694.293 807.621,691.46 805.5,688.5C 805.167,688.5 804.833,688.5 804.5,688.5C 784.196,656.041 763.863,623.041 743.5,589.5C 744.518,586.802 743.684,584.469 741,582.5C 740.333,581.5 740.333,580.5 741,579.5C 742.806,576.316 744.806,575.983 747,578.5C 747.333,577.5 747.667,576.5 748,575.5C 749.558,576.345 750.558,575.679 751,573.5C 752.167,575.167 753.333,576.833 754.5,578.5C 755.298,578.043 755.631,577.376 755.5,576.5 Z"/></g>
<g><path style="opacity:0.004" fill="#98c9f9" d="M 235.5,621.5 C 236.833,622.167 236.833,622.167 235.5,621.5 Z"/></g>
<g><path style="opacity:0.008" fill="#99cbfc" d="M 233.5,627.5 C 232.833,626.167 232.833,626.167 233.5,627.5 Z"/></g>
<g><path style="opacity:0.008" fill="#99cbfc" d="M 225.5,633.5 C 226.833,634.167 226.833,634.167 225.5,633.5 Z"/></g>
<g><path style="opacity:0.012" fill="#9accfc" d="M 795.5,637.5 C 796.833,638.167 796.833,638.167 795.5,637.5 Z"/></g>
<g><path style="opacity:0.988" fill="#99cefe" d="M 233.5,629.5 C 234.782,630.708 234.782,632.042 233.5,633.5C 227.71,642.6 221.877,651.6 216,660.5C 215.536,659.906 215.369,659.239 215.5,658.5C 220.752,648.322 226.752,638.655 233.5,629.5 Z"/></g>
<g><path style="opacity:0.993" fill="#95ccfe" d="M 337.5,495.5 C 299.279,558.17 260.112,620.836 220,683.5C 217.926,687.224 215.759,690.891 213.5,694.5C 213.833,694.833 214.167,695.167 214.5,695.5C 294.299,651.937 374.299,608.937 454.5,566.5C 455.239,566.369 455.906,566.536 456.5,567C 455.151,567.772 454.318,568.939 454,570.5C 449.652,570.26 446.152,572.093 443.5,576C 444.167,576.333 444.833,576.667 445.5,577C 443.5,576.667 441.5,576.333 439.5,576C 437.525,576.978 435.858,578.311 434.5,580C 434.645,580.772 434.978,581.439 435.5,582C 434.223,582.127 433.057,581.627 432,580.5C 430.51,581.317 429.01,582.15 427.5,583C 427.833,583.333 428.167,583.667 428.5,584C 427.285,586.096 426.451,585.929 426,583.5C 422.903,584.289 422.736,585.456 425.5,587C 424.572,587.388 423.905,588.055 423.5,589C 424.482,591.009 425.815,591.509 427.5,590.5C 428.167,591.5 428.833,592.5 429.5,593.5C 431.467,592.318 432.8,592.985 433.5,595.5C 434.7,594.469 436.034,593.635 437.5,593C 436.483,591.951 436.316,590.784 437,589.5C 437.333,590.167 437.667,590.833 438,591.5C 438.833,590.5 439.667,589.5 440.5,588.5C 441.354,589.522 442.354,590.355 443.5,591C 442.944,591.383 442.611,591.883 442.5,592.5C 371.831,630.951 301.831,668.784 232.5,706C 291.83,706.143 351.164,706.643 410.5,707.5C 348.154,707.164 291.154,707.497 239.5,708.5C 244.366,709.327 249.199,710.661 254,712.5C 254.667,711.167 255.333,711.167 256,712.5C 256.317,710.699 256.984,710.366 258,711.5C 263.728,709.885 269.561,708.885 275.5,708.5C 275.833,708.5 276.167,708.5 276.5,708.5C 282.369,709.205 288.369,709.871 294.5,710.5C 321.488,710.149 348.488,709.482 375.5,708.5C 394.5,708.5 413.5,708.5 432.5,708.5C 450.902,709.173 469.402,709.839 488,710.5C 506.598,709.839 525.098,709.173 543.5,708.5C 543.833,708.5 544.167,708.5 544.5,708.5C 544.369,709.239 544.536,709.906 545,710.5C 573.598,709.837 602.098,709.171 630.5,708.5C 631.167,708.5 631.833,708.5 632.5,708.5C 663.833,709.833 695.167,709.833 726.5,708.5C 726.833,708.5 727.167,708.5 727.5,708.5C 738.569,709.177 749.735,709.843 761,710.5C 771.465,709.505 782.132,709.172 793,709.5C 794.326,709.755 795.326,710.422 796,711.5C 796.483,710.552 796.649,709.552 796.5,708.5C 792.322,708.044 787.989,708.044 783.5,708.5C 780.038,707.518 776.371,707.185 772.5,707.5C 778.987,706.672 785.654,706.172 792.5,706C 787.809,703.992 783.476,701.492 779.5,698.5C 782.596,699.547 785.596,700.88 788.5,702.5C 789.251,701.624 789.751,700.624 790,699.5C 790.667,702.167 791.333,702.167 792,699.5C 792.308,700.308 792.808,700.975 793.5,701.5C 794.59,700.609 794.59,699.609 793.5,698.5C 795.865,697.915 797.865,696.748 799.5,695C 799.167,694.667 798.833,694.333 798.5,694C 801.5,694.333 804.5,694.667 807.5,695C 804.102,693.643 801.102,691.81 798.5,689.5C 801.168,689.666 803.502,690.666 805.5,692.5C 805.833,692.167 806.167,691.833 806.5,691.5C 805.5,690.833 804.5,690.167 803.5,689.5C 803.624,688.893 803.957,688.56 804.5,688.5C 804.833,689.833 805.167,689.833 805.5,688.5C 807.621,691.46 809.955,694.293 812.5,697C 812.833,697.167 813.167,697.333 813.5,697.5C 814.243,696.092 815.077,694.759 816,693.5C 816.333,694.167 816.667,694.833 817,695.5C 817.667,694.167 818.333,694.167 819,695.5C 819.628,692.252 820.794,689.252 822.5,686.5C 821.822,684.484 821.156,682.484 820.5,680.5C 822.95,682.629 824.617,685.296 825.5,688.5C 822.86,687.963 822.86,688.797 825.5,691C 824.027,691.71 823.36,692.876 823.5,694.5C 825.903,694.393 827.736,695.393 829,697.5C 830.752,700.672 832.752,703.672 835,706.5C 835.464,705.906 835.631,705.239 835.5,704.5C 840.482,709.322 841.648,714.988 839,721.5C 837.22,722.639 835.386,723.639 833.5,724.5C 833.5,724.167 833.5,723.833 833.5,723.5C 709.098,722.832 584.598,722.166 460,721.5C 458.629,721.243 457.129,721.577 455.5,722.5C 454.259,721.963 453.092,721.296 452,720.5C 450.238,720.944 450.405,721.444 452.5,722C 409.331,722.167 366.331,722.667 323.5,723.5C 323.167,723.5 322.833,723.5 322.5,723.5C 277.313,722.813 231.98,722.147 186.5,721.5C 185.833,721.5 185.167,721.5 184.5,721.5C 183.728,720.306 182.728,719.306 181.5,718.5C 181.337,716.143 181.503,713.81 182,711.5C 187.027,702.711 191.861,694.377 196.5,686.5C 198.326,684.853 199.66,682.853 200.5,680.5C 203.546,676.442 206.213,672.109 208.5,667.5C 210.25,666.341 211.25,664.674 211.5,662.5C 212.833,661.167 214.167,659.833 215.5,658.5C 215.369,659.239 215.536,659.906 216,660.5C 221.877,651.6 227.71,642.6 233.5,633.5C 234.782,632.042 234.782,630.708 233.5,629.5C 233.5,628.833 233.5,628.167 233.5,627.5C 251.739,599.937 269.073,572.27 285.5,544.5C 292.664,534.178 299.331,523.511 305.5,512.5C 309.5,506.833 313.5,501.167 317.5,495.5C 318.117,495.389 318.617,495.056 319,494.5C 320.346,497.249 321.68,497.583 323,495.5C 325.064,498.789 327.397,499.456 330,497.5C 330.249,498.624 330.749,499.624 331.5,500.5C 333.804,498.569 335.638,496.236 337,493.5C 337.464,494.094 337.631,494.761 337.5,495.5 Z"/></g>
<g><path style="opacity:0.004" fill="#98c9f9" d="M 207.5,656.5 C 208.833,657.167 208.833,657.167 207.5,656.5 Z"/></g>
<g><path style="opacity:0.004" fill="#98c9f9" d="M 211.5,662.5 C 210.833,661.167 210.833,661.167 211.5,662.5 Z"/></g>
<g><path style="opacity:0.994" fill="#96ccfe" d="M 592.5,579.5 C 661.778,615.137 730.445,651.804 798.5,689.5C 801.102,691.81 804.102,693.643 807.5,695C 804.5,694.667 801.5,694.333 798.5,694C 798.833,694.333 799.167,694.667 799.5,695C 797.865,696.748 795.865,697.915 793.5,698.5C 794.59,699.609 794.59,700.609 793.5,701.5C 792.808,700.975 792.308,700.308 792,699.5C 791.333,702.167 790.667,702.167 790,699.5C 789.751,700.624 789.251,701.624 788.5,702.5C 785.596,700.88 782.596,699.547 779.5,698.5C 715.421,665.141 652.088,631.475 589.5,597.5C 591.915,595.911 593.915,593.744 595.5,591C 594.167,589.333 592.833,587.667 591.5,586C 592.672,585.581 593.672,584.915 594.5,584C 593.551,583.383 592.718,583.549 592,584.5C 590.068,582.607 590.235,580.94 592.5,579.5 Z"/></g>
<g><path style="opacity:0.016" fill="#9ccdfd" d="M 812.5,665.5 C 812.369,664.761 812.536,664.094 813,663.5C 813.692,664.437 813.525,665.103 812.5,665.5 Z"/></g>
<g><path style="opacity:0.012" fill="#9accfc" d="M 208.5,667.5 C 207.833,666.167 207.833,666.167 208.5,667.5 Z"/></g>
<g><path style="opacity:0.004" fill="#98c9f9" d="M 817.5,672.5 C 816.833,671.167 816.833,671.167 817.5,672.5 Z"/></g>
<g><path style="opacity:0.012" fill="#9accfc" d="M 817.5,672.5 C 818.833,673.167 818.833,673.167 817.5,672.5 Z"/></g>
<g><path style="opacity:0.008" fill="#99cbfc" d="M 199.5,673.5 C 200.833,674.167 200.833,674.167 199.5,673.5 Z"/></g>
<g><path style="opacity:0.008" fill="#99cbfc" d="M 200.5,680.5 C 199.475,680.103 199.308,679.437 200,678.5C 200.464,679.094 200.631,679.761 200.5,680.5 Z"/></g>
<g><path style="opacity:0.004" fill="#98c9f9" d="M 821.5,678.5 C 822.833,679.167 822.833,679.167 821.5,678.5 Z"/></g>
<g><path style="opacity:0.008" fill="#99cbfc" d="M 196.5,686.5 C 195.833,685.167 195.833,685.167 196.5,686.5 Z"/></g>
<g><path style="opacity:0.004" fill="#98c9f9" d="M 195.5,686.5 C 194.833,687.167 194.833,687.167 195.5,686.5 Z"/></g>
<g><path style="opacity:0.012" fill="#9accfc" d="M 830.5,689.5 C 831.833,690.167 831.833,690.167 830.5,689.5 Z"/></g>
<g><path style="opacity:0.986" fill="#98cffe" d="M 825.5,688.5 C 829.19,693.542 832.523,698.875 835.5,704.5C 835.631,705.239 835.464,705.906 835,706.5C 832.752,703.672 830.752,700.672 829,697.5C 827.736,695.393 825.903,694.393 823.5,694.5C 823.36,692.876 824.027,691.71 825.5,691C 822.86,688.797 822.86,687.963 825.5,688.5 Z"/></g>
<g><path style="opacity:0.004" fill="#98c9f9" d="M 830.5,692.5 C 831.833,693.167 831.833,693.167 830.5,692.5 Z"/></g>
<g><path style="opacity:0.004" fill="#98c9f9" d="M 837.5,698.5 C 838.833,699.167 838.833,699.167 837.5,698.5 Z"/></g>
<g><path style="opacity:0.004" fill="#98c9f9" d="M 183.5,702.5 C 184.833,703.167 184.833,703.167 183.5,702.5 Z"/></g>
<g><path style="opacity:0.004" fill="#98c9f9" d="M 183.5,704.5 C 184.833,705.167 184.833,705.167 183.5,704.5 Z"/></g>
<g><path style="opacity:0.004" fill="#98c9f9" d="M 838.5,704.5 C 839.833,705.167 839.833,705.167 838.5,704.5 Z"/></g>
<g><path style="opacity:0.958" fill="#90c3fa" d="M 687.5,707.5 C 673.856,708.522 655.522,708.856 632.5,708.5C 631.833,708.5 631.167,708.5 630.5,708.5C 601.833,708.5 573.167,708.5 544.5,708.5C 544.167,708.5 543.833,708.5 543.5,708.5C 506.5,708.5 469.5,708.5 432.5,708.5C 413.5,708.5 394.5,708.5 375.5,708.5C 342.5,708.5 309.5,708.5 276.5,708.5C 276.167,708.5 275.833,708.5 275.5,708.5C 263.5,708.5 251.5,708.5 239.5,708.5C 291.154,707.497 348.154,707.164 410.5,707.5C 505.568,706.752 597.901,706.752 687.5,707.5 Z"/></g>
<g><path style="opacity:0.937" fill="#91c3fa" d="M 772.5,707.5 C 776.371,707.185 780.038,707.518 783.5,708.5C 764.833,708.5 746.167,708.5 727.5,708.5C 727.167,708.5 726.833,708.5 726.5,708.5C 715.986,708.828 705.653,708.494 695.5,707.5C 721.545,706.374 747.212,706.374 772.5,707.5 Z"/></g>
<g><path style="opacity:0.99" fill="#9cd2ff" d="M 276.5,708.5 C 309.5,708.5 342.5,708.5 375.5,708.5C 348.488,709.482 321.488,710.149 294.5,710.5C 288.369,709.871 282.369,709.205 276.5,708.5 Z"/></g>
<g><path style="opacity:0.988" fill="#9cd2ff" d="M 432.5,708.5 C 469.5,708.5 506.5,708.5 543.5,708.5C 525.098,709.173 506.598,709.839 488,710.5C 469.402,709.839 450.902,709.173 432.5,708.5 Z"/></g>
<g><path style="opacity:0.986" fill="#9dd2ff" d="M 544.5,708.5 C 573.167,708.5 601.833,708.5 630.5,708.5C 602.098,709.171 573.598,709.837 545,710.5C 544.536,709.906 544.369,709.239 544.5,708.5 Z"/></g>
<g><path style="opacity:0.983" fill="#9dd3fe" d="M 687.5,707.5 C 690.167,706.167 692.833,706.167 695.5,707.5C 705.653,708.494 715.986,708.828 726.5,708.5C 695.167,709.833 663.833,709.833 632.5,708.5C 655.522,708.856 673.856,708.522 687.5,707.5 Z"/></g>
<g><path style="opacity:0.995" fill="#9bd1ff" d="M 727.5,708.5 C 746.167,708.5 764.833,708.5 783.5,708.5C 787.989,708.044 792.322,708.044 796.5,708.5C 796.649,709.552 796.483,710.552 796,711.5C 795.326,710.422 794.326,709.755 793,709.5C 782.132,709.172 771.465,709.505 761,710.5C 749.735,709.843 738.569,709.177 727.5,708.5 Z"/></g>
<g><path style="opacity:0.987" fill="#98cfff" d="M 239.5,708.5 C 251.5,708.5 263.5,708.5 275.5,708.5C 269.561,708.885 263.728,709.885 258,711.5C 256.984,710.366 256.317,710.699 256,712.5C 255.333,711.167 254.667,711.167 254,712.5C 249.199,710.661 244.366,709.327 239.5,708.5 Z"/></g>
<g><path style="opacity:0.008" fill="#99cbfc" d="M 179.5,712.5 C 180.833,713.167 180.833,713.167 179.5,712.5 Z"/></g>
<g><path style="opacity:0.004" fill="#98c9f9" d="M 180.5,718.5 C 179.833,717.167 179.833,717.167 180.5,718.5 Z"/></g>
<g><path style="opacity:0.024" fill="#9ccdfd" d="M 180.5,718.5 C 180.833,718.5 181.167,718.5 181.5,718.5C 181.315,719.17 180.981,719.17 180.5,718.5 Z"/></g>
<g><path style="opacity:0.993" fill="#9bd3ff" d="M 186.5,721.5 C 231.98,722.147 277.313,722.813 322.5,723.5C 277.832,723.667 233.165,723.5 188.5,723C 187.584,722.722 186.918,722.222 186.5,721.5 Z"/></g>
<g><path style="opacity:0.986" fill="#9cd3ff" d="M 833.5,723.5 C 663.5,723.5 493.5,723.5 323.5,723.5C 366.331,722.667 409.331,722.167 452.5,722C 450.405,721.444 450.238,720.944 452,720.5C 453.092,721.296 454.259,721.963 455.5,722.5C 457.129,721.577 458.629,721.243 460,721.5C 584.598,722.166 709.098,722.832 833.5,723.5 Z"/></g>
<g><path style="opacity:0.71" fill="#90c4fa" d="M 184.5,721.5 C 185.167,721.5 185.833,721.5 186.5,721.5C 186.918,722.222 187.584,722.722 188.5,723C 233.165,723.5 277.832,723.667 322.5,723.5C 322.833,723.5 323.167,723.5 323.5,723.5C 493.5,723.5 663.5,723.5 833.5,723.5C 833.5,723.833 833.5,724.167 833.5,724.5C 792.385,725.049 751.385,725.049 710.5,724.5C 702.167,724.667 693.833,724.833 685.5,725C 683.77,726.852 682.604,726.686 682,724.5C 673.412,724.666 665.246,724.666 657.5,724.5C 656.808,725.025 656.308,725.692 656,726.5C 652.598,725.211 648.931,724.544 645,724.5C 606.223,724.241 567.39,724.574 528.5,725.5C 420.14,724.886 311.14,724.886 201.5,725.5C 197.53,724.173 193.53,724.173 189.5,725.5C 187.581,724.388 185.914,723.054 184.5,721.5 Z"/></g>
<g><path style="opacity:0.004" fill="#98c9f9" d="M 201.5,725.5 C 202.833,726.167 202.833,726.167 201.5,725.5 Z"/></g>
<g><path style="opacity:0.004" fill="#98c9f9" d="M 215.5,726.5 C 215.897,725.475 216.563,725.308 217.5,726C 216.906,726.464 216.239,726.631 215.5,726.5 Z"/></g>
<g><path style="opacity:0.004" fill="#98c9f9" d="M 226.5,725.5 C 227.833,726.167 227.833,726.167 226.5,725.5 Z"/></g>
<g><path style="opacity:0.004" fill="#98c9f9" d="M 230.5,725.5 C 231.833,726.167 231.833,726.167 230.5,725.5 Z"/></g>
<g><path style="opacity:0.004" fill="#98c9f9" d="M 242.5,726.5 C 242.897,725.475 243.563,725.308 244.5,726C 243.906,726.464 243.239,726.631 242.5,726.5 Z"/></g>
<g><path style="opacity:0.004" fill="#98c9f9" d="M 264.5,725.5 C 265.833,726.167 265.833,726.167 264.5,725.5 Z"/></g>
<g><path style="opacity:0.004" fill="#98c9f9" d="M 266.5,725.5 C 267.833,726.167 267.833,726.167 266.5,725.5 Z"/></g>
<g><path style="opacity:0.008" fill="#99cbfc" d="M 359.5,725.5 C 360.833,726.167 360.833,726.167 359.5,725.5 Z"/></g>
<g><path style="opacity:0.004" fill="#98c9f9" d="M 362.5,725.5 C 363.833,726.167 363.833,726.167 362.5,725.5 Z"/></g>
<g><path style="opacity:0.004" fill="#98c9f9" d="M 367.5,725.5 C 368.833,726.167 368.833,726.167 367.5,725.5 Z"/></g>
<g><path style="opacity:0.008" fill="#99cbfc" d="M 411.5,725.5 C 412.833,726.167 412.833,726.167 411.5,725.5 Z"/></g>
<g><path style="opacity:0.004" fill="#98c9f9" d="M 426.5,725.5 C 427.833,726.167 427.833,726.167 426.5,725.5 Z"/></g>
<g><path style="opacity:0.004" fill="#98c9f9" d="M 447.5,725.5 C 448.833,726.167 448.833,726.167 447.5,725.5 Z"/></g>
<g><path style="opacity:0.004" fill="#98c9f9" d="M 451.5,725.5 C 452.833,726.167 452.833,726.167 451.5,725.5 Z"/></g>
<g><path style="opacity:0.004" fill="#98c9f9" d="M 467.5,725.5 C 468.833,726.167 468.833,726.167 467.5,725.5 Z"/></g>
<g><path style="opacity:0.004" fill="#98c9f9" d="M 498.5,725.5 C 499.833,726.167 499.833,726.167 498.5,725.5 Z"/></g>
<g><path style="opacity:0.004" fill="#98c9f9" d="M 528.5,725.5 C 529.833,726.167 529.833,726.167 528.5,725.5 Z"/></g>
<g><path style="opacity:0.004" fill="#98c9f9" d="M 538.5,725.5 C 539.833,726.167 539.833,726.167 538.5,725.5 Z"/></g>
<g><path style="opacity:0.008" fill="#99cbfc" d="M 543.5,725.5 C 544.833,726.167 544.833,726.167 543.5,725.5 Z"/></g>
<g><path style="opacity:0.008" fill="#99cbfc" d="M 607.5,725.5 C 608.833,726.167 608.833,726.167 607.5,725.5 Z"/></g>
<g><path style="opacity:0.004" fill="#98c9f9" d="M 618.5,726.5 C 618.897,725.475 619.563,725.308 620.5,726C 619.906,726.464 619.239,726.631 618.5,726.5 Z"/></g>
<g><path style="opacity:0.004" fill="#98c9f9" d="M 635.5,725.5 C 636.833,726.167 636.833,726.167 635.5,725.5 Z"/></g>
<g><path style="opacity:0.008" fill="#99cbfc" d="M 642.5,725.5 C 643.833,726.167 643.833,726.167 642.5,725.5 Z"/></g>
<g><path style="opacity:0.004" fill="#98c9f9" d="M 707.5,725.5 C 708.833,726.167 708.833,726.167 707.5,725.5 Z"/></g>
<g><path style="opacity:0.008" fill="#99cbfc" d="M 722.5,725.5 C 723.833,726.167 723.833,726.167 722.5,725.5 Z"/></g>
<g><path style="opacity:0.004" fill="#98c9f9" d="M 818.5,725.5 C 819.833,726.167 819.833,726.167 818.5,725.5 Z"/></g>
<g><path style="opacity:0.008" fill="#99cbfc" d="M 335.5,726.5 C 336.833,727.167 336.833,727.167 335.5,726.5 Z"/></g>
<g><path style="opacity:0.004" fill="#98c9f9" d="M 407.5,726.5 C 408.833,727.167 408.833,727.167 407.5,726.5 Z"/></g>
<g><path style="opacity:0.004" fill="#98c9f9" d="M 423.5,726.5 C 424.833,727.167 424.833,727.167 423.5,726.5 Z"/></g>
<g><path style="opacity:0.004" fill="#98c9f9" d="M 671.5,726.5 C 672.833,727.167 672.833,727.167 671.5,726.5 Z"/></g>
<g><path style="opacity:0.008" fill="#99cbfc" d="M 679.5,726.5 C 680.833,727.167 680.833,727.167 679.5,726.5 Z"/></g>
<g><path style="opacity:0.004" fill="#98c9f9" d="M 711.5,726.5 C 712.833,727.167 712.833,727.167 711.5,726.5 Z"/></g>
<g><path style="opacity:0.008" fill="#99cbfc" d="M 722.5,726.5 C 721.833,727.167 721.833,727.167 722.5,726.5 Z"/></g>
<g><path style="opacity:0.004" fill="#98c9f9" d="M 724.5,726.5 C 725.833,727.167 725.833,727.167 724.5,726.5 Z"/></g>
<g><path style="opacity:0.004" fill="#98c9f9" d="M 364.5,883.5 C 365.833,884.167 365.833,884.167 364.5,883.5 Z"/></g>
<g><path style="opacity:0.004" fill="#98c9f9" d="M 740.5,952.5 C 741.833,953.167 741.833,953.167 740.5,952.5 Z"/></g>
<g><path style="opacity:0.004" fill="#98c9f9" d="M 467.5,1005.5 C 468.833,1006.17 468.833,1006.17 467.5,1005.5 Z"/></g>
<g><path style="opacity:0.004" fill="#98c9f9" d="M 692.5,1008.5 C 693.833,1009.17 693.833,1009.17 692.5,1008.5 Z"/></g>
</svg>
