<?xml version="1.0" encoding="UTF-8"?>
<!DOCTYPE svg PUBLIC "-//W3C//DTD SVG 1.1//EN" "http://www.w3.org/Graphics/SVG/1.1/DTD/svg11.dtd">
<svg xmlns="http://www.w3.org/2000/svg" version="1.1" width="1024px" height="1024px" style="shape-rendering:geometricPrecision; text-rendering:geometricPrecision; image-rendering:optimizeQuality; fill-rule:evenodd; clip-rule:evenodd" xmlns:xlink="http://www.w3.org/1999/xlink">
<g><path style="opacity:0.996" fill="#79c9fe" d="M 551.5,65.5 C 562.192,71.7241 573.192,78.3907 584.5,85.5C 583.761,85.369 583.094,85.5357 582.5,86C 586.291,87.7996 589.457,90.2996 592,93.5C 592.414,93.0426 592.914,92.7093 593.5,92.5C 596.673,94.5872 600.006,96.4205 603.5,98C 606.04,99.0404 607.707,100.874 608.5,103.5C 611.303,102.55 613.636,103.384 615.5,106C 616.749,106.74 617.749,106.573 618.5,105.5C 623.167,107.833 627.833,110.167 632.5,112.5C 632.973,113.906 633.973,114.573 635.5,114.5C 641.575,118.567 647.909,122.234 654.5,125.5C 656.336,127.588 658.669,128.921 661.5,129.5C 665.507,133.174 670.173,135.841 675.5,137.5C 678.976,140.623 682.976,142.957 687.5,144.5C 688.659,146.25 690.326,147.25 692.5,147.5C 696.63,150.403 700.963,153.07 705.5,155.5C 718.801,163.487 732.134,171.487 745.5,179.5C 743.621,179.393 743.288,179.893 744.5,181C 764.649,192.333 784.649,203.833 804.5,215.5C 805.107,215.376 805.44,215.043 805.5,214.5C 807.027,214.427 808.027,215.094 808.5,216.5C 806.621,216.393 806.288,216.893 807.5,218C 820.277,224.759 833.277,232.259 846.5,240.5C 847.298,240.043 847.631,239.376 847.5,238.5C 853.602,242.531 859.602,245.864 865.5,248.5C 875.801,255.322 886.467,261.656 897.5,267.5C 905.636,272.646 910.636,279.979 912.5,289.5C 912.5,433.167 912.5,576.833 912.5,720.5C 911.78,725.277 909.947,729.61 907,733.5C 903.267,736.745 899.434,739.745 895.5,742.5C 887.989,746.085 880.989,750.418 874.5,755.5C 863.306,761.045 852.64,767.378 842.5,774.5C 838.697,775.49 835.53,777.49 833,780.5C 832.667,780.167 832.333,779.833 832,779.5C 817.52,788.65 803.02,797.65 788.5,806.5C 780.164,810.665 772.164,815.332 764.5,820.5C 754.798,825.679 745.465,831.345 736.5,837.5C 723.327,844.918 710.327,852.585 697.5,860.5C 658.492,883.456 620.159,906.456 582.5,929.5C 567.216,938.137 552.216,947.137 537.5,956.5C 532.073,959.795 526.24,962.128 520,963.5C 516.273,963.702 512.106,963.202 507.5,962C 490.65,953.077 473.984,943.91 457.5,934.5C 456.341,932.75 454.674,931.75 452.5,931.5C 448.5,928.833 444.5,926.167 440.5,923.5C 442.379,923.607 442.712,923.107 441.5,922C 413.586,905.783 386.586,889.95 360.5,874.5C 359.537,874.97 359.537,875.637 360.5,876.5C 346.661,868.749 332.994,860.749 319.5,852.5C 320.239,852.631 320.906,852.464 321.5,852C 311.991,846.627 302.657,841.127 293.5,835.5C 292.893,835.624 292.56,835.957 292.5,836.5C 291.167,836.167 289.833,835.833 288.5,835.5C 284.836,832.665 280.836,830.332 276.5,828.5C 273.179,826.5 269.846,824.5 266.5,822.5C 265.101,821.11 263.434,820.11 261.5,819.5C 258.669,817.583 255.669,815.917 252.5,814.5C 251.71,813.599 250.71,812.932 249.5,812.5C 244.065,808.805 238.732,805.805 233.5,803.5C 221.002,795.081 208.002,787.414 194.5,780.5C 193.486,779.326 192.153,778.66 190.5,778.5C 186.005,774.749 181.005,771.749 175.5,769.5C 175.5,769.167 175.5,768.833 175.5,768.5C 176.239,768.631 176.906,768.464 177.5,768C 166.807,760.986 155.807,754.486 144.5,748.5C 143.893,748.624 143.56,748.957 143.5,749.5C 138.833,747.167 134.167,744.833 129.5,742.5C 127.487,740.503 125.154,738.836 122.5,737.5C 120.722,735.736 119.389,733.736 118.5,731.5C 119.363,732.463 120.03,732.463 120.5,731.5C 117.711,727.436 115.711,723.102 114.5,718.5C 114.509,573.967 114.509,429.633 114.5,285.5C 114.263,284.209 114.596,283.209 115.5,282.5C 115.393,284.379 115.893,284.712 117,283.5C 118.979,279.044 121.813,275.21 125.5,272C 144.594,260.854 163.594,249.521 182.5,238C 181.906,237.536 181.239,237.369 180.5,237.5C 181.29,236.599 182.29,235.932 183.5,235.5C 183.56,236.043 183.893,236.376 184.5,236.5C 196.297,229.866 207.963,223.033 219.5,216C 218.906,215.536 218.239,215.369 217.5,215.5C 225.5,210.5 233.5,205.5 241.5,200.5C 243.687,199.242 246.02,198.242 248.5,197.5C 248.56,198.043 248.893,198.376 249.5,198.5C 264.63,189.866 279.63,181.033 294.5,172C 293.906,171.536 293.239,171.369 292.5,171.5C 293.899,170.11 295.566,169.11 297.5,168.5C 296.031,170.105 296.365,170.605 298.5,170C 307.335,164.415 316.335,159.081 325.5,154C 324.552,153.517 323.552,153.351 322.5,153.5C 322.5,153.167 322.5,152.833 322.5,152.5C 324.5,151.833 326.5,151.167 328.5,150.5C 328.56,151.043 328.893,151.376 329.5,151.5C 338.332,146.585 346.999,141.418 355.5,136C 354.906,135.536 354.239,135.369 353.5,135.5C 354.514,134.326 355.847,133.66 357.5,133.5C 357.56,134.043 357.893,134.376 358.5,134.5C 363.418,131.577 368.418,128.744 373.5,126C 378.407,122.653 382.741,119.486 386.5,116.5C 393.307,111.378 400.64,107.044 408.5,103.5C 408.897,104.525 409.563,104.692 410.5,104C 438.034,87.4012 465.701,71.0678 493.5,55C 492.906,54.5357 492.239,54.369 491.5,54.5C 492.514,53.3263 493.847,52.6596 495.5,52.5C 494.537,53.3635 494.537,54.0302 495.5,54.5C 497.795,52.5201 500.461,51.3534 503.5,51C 523.489,50.1678 523.489,49.6678 503.5,49.5C 510.189,47.1106 517.022,47.4439 524,50.5C 533.418,55.124 542.585,60.124 551.5,65.5 Z M 525.5,77.5 C 533.132,82.6544 541.132,87.321 549.5,91.5C 553.124,93.9507 556.624,96.6174 560,99.5C 560.333,99.1667 560.667,98.8333 561,98.5C 570.147,104.317 579.314,109.984 588.5,115.5C 594.035,118.767 599.702,121.767 605.5,124.5C 618.235,132.557 631.235,140.224 644.5,147.5C 644.5,147.833 644.5,148.167 644.5,148.5C 646.687,149.758 649.02,150.758 651.5,151.5C 658.496,156.334 665.829,160.667 673.5,164.5C 695.934,177.555 718.267,190.888 740.5,204.5C 742.98,205.242 745.313,206.242 747.5,207.5C 750.253,209.721 753.253,211.721 756.5,213.5C 763.841,217.837 771.175,222.17 778.5,226.5C 789.816,232.805 801.15,239.139 812.5,245.5C 816.772,247.774 820.772,250.441 824.5,253.5C 832.167,257.5 839.833,261.5 847.5,265.5C 849.167,266.833 850.833,268.167 852.5,269.5C 859.806,273.488 867.14,277.488 874.5,281.5C 874.715,283.179 874.048,284.179 872.5,284.5C 872.5,284.833 872.5,285.167 872.5,285.5C 865.342,288.912 858.342,292.578 851.5,296.5C 850.833,297.167 850.167,297.833 849.5,298.5C 848.833,298.5 848.167,298.5 847.5,298.5C 831.201,308.989 814.534,318.989 797.5,328.5C 795.109,330.362 792.442,331.696 789.5,332.5C 788.341,334.25 786.674,335.25 784.5,335.5C 780.005,339.251 775.005,342.251 769.5,344.5C 760.098,350.558 750.431,356.224 740.5,361.5C 728.202,369.655 715.535,377.321 702.5,384.5C 701.503,383.287 700.503,383.454 699.5,385C 699.728,385.399 700.062,385.565 700.5,385.5C 699.486,386.674 698.153,387.34 696.5,387.5C 689.833,391.833 683.167,396.167 676.5,400.5C 668.829,404.333 661.496,408.666 654.5,413.5C 651.352,414.576 648.352,415.909 645.5,417.5C 642.167,419.833 638.833,422.167 635.5,424.5C 634.833,424.5 634.167,424.5 633.5,424.5C 623.704,431.572 613.37,437.905 602.5,443.5C 601.833,444.167 601.167,444.833 600.5,445.5C 598.847,445.66 597.514,446.326 596.5,447.5C 593.807,448.847 591.14,450.18 588.5,451.5C 583.5,454.833 578.5,458.167 573.5,461.5C 570.352,462.576 567.352,463.909 564.5,465.5C 551.006,474.137 537.339,482.637 523.5,491C 519.966,492.951 516.632,494.451 513.5,495.5C 500.646,488.912 488.312,481.578 476.5,473.5C 463.833,466.5 451.167,459.5 438.5,452.5C 431.998,448.75 425.665,444.75 419.5,440.5C 415.164,438.668 411.164,436.335 407.5,433.5C 387.901,423.032 368.568,412.032 349.5,400.5C 347.337,398.917 345.004,397.584 342.5,396.5C 327.671,387.584 312.671,378.917 297.5,370.5C 281.941,361.012 265.941,351.345 249.5,341.5C 246.489,340.331 243.822,338.664 241.5,336.5C 238.352,335.424 235.352,334.091 232.5,332.5C 225.532,327.678 218.199,323.344 210.5,319.5C 207.003,316.917 203.336,314.584 199.5,312.5C 197.287,311.227 194.954,310.227 192.5,309.5C 187.672,305.919 182.672,302.585 177.5,299.5C 168.167,294.5 158.833,289.5 149.5,284.5C 149.389,283.883 149.056,283.383 148.5,283C 173.058,268.557 197.725,254.39 222.5,240.5C 233.496,233.332 244.83,226.666 256.5,220.5C 272.966,209.76 289.966,199.76 307.5,190.5C 322.464,181.013 337.798,172.013 353.5,163.5C 361.997,157.414 370.997,152.081 380.5,147.5C 389.666,141.08 399.332,135.413 409.5,130.5C 417.424,126.438 425.424,121.771 433.5,116.5C 449.998,105.747 466.998,95.747 484.5,86.5C 487.494,84.0002 490.827,82.0002 494.5,80.5C 499.503,76.4995 505.169,73.8328 511.5,72.5C 516.382,73.6099 521.049,75.2766 525.5,77.5 Z M 889.5,301.5 C 890.11,375.356 890.444,449.523 890.5,524C 890.496,588.043 889.83,651.876 888.5,715.5C 889.338,715.842 889.672,716.508 889.5,717.5C 879.811,723.534 870.144,729.534 860.5,735.5C 852.328,740.42 843.995,745.087 835.5,749.5C 833.833,750.833 832.167,752.167 830.5,753.5C 827.648,755.091 824.648,756.424 821.5,757.5C 820.922,756.453 820.256,756.62 819.5,758C 819.728,758.399 820.062,758.565 820.5,758.5C 820.027,759.906 819.027,760.573 817.5,760.5C 812.498,764.003 807.165,767.003 801.5,769.5C 752.666,799.418 703.666,829.085 654.5,858.5C 646.301,863.432 637.968,868.099 629.5,872.5C 628.341,874.25 626.674,875.25 624.5,875.5C 619.625,879.01 614.292,882.676 608.5,886.5C 600.5,890.833 592.5,895.167 584.5,899.5C 583.341,901.25 581.674,902.25 579.5,902.5C 574.335,906.586 568.668,909.92 562.5,912.5C 562.027,913.906 561.027,914.573 559.5,914.5C 553.87,918.654 547.87,922.321 541.5,925.5C 540.035,926.737 538.368,927.737 536.5,928.5C 533.898,930.142 531.231,931.808 528.5,933.5C 527.5,933.167 526.833,932.5 526.5,931.5C 526.826,916.337 526.826,901.671 526.5,887.5C 526.617,873.577 526.617,859.577 526.5,845.5C 527.354,738.541 527.354,628.874 526.5,516.5C 544.517,506.139 562.517,495.806 580.5,485.5C 582.629,483.05 585.296,481.383 588.5,480.5C 589.29,479.599 590.29,478.932 591.5,478.5C 609.234,467.443 627.234,456.776 645.5,446.5C 650.216,443.137 655.216,440.137 660.5,437.5C 668.832,431.998 677.499,426.998 686.5,422.5C 696.64,415.378 707.306,409.045 718.5,403.5C 722.164,400.665 726.164,398.332 730.5,396.5C 733.979,394.548 737.645,392.048 741.5,389C 742.448,388.517 743.448,388.351 744.5,388.5C 774.327,369.679 804.66,351.679 835.5,334.5C 839.995,330.749 844.995,327.749 850.5,325.5C 858.8,320.012 867.466,315.012 876.5,310.5C 880.659,307.253 884.992,304.253 889.5,301.5 Z M 135.5,303.5 C 141.687,307.07 148.02,310.737 154.5,314.5C 159.5,316.664 164.167,319.331 168.5,322.5C 188.67,333.414 208.336,345.081 227.5,357.5C 232.5,359.664 237.167,362.331 241.5,365.5C 271.298,382.233 300.964,399.233 330.5,416.5C 335.833,419.833 341.167,423.167 346.5,426.5C 347.222,426.918 347.722,427.584 348,428.5C 348.333,428.167 348.667,427.833 349,427.5C 350.33,428.582 351.83,429.249 353.5,429.5C 356.06,431.273 358.393,433.273 360.5,435.5C 360.833,436.833 361.167,436.833 361.5,435.5C 371.003,440.081 380.003,445.414 388.5,451.5C 394.165,453.997 399.498,456.997 404.5,460.5C 413.958,465.093 422.958,470.427 431.5,476.5C 440.634,481.234 449.634,486.234 458.5,491.5C 459.872,492.512 461.205,493.512 462.5,494.5C 466.201,496.012 469.534,498.012 472.5,500.5C 481.902,505.169 490.569,510.169 498.5,515.5C 499.167,515.5 499.833,515.5 500.5,515.5C 501.172,516.267 502.005,516.934 503,517.5C 503.469,655.823 503.635,794.49 503.5,933.5C 501.33,931.914 498.996,930.58 496.5,929.5C 493.991,928.079 491.657,926.412 489.5,924.5C 479.7,919.433 470.033,914.099 460.5,908.5C 455.328,905.415 450.328,902.081 445.5,898.5C 424.833,886.833 404.167,875.167 383.5,863.5C 382.306,862.728 381.306,861.728 380.5,860.5C 377.669,859.921 375.336,858.588 373.5,856.5C 366.658,852.578 359.658,848.912 352.5,845.5C 352.167,844.833 351.833,844.167 351.5,843.5C 349.224,843.244 348.057,841.91 348,839.5C 347.722,840.416 347.222,841.082 346.5,841.5C 343.5,839.5 340.5,837.5 337.5,835.5C 338.547,834.922 338.38,834.256 337,833.5C 336.601,833.728 336.435,834.062 336.5,834.5C 332.983,832.576 329.316,830.909 325.5,829.5C 324.341,827.75 322.674,826.75 320.5,826.5C 317.167,824.167 313.833,821.833 310.5,819.5C 303.86,815.846 297.194,812.179 290.5,808.5C 277.533,800.345 264.2,792.678 250.5,785.5C 250.5,785.167 250.5,784.833 250.5,784.5C 237.833,777.5 225.167,770.5 212.5,763.5C 208.833,760.833 205.167,758.167 201.5,755.5C 199.407,754.955 197.407,754.122 195.5,753C 196.5,752.667 197.5,752.333 198.5,752C 194.432,751.886 190.765,750.72 187.5,748.5C 174.5,740.5 161.5,732.5 148.5,724.5C 144.28,722.899 140.614,720.565 137.5,717.5C 137.672,716.508 137.338,715.842 136.5,715.5C 136.83,697.659 136.497,679.992 135.5,662.5C 136.331,602.452 136.331,541.452 135.5,479.5C 136.833,422.5 136.833,365.5 135.5,308.5C 136.833,306.833 136.833,305.167 135.5,303.5 Z"/></g>
<g><path style="opacity:0.998" fill="#7fcefd" d="M 503.5,49.5 C 523.489,49.6678 523.489,50.1678 503.5,51C 500.461,51.3534 497.795,52.5201 495.5,54.5C 494.537,54.0302 494.537,53.3635 495.5,52.5C 497.684,50.4152 500.351,49.4152 503.5,49.5 Z"/></g>
<g><path style="opacity:0.008" fill="#77bff3" d="M 484.5,55.5 C 485.833,56.1667 485.833,56.1667 484.5,55.5 Z"/></g>
<g><path style="opacity:0.004" fill="#76bef1" d="M 479.5,58.5 C 480.833,59.1667 480.833,59.1667 479.5,58.5 Z"/></g>
<g><path style="opacity:0.004" fill="#76bef1" d="M 471.5,62.5 C 472.833,63.1667 472.833,63.1667 471.5,62.5 Z"/></g>
<g><path style="opacity:0.982" fill="#7eccfd" d="M 491.5,54.5 C 492.239,54.369 492.906,54.5357 493.5,55C 465.701,71.0678 438.034,87.4012 410.5,104C 409.563,104.692 408.897,104.525 408.5,103.5C 423.999,93.5826 439.666,83.916 455.5,74.5C 467.532,67.8191 479.532,61.1524 491.5,54.5 Z"/></g>
<g><path style="opacity:0.004" fill="#76bef1" d="M 551.5,64.5 C 552.833,65.1667 552.833,65.1667 551.5,64.5 Z"/></g>
<g><path style="opacity:0.008" fill="#77bff3" d="M 465.5,66.5 C 466.833,67.1667 466.833,67.1667 465.5,66.5 Z"/></g>
<g><path style="opacity:0.004" fill="#76bef1" d="M 871.5,66.5 C 872.833,67.1667 872.833,67.1667 871.5,66.5 Z"/></g>
<g><path style="opacity:0.004" fill="#76bef1" d="M 457.5,71.5 C 458.833,72.1667 458.833,72.1667 457.5,71.5 Z"/></g>
<g><path style="opacity:0.004" fill="#76bef1" d="M 566.5,71.5 C 567.833,72.1667 567.833,72.1667 566.5,71.5 Z"/></g>
<g><path style="opacity:0.008" fill="#77bff3" d="M 455.5,74.5 C 454.833,73.1667 454.833,73.1667 455.5,74.5 Z"/></g>
<g><path style="opacity:0.004" fill="#76bef1" d="M 569.5,74.5 C 570.833,75.1667 570.833,75.1667 569.5,74.5 Z"/></g>
<g><path style="opacity:1" fill="#7eccfd" d="M 549.5,91.5 C 541.132,87.321 533.132,82.6544 525.5,77.5C 524.031,75.8947 524.365,75.3947 526.5,76C 534.677,81.2553 543.01,86.2553 551.5,91C 550.906,91.4643 550.239,91.631 549.5,91.5 Z"/></g>
<g><path style="opacity:0.004" fill="#76bef1" d="M 426.5,88.5 C 427.833,89.1667 427.833,89.1667 426.5,88.5 Z"/></g>
<g><path style="opacity:1" fill="#7eccfc" d="M 584.5,85.5 C 596.17,91.6658 607.504,98.3324 618.5,105.5C 617.749,106.573 616.749,106.74 615.5,106C 613.636,103.384 611.303,102.55 608.5,103.5C 607.707,100.874 606.04,99.0404 603.5,98C 600.006,96.4205 596.673,94.5872 593.5,92.5C 592.914,92.7093 592.414,93.0426 592,93.5C 589.457,90.2996 586.291,87.7996 582.5,86C 583.094,85.5357 583.761,85.369 584.5,85.5 Z"/></g>
<g><path style="opacity:0.004" fill="#76bef1" d="M 416.5,95.5 C 417.833,96.1667 417.833,96.1667 416.5,95.5 Z"/></g>
<g><path style="opacity:0.004" fill="#76bef1" d="M 400.5,103.5 C 401.833,104.167 401.833,104.167 400.5,103.5 Z"/></g>
<g><path style="opacity:0.004" fill="#76bef1" d="M 625.5,106.5 C 626.833,107.167 626.833,107.167 625.5,106.5 Z"/></g>
<g><path style="opacity:0.004" fill="#76bef1" d="M 632.5,112.5 C 632.897,111.475 633.563,111.308 634.5,112C 633.906,112.464 633.239,112.631 632.5,112.5 Z"/></g>
<g><path style="opacity:0.016" fill="#78c0f5" d="M 635.5,113.5 C 636.833,114.167 636.833,114.167 635.5,113.5 Z"/></g>
<g><path style="opacity:0.008" fill="#77bff3" d="M 383.5,114.5 C 384.833,115.167 384.833,115.167 383.5,114.5 Z"/></g>
<g><path style="opacity:0.004" fill="#76bef1" d="M 646.5,119.5 C 647.833,120.167 647.833,120.167 646.5,119.5 Z"/></g>
<g><path style="opacity:0.004" fill="#76bef1" d="M 370.5,124.5 C 369.833,123.167 369.833,123.167 370.5,124.5 Z"/></g>
<g><path style="opacity:0.982" fill="#7fcdfd" d="M 386.5,116.5 C 382.741,119.486 378.407,122.653 373.5,126C 368.418,128.744 363.418,131.577 358.5,134.5C 357.893,134.376 357.56,134.043 357.5,133.5C 361.659,130.253 365.992,127.253 370.5,124.5C 375.833,121.833 381.167,119.167 386.5,116.5 Z"/></g>
<g><path style="opacity:0.004" fill="#76bef1" d="M 654.5,124.5 C 655.833,125.167 655.833,125.167 654.5,124.5 Z"/></g>
<g><path style="opacity:0.008" fill="#77bff3" d="M 661.5,128.5 C 662.833,129.167 662.833,129.167 661.5,128.5 Z"/></g>
<g><path style="opacity:1" fill="#7dccfc" d="M 644.5,147.5 C 631.235,140.224 618.235,132.557 605.5,124.5C 604.031,122.895 604.365,122.395 606.5,123C 619.854,131.032 633.187,139.032 646.5,147C 645.906,147.464 645.239,147.631 644.5,147.5 Z"/></g>
<g><path style="opacity:0.008" fill="#77bff3" d="M 348.5,135.5 C 349.833,136.167 349.833,136.167 348.5,135.5 Z"/></g>
<g><path style="opacity:0.024" fill="#79c1f6" d="M 675.5,136.5 C 676.833,137.167 676.833,137.167 675.5,136.5 Z"/></g>
<g><path style="opacity:0.004" fill="#76bef1" d="M 678.5,137.5 C 679.833,138.167 679.833,138.167 678.5,137.5 Z"/></g>
<g><path style="opacity:0.004" fill="#76bef1" d="M 680.5,138.5 C 681.833,139.167 681.833,139.167 680.5,138.5 Z"/></g>
<g><path style="opacity:0.004" fill="#76bef1" d="M 687.5,143.5 C 688.833,144.167 688.833,144.167 687.5,143.5 Z"/></g>
<g><path style="opacity:0.004" fill="#76bef1" d="M 692.5,146.5 C 693.833,147.167 693.833,147.167 692.5,146.5 Z"/></g>
<g><path style="opacity:0.975" fill="#7ecdfd" d="M 353.5,135.5 C 354.239,135.369 354.906,135.536 355.5,136C 346.999,141.418 338.332,146.585 329.5,151.5C 328.893,151.376 328.56,151.043 328.5,150.5C 336.566,145.11 344.9,140.11 353.5,135.5 Z"/></g>
<g><path style="opacity:0.004" fill="#76bef1" d="M 322.5,152.5 C 321.833,151.167 321.833,151.167 322.5,152.5 Z"/></g>
<g><path style="opacity:1" fill="#7eccfd" d="M 673.5,164.5 C 665.829,160.667 658.496,156.334 651.5,151.5C 650.537,150.637 650.537,149.97 651.5,149.5C 659.334,154.585 667.334,159.418 675.5,164C 674.906,164.464 674.239,164.631 673.5,164.5 Z"/></g>
<g><path style="opacity:0.008" fill="#77bff3" d="M 705.5,154.5 C 706.833,155.167 706.833,155.167 705.5,154.5 Z"/></g>
<g><path style="opacity:0.008" fill="#77bff3" d="M 309.5,160.5 C 308.833,159.167 308.833,159.167 309.5,160.5 Z"/></g>
<g><path style="opacity:0.992" fill="#7fcdfd" d="M 322.5,153.5 C 323.552,153.351 324.552,153.517 325.5,154C 316.335,159.081 307.335,164.415 298.5,170C 296.365,170.605 296.031,170.105 297.5,168.5C 300.009,167.079 302.343,165.412 304.5,163.5C 306.674,163.25 308.341,162.25 309.5,160.5C 313.966,158.434 318.299,156.1 322.5,153.5 Z"/></g>
<g><path style="opacity:0.008" fill="#77bff3" d="M 304.5,163.5 C 303.833,162.167 303.833,162.167 304.5,163.5 Z"/></g>
<g><path style="opacity:0.998" fill="#7ecdfd" d="M 292.5,171.5 C 293.239,171.369 293.906,171.536 294.5,172C 279.63,181.033 264.63,189.866 249.5,198.5C 248.893,198.376 248.56,198.043 248.5,197.5C 259.167,190.833 269.833,184.167 280.5,177.5C 284.473,175.513 288.473,173.513 292.5,171.5 Z"/></g>
<g><path style="opacity:0.004" fill="#76bef1" d="M 271.5,176.5 C 272.833,177.167 272.833,177.167 271.5,176.5 Z"/></g>
<g><path style="opacity:0.008" fill="#77bff3" d="M 280.5,177.5 C 279.833,176.167 279.833,176.167 280.5,177.5 Z"/></g>
<g><path style="opacity:0.004" fill="#76bef1" d="M 277.5,177.5 C 278.833,178.167 278.833,178.167 277.5,177.5 Z"/></g>
<g><path style="opacity:0.004" fill="#76bef1" d="M 271.5,178.5 C 272.833,179.167 272.833,179.167 271.5,178.5 Z"/></g>
<g><path style="opacity:0.004" fill="#76bef1" d="M 749.5,178.5 C 750.833,179.167 750.833,179.167 749.5,178.5 Z"/></g>
<g><path style="opacity:0.008" fill="#77bff3" d="M 248.5,194.5 C 249.833,195.167 249.833,195.167 248.5,194.5 Z"/></g>
<g><path style="opacity:0.004" fill="#76bef1" d="M 774.5,194.5 C 775.833,195.167 775.833,195.167 774.5,194.5 Z"/></g>
<g><path style="opacity:0.008" fill="#77bff3" d="M 241.5,200.5 C 240.761,200.631 240.094,200.464 239.5,200C 240.437,199.308 241.103,199.475 241.5,200.5 Z"/></g>
<g><path style="opacity:0.004" fill="#76bef1" d="M 784.5,199.5 C 785.833,200.167 785.833,200.167 784.5,199.5 Z"/></g>
<g><path style="opacity:0.004" fill="#76bef1" d="M 235.5,200.5 C 236.833,201.167 236.833,201.167 235.5,200.5 Z"/></g>
<g><path style="opacity:0.008" fill="#77bff3" d="M 788.5,202.5 C 789.833,203.167 789.833,203.167 788.5,202.5 Z"/></g>
<g><path style="opacity:0.979" fill="#7dcbfc" d="M 745.5,179.5 C 755.033,185.099 764.7,190.433 774.5,195.5C 778.833,198.669 783.5,201.336 788.5,203.5C 792.63,206.403 796.963,209.07 801.5,211.5C 802.833,212.5 804.167,213.5 805.5,214.5C 805.44,215.043 805.107,215.376 804.5,215.5C 784.649,203.833 764.649,192.333 744.5,181C 743.288,179.893 743.621,179.393 745.5,179.5 Z"/></g>
<g><path style="opacity:0.008" fill="#77bff3" d="M 804.5,207.5 C 805.833,208.167 805.833,208.167 804.5,207.5 Z"/></g>
<g><path style="opacity:0.008" fill="#77bff3" d="M 224.5,208.5 C 225.833,209.167 225.833,209.167 224.5,208.5 Z"/></g>
<g><path style="opacity:0.004" fill="#76bef1" d="M 215.5,211.5 C 215.897,210.475 216.563,210.308 217.5,211C 216.906,211.464 216.239,211.631 215.5,211.5 Z"/></g>
<g><path style="opacity:0.008" fill="#77bff3" d="M 801.5,210.5 C 802.833,211.167 802.833,211.167 801.5,210.5 Z"/></g>
<g><path style="opacity:0.008" fill="#77bff3" d="M 804.5,210.5 C 805.833,211.167 805.833,211.167 804.5,210.5 Z"/></g>
<g><path style="opacity:0.004" fill="#76bef1" d="M 806.5,212.5 C 807.833,213.167 807.833,213.167 806.5,212.5 Z"/></g>
<g><path style="opacity:0.004" fill="#76bef1" d="M 820.5,216.5 C 821.833,217.167 821.833,217.167 820.5,216.5 Z"/></g>
<g><path style="opacity:0.008" fill="#77bff3" d="M 817.5,218.5 C 818.833,219.167 818.833,219.167 817.5,218.5 Z"/></g>
<g><path style="opacity:0.004" fill="#76bef1" d="M 820.5,220.5 C 821.833,221.167 821.833,221.167 820.5,220.5 Z"/></g>
<g><path style="opacity:0.98" fill="#7ecdfd" d="M 217.5,215.5 C 218.239,215.369 218.906,215.536 219.5,216C 207.963,223.033 196.297,229.866 184.5,236.5C 183.893,236.376 183.56,236.043 183.5,235.5C 194.551,228.47 205.884,221.803 217.5,215.5 Z"/></g>
<g><path style="opacity:0.98" fill="#7eccfc" d="M 808.5,216.5 C 821.14,223.488 833.806,230.488 846.5,237.5C 846.5,238.167 846.833,238.5 847.5,238.5C 847.631,239.376 847.298,240.043 846.5,240.5C 833.277,232.259 820.277,224.759 807.5,218C 806.288,216.893 806.621,216.393 808.5,216.5 Z"/></g>
<g><path style="opacity:0.004" fill="#76bef1" d="M 193.5,226.5 C 194.833,227.167 194.833,227.167 193.5,226.5 Z"/></g>
<g><path style="opacity:0.906" fill="#7dcbfc" d="M 812.5,245.5 C 801.15,239.139 789.816,232.805 778.5,226.5C 771.175,222.17 763.841,217.837 756.5,213.5C 753.253,211.721 750.253,209.721 747.5,207.5C 746.537,206.637 746.537,205.97 747.5,205.5C 769.971,218.905 792.637,232.072 815.5,245C 814.552,245.483 813.552,245.649 812.5,245.5 Z"/></g>
<g><path style="opacity:0.016" fill="#78c0f5" d="M 846.5,236.5 C 847.833,237.167 847.833,237.167 846.5,236.5 Z"/></g>
<g><path style="opacity:0.004" fill="#76bef1" d="M 172.5,239.5 C 173.833,240.167 173.833,240.167 172.5,239.5 Z"/></g>
<g><path style="opacity:0.004" fill="#76bef1" d="M 154.5,247.5 C 155.833,248.167 155.833,248.167 154.5,247.5 Z"/></g>
<g><path style="opacity:0.008" fill="#77bff3" d="M 865.5,247.5 C 866.833,248.167 866.833,248.167 865.5,247.5 Z"/></g>
<g><path style="opacity:0.004" fill="#76bef1" d="M 867.5,248.5 C 868.833,249.167 868.833,249.167 867.5,248.5 Z"/></g>
<g><path style="opacity:0.004" fill="#76bef1" d="M 156.5,250.5 C 155.833,249.167 155.833,249.167 156.5,250.5 Z"/></g>
<g><path style="opacity:0.024" fill="#79c1f6" d="M 151.5,250.5 C 152.833,251.167 152.833,251.167 151.5,250.5 Z"/></g>
<g><path style="opacity:0.004" fill="#76bef1" d="M 142.5,256.5 C 143.833,257.167 143.833,257.167 142.5,256.5 Z"/></g>
<g><path style="opacity:0.004" fill="#76bef1" d="M 886.5,258.5 C 887.833,259.167 887.833,259.167 886.5,258.5 Z"/></g>
<g><path style="opacity:0.993" fill="#7eccfd" d="M 180.5,237.5 C 181.239,237.369 181.906,237.536 182.5,238C 163.594,249.521 144.594,260.854 125.5,272C 121.813,275.21 118.979,279.044 117,283.5C 115.893,284.712 115.393,284.379 115.5,282.5C 118.06,275.941 122.394,270.941 128.5,267.5C 130.434,266.89 132.101,265.89 133.5,264.5C 141.402,260.057 149.068,255.39 156.5,250.5C 164.473,246.179 172.473,241.846 180.5,237.5 Z"/></g>
<g><path style="opacity:0.008" fill="#77bff3" d="M 133.5,264.5 C 132.833,263.167 132.833,263.167 133.5,264.5 Z"/></g>
<g><path style="opacity:0.008" fill="#77bff3" d="M 894.5,263.5 C 895.833,264.167 895.833,264.167 894.5,263.5 Z"/></g>
<g><path style="opacity:0.004" fill="#76bef1" d="M 128.5,267.5 C 127.475,267.103 127.308,266.437 128,265.5C 128.464,266.094 128.631,266.761 128.5,267.5 Z"/></g>
<g><path style="opacity:0.008" fill="#77bff3" d="M 897.5,266.5 C 898.833,267.167 898.833,267.167 897.5,266.5 Z"/></g>
<g><path style="opacity:0.945" fill="#7eccfd" d="M 874.5,281.5 C 867.14,277.488 859.806,273.488 852.5,269.5C 850.833,268.167 849.167,266.833 847.5,265.5C 846.031,263.895 846.365,263.395 848.5,264C 858.002,269.919 867.669,275.586 877.5,281C 876.552,281.483 875.552,281.649 874.5,281.5 Z"/></g>
<g><path style="opacity:0.004" fill="#76bef1" d="M 116.5,275.5 C 117.833,276.167 117.833,276.167 116.5,275.5 Z"/></g>
<g><path style="opacity:0.008" fill="#77bff3" d="M 909.5,277.5 C 910.833,278.167 910.833,278.167 909.5,277.5 Z"/></g>
<g><path style="opacity:0.004" fill="#76bef1" d="M 113.5,280.5 C 114.833,281.167 114.833,281.167 113.5,280.5 Z"/></g>
<g><path style="opacity:0.672" fill="#77c4fa" d="M 113.5,289.5 C 113.5,432.5 113.5,575.5 113.5,718.5C 113.5,718.833 113.5,719.167 113.5,719.5C 112.733,718.828 112.066,717.995 111.5,717C 112.166,574.402 112.833,431.902 113.5,289.5 Z"/></g>
<g><path style="opacity:0.984" fill="#7eccfd" d="M 872.5,285.5 C 873.239,285.369 873.906,285.536 874.5,286C 866.628,290.7 858.628,295.2 850.5,299.5C 849.893,299.376 849.56,299.043 849.5,298.5C 850.167,297.833 850.833,297.167 851.5,296.5C 858.342,292.578 865.342,288.912 872.5,285.5 Z"/></g>
<g><path style="opacity:0.982" fill="#7eccfc" d="M 149.5,284.5 C 158.833,289.5 168.167,294.5 177.5,299.5C 182.672,302.585 187.672,305.919 192.5,309.5C 193.85,310.65 193.684,311.317 192,311.5C 177.661,301.969 163.828,293.636 150.5,286.5C 149.702,286.043 149.369,285.376 149.5,284.5 Z"/></g>
<g><path style="opacity:0.92" fill="#6ebafa" d="M 134.5,302.5 C 135.167,302.5 135.5,302.833 135.5,303.5C 136.833,305.167 136.833,306.833 135.5,308.5C 135.802,311.059 135.468,313.393 134.5,315.5C 134.5,311.167 134.5,306.833 134.5,302.5 Z"/></g>
<g><path style="opacity:0.984" fill="#7dcbfc" d="M 210.5,319.5 C 218.199,323.344 225.532,327.678 232.5,332.5C 233.463,333.363 233.463,334.03 232.5,334.5C 224.631,329.468 216.631,324.635 208.5,320C 209.094,319.536 209.761,319.369 210.5,319.5 Z"/></g>
<g><path style="opacity:0.933" fill="#6fbbf9" d="M 134.5,364.5 C 135.499,402.663 135.832,440.996 135.5,479.5C 136.331,541.452 136.331,602.452 135.5,662.5C 135.829,676.677 135.496,690.677 134.5,704.5C 134.5,591.167 134.5,477.833 134.5,364.5 Z"/></g>
<g><path style="opacity:0.991" fill="#75c4ff" d="M 910.5,294.5 C 911.833,436.001 911.833,577.667 910.5,719.5C 910.339,578 910.339,436.334 910.5,294.5 Z"/></g>
<g><path style="opacity:1" fill="#7eccfc" d="M 297.5,370.5 C 312.671,378.917 327.671,387.584 342.5,396.5C 343.463,397.363 343.463,398.03 342.5,398.5C 326.866,389.347 311.199,380.18 295.5,371C 296.094,370.536 296.761,370.369 297.5,370.5 Z"/></g>
<g><path style="opacity:0.965" fill="#7fcefd" d="M 676.5,400.5 C 677.239,400.369 677.906,400.536 678.5,401C 670.667,405.416 663,410.082 655.5,415C 653.365,415.605 653.031,415.105 654.5,413.5C 661.496,408.666 668.829,404.333 676.5,400.5 Z"/></g>
<g><path style="opacity:0.019" fill="#76bff6" d="M 135.5,308.5 C 136.833,365.5 136.833,422.5 135.5,479.5C 135.832,440.996 135.499,402.663 134.5,364.5C 134.5,348.167 134.5,331.833 134.5,315.5C 135.468,313.393 135.802,311.059 135.5,308.5 Z"/></g>
<g><path style="opacity:0.957" fill="#7dcbfc" d="M 349.5,400.5 C 368.568,412.032 387.901,423.032 407.5,433.5C 411.164,436.335 415.164,438.668 419.5,440.5C 425.665,444.75 431.998,448.75 438.5,452.5C 439.85,453.65 439.684,454.317 438,454.5C 432.127,450.566 426.127,446.9 420,443.5C 396.108,429.773 371.942,415.606 347.5,401C 348.094,400.536 348.761,400.369 349.5,400.5 Z"/></g>
<g><path style="opacity:0.004" fill="#76bef1" d="M 914.5,414.5 C 915.833,415.167 915.833,415.167 914.5,414.5 Z"/></g>
<g><path style="opacity:0.992" fill="#7dcdfe" d="M 891.5,353.5 C 892.117,353.611 892.617,353.944 893,354.5C 893.167,358.333 893.333,362.167 893.5,366C 892.881,394.921 892.881,423.421 893.5,451.5C 893.333,459.5 893.167,467.5 893,475.5C 892.819,472.305 892.319,469.305 891.5,466.5C 891.5,428.833 891.5,391.167 891.5,353.5 Z"/></g>
<g><path style="opacity:0.982" fill="#7eccfc" d="M 353.5,429.5 C 351.83,429.249 350.33,428.582 349,427.5C 348.667,427.833 348.333,428.167 348,428.5C 347.722,427.584 347.222,426.918 346.5,426.5C 341.167,423.167 335.833,419.833 330.5,416.5C 329.031,414.895 329.365,414.395 331.5,415C 339.172,420.171 347.172,424.838 355.5,429C 354.906,429.464 354.239,429.631 353.5,429.5 Z"/></g>
<g><path style="opacity:0.004" fill="#76bef1" d="M 918.5,434.5 C 919.833,435.167 919.833,435.167 918.5,434.5 Z"/></g>
<g><path style="opacity:1" fill="#7eccfd" d="M 633.5,424.5 C 634.167,424.5 634.833,424.5 635.5,424.5C 637.379,424.393 637.712,424.893 636.5,426C 624.833,432.833 613.167,439.667 601.5,446.5C 600.893,446.376 600.56,446.043 600.5,445.5C 601.167,444.833 601.833,444.167 602.5,443.5C 613.37,437.905 623.704,431.572 633.5,424.5 Z"/></g>
<g><path style="opacity:0.049" fill="#76bff5" d="M 891.5,353.5 C 891.5,391.167 891.5,428.833 891.5,466.5C 891.5,491.833 891.5,517.167 891.5,542.5C 891.5,566.167 891.5,589.833 891.5,613.5C 891.5,615.167 891.5,616.833 891.5,618.5C 891.5,629.167 891.5,639.833 891.5,650.5C 891.5,652.167 891.5,653.833 891.5,655.5C 891.5,664.167 891.5,672.833 891.5,681.5C 891.667,692.838 891.5,704.172 891,715.5C 890.722,716.416 890.222,717.082 889.5,717.5C 889.672,716.508 889.338,715.842 888.5,715.5C 889.83,651.876 890.496,588.043 890.5,524C 890.444,449.523 890.11,375.356 889.5,301.5C 890.172,300.733 891.005,300.066 892,299.5C 891.528,317.418 891.361,335.418 891.5,353.5 Z"/></g>
<g><path style="opacity:0.995" fill="#7ecdfd" d="M 596.5,447.5 C 597.239,447.369 597.906,447.536 598.5,448C 590.967,452.931 583.301,457.598 575.5,462C 574.563,462.692 573.897,462.525 573.5,461.5C 578.5,458.167 583.5,454.833 588.5,451.5C 591.14,450.18 593.807,448.847 596.5,447.5 Z"/></g>
<g><path style="opacity:0.971" fill="#7ccafc" d="M 503.5,515.5 C 502.5,515.5 501.5,515.5 500.5,515.5C 499.833,515.5 499.167,515.5 498.5,515.5C 490.569,510.169 481.902,505.169 472.5,500.5C 469.534,498.012 466.201,496.012 462.5,494.5C 461.205,493.512 459.872,492.512 458.5,491.5C 458.369,490.761 458.536,490.094 459,489.5C 473.766,498.467 488.6,507.133 503.5,515.5 Z"/></g>
<g><path style="opacity:0.994" fill="#85d9ff" d="M 134.5,302.5 C 134.5,306.833 134.5,311.167 134.5,315.5C 134.5,331.833 134.5,348.167 134.5,364.5C 134.5,477.833 134.5,591.167 134.5,704.5C 134.423,708.215 134.756,711.881 135.5,715.5C 134.883,715.389 134.383,715.056 134,714.5C 133.167,576.999 133.334,439.666 134.5,302.5 Z"/></g>
<g><path style="opacity:1" fill="#85d7fe" d="M 114.5,285.5 C 114.509,429.633 114.509,573.967 114.5,718.5C 114.167,718.5 113.833,718.5 113.5,718.5C 113.5,575.5 113.5,432.5 113.5,289.5C 113.232,287.901 113.566,286.568 114.5,285.5 Z"/></g>
<g><path style="opacity:0.326" fill="#79c5fa" d="M 500.5,515.5 C 501.5,515.5 502.5,515.5 503.5,515.5C 504.324,539.761 504.824,564.094 505,588.5C 506.342,587.098 507.176,587.431 507.5,589.5C 507.201,591.815 506.368,591.815 505,589.5C 504.834,704.903 504.334,819.57 503.5,933.5C 503.635,794.49 503.469,655.823 503,517.5C 502.005,516.934 501.172,516.267 500.5,515.5 Z"/></g>
<g><path style="opacity:0.004" fill="#76bef1" d="M 916.5,544.5 C 917.833,545.167 917.833,545.167 916.5,544.5 Z"/></g>
<g><path style="opacity:0.992" fill="#7dcdfe" d="M 891.5,542.5 C 892.376,542.369 893.043,542.702 893.5,543.5C 893.586,567.858 893.419,592.524 893,617.5C 892.79,615.942 892.29,614.609 891.5,613.5C 891.5,589.833 891.5,566.167 891.5,542.5 Z"/></g>
<g><path style="opacity:0.004" fill="#76bef1" d="M 914.5,590.5 C 915.833,591.167 915.833,591.167 914.5,590.5 Z"/></g>
<g><path style="opacity:0.699" fill="#77c4fa" d="M 912.5,289.5 C 913.173,305.902 913.84,322.402 914.5,339C 913.834,466.264 913.168,593.431 912.5,720.5C 912.5,576.833 912.5,433.167 912.5,289.5 Z"/></g>
<g><path style="opacity:0.004" fill="#76bef1" d="M 914.5,636.5 C 915.833,637.167 915.833,637.167 914.5,636.5 Z"/></g>
<g><path style="opacity:1" fill="#7ecdfe" d="M 891.5,618.5 C 892.828,623.456 893.495,628.789 893.5,634.5C 893.495,640.211 892.828,645.544 891.5,650.5C 891.5,639.833 891.5,629.167 891.5,618.5 Z"/></g>
<g><path style="opacity:0.989" fill="#7ecdfe" d="M 891.5,681.5 C 891.5,672.833 891.5,664.167 891.5,655.5C 892.29,654.391 892.79,653.058 893,651.5C 893.167,655 893.333,658.5 893.5,662C 892.954,667.731 892.954,673.064 893.5,678C 892.915,679.302 892.249,680.469 891.5,681.5 Z"/></g>
<g><path style="opacity:0.02" fill="#77c0f5" d="M 135.5,662.5 C 136.497,679.992 136.83,697.659 136.5,715.5C 136.167,715.5 135.833,715.5 135.5,715.5C 134.756,711.881 134.423,708.215 134.5,704.5C 135.496,690.677 135.829,676.677 135.5,662.5 Z"/></g>
<g><path style="opacity:0.429" fill="#7ac5f8" d="M 526.5,516.5 C 527.354,628.874 527.354,738.541 526.5,845.5C 525.836,746.736 525.169,648.069 524.5,549.5C 523.856,538.116 524.523,527.116 526.5,516.5 Z"/></g>
<g><path style="opacity:0.988" fill="#7fcefd" d="M 113.5,718.5 C 113.833,718.5 114.167,718.5 114.5,718.5C 115.711,723.102 117.711,727.436 120.5,731.5C 120.03,732.463 119.363,732.463 118.5,731.5C 117.5,730.167 116.5,728.833 115.5,727.5C 115.047,726.542 114.381,725.708 113.5,725C 113.854,723.374 113.854,721.541 113.5,719.5C 113.5,719.167 113.5,718.833 113.5,718.5 Z"/></g>
<g><path style="opacity:0.004" fill="#76bef1" d="M 115.5,727.5 C 114.833,728.167 114.833,728.167 115.5,727.5 Z"/></g>
<g><path style="opacity:0.965" fill="#7ecbfc" d="M 137.5,717.5 C 140.614,720.565 144.28,722.899 148.5,724.5C 161.5,732.5 174.5,740.5 187.5,748.5C 188.969,750.105 188.635,750.605 186.5,750C 174.999,742.748 163.332,735.748 151.5,729C 149.285,727.956 146.952,727.29 144.5,727C 142.489,723.823 139.822,721.323 136.5,719.5C 135.127,717.192 135.46,716.525 137.5,717.5 Z"/></g>
<g><path style="opacity:0.008" fill="#77bff3" d="M 120.5,738.5 C 121.833,739.167 121.833,739.167 120.5,738.5 Z"/></g>
<g><path style="opacity:0.008" fill="#77bff3" d="M 122.5,740.5 C 123.833,741.167 123.833,741.167 122.5,740.5 Z"/></g>
<g><path style="opacity:0.004" fill="#76bef1" d="M 119.5,741.5 C 120.833,742.167 120.833,742.167 119.5,741.5 Z"/></g>
<g><path style="opacity:0.016" fill="#78c0f5" d="M 129.5,742.5 C 128.833,743.167 128.833,743.167 129.5,742.5 Z"/></g>
<g><path style="opacity:0.008" fill="#77bff3" d="M 895.5,742.5 C 896.239,742.369 896.906,742.536 897.5,743C 896.563,743.692 895.897,743.525 895.5,742.5 Z"/></g>
<g><path style="opacity:0.004" fill="#76bef1" d="M 889.5,746.5 C 890.833,747.167 890.833,747.167 889.5,746.5 Z"/></g>
<g><path style="opacity:0.004" fill="#76bef1" d="M 135.5,749.5 C 136.833,750.167 136.833,750.167 135.5,749.5 Z"/></g>
<g><path style="opacity:0.996" fill="#7eccfd" d="M 860.5,735.5 C 861.239,735.369 861.906,735.536 862.5,736C 852,742.082 841.666,748.416 831.5,755C 829.365,755.605 829.031,755.105 830.5,753.5C 832.167,752.167 833.833,750.833 835.5,749.5C 843.995,745.087 852.328,740.42 860.5,735.5 Z"/></g>
<g><path style="opacity:0.004" fill="#76bef1" d="M 141.5,750.5 C 142.833,751.167 142.833,751.167 141.5,750.5 Z"/></g>
<g><path style="opacity:0.004" fill="#76bef1" d="M 874.5,755.5 C 875.833,756.167 875.833,756.167 874.5,755.5 Z"/></g>
<g><path style="opacity:0.008" fill="#77bff3" d="M 155.5,758.5 C 156.833,759.167 156.833,759.167 155.5,758.5 Z"/></g>
<g><path style="opacity:0.98" fill="#7eccfc" d="M 175.5,768.5 C 164.064,762.489 153.397,756.156 143.5,749.5C 143.56,748.957 143.893,748.624 144.5,748.5C 155.807,754.486 166.807,760.986 177.5,768C 176.906,768.464 176.239,768.631 175.5,768.5 Z"/></g>
<g><path style="opacity:0.02" fill="#77bff4" d="M 817.5,760.5 C 815.972,760.483 815.472,759.816 816,758.5C 816.717,759.044 817.217,759.711 817.5,760.5 Z"/></g>
<g><path style="opacity:0.008" fill="#77bff3" d="M 161.5,762.5 C 162.833,763.167 162.833,763.167 161.5,762.5 Z"/></g>
<g><path style="opacity:0.008" fill="#77bff3" d="M 161.5,764.5 C 162.833,765.167 162.833,765.167 161.5,764.5 Z"/></g>
<g><path style="opacity:0.004" fill="#76bef1" d="M 175.5,769.5 C 174.833,770.167 174.833,770.167 175.5,769.5 Z"/></g>
<g><path style="opacity:0.008" fill="#77bff3" d="M 844.5,773.5 C 845.833,774.167 845.833,774.167 844.5,773.5 Z"/></g>
<g><path style="opacity:0.008" fill="#77bff3" d="M 178.5,774.5 C 179.833,775.167 179.833,775.167 178.5,774.5 Z"/></g>
<g><path style="opacity:0.004" fill="#76bef1" d="M 842.5,774.5 C 843.833,775.167 843.833,775.167 842.5,774.5 Z"/></g>
<g><path style="opacity:0.99" fill="#7dccfc" d="M 212.5,763.5 C 225.167,770.5 237.833,777.5 250.5,784.5C 250.5,784.833 250.5,785.167 250.5,785.5C 250.265,786.097 249.765,786.43 249,786.5C 236.867,779.187 224.7,772.02 212.5,765C 211.262,764.31 211.262,763.81 212.5,763.5 Z"/></g>
<g><path style="opacity:0.016" fill="#78c0f5" d="M 837.5,777.5 C 838.833,778.167 838.833,778.167 837.5,777.5 Z"/></g>
<g><path style="opacity:0.004" fill="#76bef1" d="M 190.5,778.5 C 189.833,779.167 189.833,779.167 190.5,778.5 Z"/></g>
<g><path style="opacity:0.004" fill="#76bef1" d="M 194.5,780.5 C 193.833,781.167 193.833,781.167 194.5,780.5 Z"/></g>
<g><path style="opacity:0.004" fill="#76bef1" d="M 834.5,781.5 C 835.833,782.167 835.833,782.167 834.5,781.5 Z"/></g>
<g><path style="opacity:0.004" fill="#76bef1" d="M 191.5,782.5 C 192.833,783.167 192.833,783.167 191.5,782.5 Z"/></g>
<g><path style="opacity:0.016" fill="#78c0f5" d="M 196.5,782.5 C 197.833,783.167 197.833,783.167 196.5,782.5 Z"/></g>
<g><path style="opacity:0.004" fill="#76bef1" d="M 829.5,782.5 C 830.833,783.167 830.833,783.167 829.5,782.5 Z"/></g>
<g><path style="opacity:0.004" fill="#76bef1" d="M 822.5,786.5 C 823.833,787.167 823.833,787.167 822.5,786.5 Z"/></g>
<g><path style="opacity:0.008" fill="#77bff3" d="M 207.5,789.5 C 208.833,790.167 208.833,790.167 207.5,789.5 Z"/></g>
<g><path style="opacity:0.008" fill="#77bff3" d="M 816.5,790.5 C 817.833,791.167 817.833,791.167 816.5,790.5 Z"/></g>
<g><path style="opacity:0.004" fill="#76bef1" d="M 809.5,794.5 C 810.833,795.167 810.833,795.167 809.5,794.5 Z"/></g>
<g><path style="opacity:0.016" fill="#78c0f5" d="M 804.5,798.5 C 805.833,799.167 805.833,799.167 804.5,798.5 Z"/></g>
<g><path style="opacity:0.004" fill="#76bef1" d="M 797.5,801.5 C 798.525,801.897 798.692,802.563 798,803.5C 797.536,802.906 797.369,802.239 797.5,801.5 Z"/></g>
<g><path style="opacity:0.004" fill="#76bef1" d="M 233.5,803.5 C 232.833,804.167 232.833,804.167 233.5,803.5 Z"/></g>
<g><path style="opacity:0.004" fill="#76bef1" d="M 790.5,805.5 C 791.833,806.167 791.833,806.167 790.5,805.5 Z"/></g>
<g><path style="opacity:0.008" fill="#77bff3" d="M 788.5,806.5 C 789.833,807.167 789.833,807.167 788.5,806.5 Z"/></g>
<g><path style="opacity:0.004" fill="#76bef1" d="M 241.5,810.5 C 242.525,810.897 242.692,811.563 242,812.5C 241.536,811.906 241.369,811.239 241.5,810.5 Z"/></g>
<g><path style="opacity:0.004" fill="#76bef1" d="M 243.5,810.5 C 244.833,811.167 244.833,811.167 243.5,810.5 Z"/></g>
<g><path style="opacity:0.008" fill="#77bff3" d="M 249.5,812.5 C 248.833,813.167 248.833,813.167 249.5,812.5 Z"/></g>
<g><path style="opacity:0.004" fill="#76bef1" d="M 778.5,813.5 C 779.833,814.167 779.833,814.167 778.5,813.5 Z"/></g>
<g><path style="opacity:0.004" fill="#76bef1" d="M 246.5,814.5 C 247.833,815.167 247.833,815.167 246.5,814.5 Z"/></g>
<g><path style="opacity:0.016" fill="#78c0f5" d="M 252.5,814.5 C 251.833,815.167 251.833,815.167 252.5,814.5 Z"/></g>
<g><path style="opacity:0.008" fill="#77bff3" d="M 257.5,818.5 C 258.833,819.167 258.833,819.167 257.5,818.5 Z"/></g>
<g><path style="opacity:0.008" fill="#77bff3" d="M 261.5,819.5 C 260.833,820.167 260.833,820.167 261.5,819.5 Z"/></g>
<g><path style="opacity:0.008" fill="#77bff3" d="M 764.5,820.5 C 765.833,821.167 765.833,821.167 764.5,820.5 Z"/></g>
<g><path style="opacity:0.008" fill="#77bff3" d="M 260.5,821.5 C 261.833,822.167 261.833,822.167 260.5,821.5 Z"/></g>
<g><path style="opacity:0.416" fill="#7eccfc" d="M 290.5,808.5 C 297.194,812.179 303.86,815.846 310.5,819.5C 313.833,821.833 317.167,824.167 320.5,826.5C 321.463,827.363 321.463,828.03 320.5,828.5C 316.334,825.583 312.001,822.916 307.5,820.5C 306.914,820.709 306.414,821.043 306,821.5C 305.535,820.069 304.701,818.903 303.5,818C 298.023,815.87 293.023,812.87 288.5,809C 289.094,808.536 289.761,808.369 290.5,808.5 Z"/></g>
<g><path style="opacity:0.004" fill="#76bef1" d="M 255.5,822.5 C 256.833,823.167 256.833,823.167 255.5,822.5 Z"/></g>
<g><path style="opacity:0.008" fill="#77bff3" d="M 262.5,822.5 C 263.833,823.167 263.833,823.167 262.5,822.5 Z"/></g>
<g><path style="opacity:0.008" fill="#77bff3" d="M 266.5,822.5 C 266.103,823.525 265.437,823.692 264.5,823C 265.094,822.536 265.761,822.369 266.5,822.5 Z"/></g>
<g><path style="opacity:0.008" fill="#77bff3" d="M 755.5,826.5 C 756.833,827.167 756.833,827.167 755.5,826.5 Z"/></g>
<g><path style="opacity:0.004" fill="#76bef1" d="M 272.5,827.5 C 273.833,828.167 273.833,828.167 272.5,827.5 Z"/></g>
<g><path style="opacity:0.004" fill="#76bef1" d="M 276.5,828.5 C 275.833,829.167 275.833,829.167 276.5,828.5 Z"/></g>
<g><path style="opacity:0.008" fill="#77bff3" d="M 288.5,835.5 C 287.833,836.167 287.833,836.167 288.5,835.5 Z"/></g>
<g><path style="opacity:0.936" fill="#7dccfc" d="M 325.5,829.5 C 329.316,830.909 332.983,832.576 336.5,834.5C 336.5,835.167 336.833,835.5 337.5,835.5C 340.5,837.5 343.5,839.5 346.5,841.5C 347.463,842.363 347.463,843.03 346.5,843.5C 343.749,841.707 340.916,840.041 338,838.5C 336.16,839.833 335.66,839.666 336.5,838C 332.431,834.937 328.098,832.27 323.5,830C 324.094,829.536 324.761,829.369 325.5,829.5 Z"/></g>
<g><path style="opacity:0.004" fill="#76bef1" d="M 290.5,837.5 C 291.833,838.167 291.833,838.167 290.5,837.5 Z"/></g>
<g><path style="opacity:0.004" fill="#76bef1" d="M 736.5,837.5 C 737.833,838.167 737.833,838.167 736.5,837.5 Z"/></g>
<g><path style="opacity:0.004" fill="#76bef1" d="M 738.5,836.5 C 739.525,836.897 739.692,837.563 739,838.5C 738.536,837.906 738.369,837.239 738.5,836.5 Z"/></g>
<g><path style="opacity:0.008" fill="#77bff3" d="M 300.5,842.5 C 299.833,843.167 299.833,843.167 300.5,842.5 Z"/></g>
<g><path style="opacity:0.008" fill="#77bff3" d="M 298.5,844.5 C 299.833,845.167 299.833,845.167 298.5,844.5 Z"/></g>
<g><path style="opacity:0.004" fill="#76bef1" d="M 301.5,846.5 C 302.833,847.167 302.833,847.167 301.5,846.5 Z"/></g>
<g><path style="opacity:0.004" fill="#76bef1" d="M 303.5,846.5 C 304.833,847.167 304.833,847.167 303.5,846.5 Z"/></g>
<g><path style="opacity:0.971" fill="#7eccfd" d="M 319.5,852.5 C 313.351,848.925 307.018,845.591 300.5,842.5C 297.833,840.5 295.167,838.5 292.5,836.5C 292.56,835.957 292.893,835.624 293.5,835.5C 302.657,841.127 311.991,846.627 321.5,852C 320.906,852.464 320.239,852.631 319.5,852.5 Z"/></g>
<g><path style="opacity:0.427" fill="#7ecdfc" d="M 524.5,549.5 C 525.169,648.069 525.836,746.736 526.5,845.5C 526.617,859.577 526.617,873.577 526.5,887.5C 525.675,891.647 525.175,895.981 525,900.5C 524.5,783.5 524.333,666.5 524.5,549.5 Z"/></g>
<g><path style="opacity:0.016" fill="#78c0f5" d="M 715.5,850.5 C 716.833,851.167 716.833,851.167 715.5,850.5 Z"/></g>
<g><path style="opacity:0.969" fill="#7ecbfc" d="M 352.5,845.5 C 359.658,848.912 366.658,852.578 373.5,856.5C 375.336,858.588 377.669,859.921 380.5,860.5C 381.306,861.728 382.306,862.728 383.5,863.5C 383.44,864.043 383.107,864.376 382.5,864.5C 372.161,858.491 361.828,852.491 351.5,846.5C 351.624,845.893 351.957,845.56 352.5,845.5 Z"/></g>
<g><path style="opacity:0.008" fill="#77bff3" d="M 311.5,853.5 C 312.833,854.167 312.833,854.167 311.5,853.5 Z"/></g>
<g><path style="opacity:0.004" fill="#76bef1" d="M 697.5,860.5 C 698.833,861.167 698.833,861.167 697.5,860.5 Z"/></g>
<g><path style="opacity:0.004" fill="#76bef1" d="M 332.5,862.5 C 333.833,863.167 333.833,863.167 332.5,862.5 Z"/></g>
<g><path style="opacity:0.008" fill="#77bff3" d="M 695.5,862.5 C 696.833,863.167 696.833,863.167 695.5,862.5 Z"/></g>
<g><path style="opacity:0.004" fill="#76bef1" d="M 340.5,867.5 C 341.833,868.167 341.833,868.167 340.5,867.5 Z"/></g>
<g><path style="opacity:0.016" fill="#78c0f5" d="M 683.5,869.5 C 684.833,870.167 684.833,870.167 683.5,869.5 Z"/></g>
<g><path style="opacity:0.016" fill="#78c0f5" d="M 678.5,872.5 C 679.833,873.167 679.833,873.167 678.5,872.5 Z"/></g>
<g><path style="opacity:0.991" fill="#7eccfd" d="M 654.5,858.5 C 655.239,858.369 655.906,858.536 656.5,859C 641.242,868.335 625.576,877.835 609.5,887.5C 608.893,887.376 608.56,887.043 608.5,886.5C 614.292,882.676 619.625,879.01 624.5,875.5C 626.674,875.25 628.341,874.25 629.5,872.5C 637.968,868.099 646.301,863.432 654.5,858.5 Z"/></g>
<g><path style="opacity:0.008" fill="#77bff3" d="M 675.5,874.5 C 676.833,875.167 676.833,875.167 675.5,874.5 Z"/></g>
<g><path style="opacity:0.004" fill="#76bef1" d="M 673.5,875.5 C 674.833,876.167 674.833,876.167 673.5,875.5 Z"/></g>
<g><path style="opacity:0.008" fill="#77bff3" d="M 360.5,877.5 C 359.833,878.167 359.833,878.167 360.5,877.5 Z"/></g>
<g><path style="opacity:0.004" fill="#76bef1" d="M 364.5,883.5 C 365.833,884.167 365.833,884.167 364.5,883.5 Z"/></g>
<g><path style="opacity:0.004" fill="#76bef1" d="M -0.5,890.5 C 0.833333,891.167 0.833333,891.167 -0.5,890.5 Z"/></g>
<g><path style="opacity:0.024" fill="#79c1f6" d="M 387.5,893.5 C 386.833,894.167 386.833,894.167 387.5,893.5 Z"/></g>
<g><path style="opacity:0.004" fill="#76bef1" d="M 389.5,894.5 C 388.833,895.167 388.833,895.167 389.5,894.5 Z"/></g>
<g><path style="opacity:0.008" fill="#77bff3" d="M 391.5,898.5 C 392.833,899.167 392.833,899.167 391.5,898.5 Z"/></g>
<g><path style="opacity:0.016" fill="#78c0f5" d="M 397.5,899.5 C 396.833,900.167 396.833,900.167 397.5,899.5 Z"/></g>
<g><path style="opacity:0.99" fill="#7dcbfc" d="M 440.5,923.5 C 426.328,915.246 411.995,907.246 397.5,899.5C 395.178,897.336 392.511,895.669 389.5,894.5C 389.158,893.662 388.492,893.328 387.5,893.5C 378.958,887.427 369.958,882.093 360.5,877.5C 360.5,877.167 360.5,876.833 360.5,876.5C 359.537,875.637 359.537,874.97 360.5,874.5C 386.586,889.95 413.586,905.783 441.5,922C 442.712,923.107 442.379,923.607 440.5,923.5 Z"/></g>
<g><path style="opacity:0.008" fill="#77bff3" d="M 408.5,908.5 C 409.833,909.167 409.833,909.167 408.5,908.5 Z"/></g>
<g><path style="opacity:0.004" fill="#76bef1" d="M 595.5,922.5 C 596.833,923.167 596.833,923.167 595.5,922.5 Z"/></g>
<g><path style="opacity:0.992" fill="#7eccfc" d="M 460.5,908.5 C 470.033,914.099 479.7,919.433 489.5,924.5C 491.657,926.412 493.991,928.079 496.5,929.5C 496.631,930.239 496.464,930.906 496,931.5C 482.874,923.531 470.04,916.031 457.5,909C 458.448,908.517 459.448,908.351 460.5,908.5 Z"/></g>
<g><path style="opacity:0.004" fill="#76bef1" d="M 597.5,926.5 C 598.833,927.167 598.833,927.167 597.5,926.5 Z"/></g>
<g><path style="opacity:0.004" fill="#76bef1" d="M 582.5,929.5 C 583.833,930.167 583.833,930.167 582.5,929.5 Z"/></g>
<g><path style="opacity:0.024" fill="#79c1f6" d="M 449.5,930.5 C 450.833,931.167 450.833,931.167 449.5,930.5 Z"/></g>
<g><path style="opacity:0.008" fill="#77bff3" d="M 452.5,931.5 C 451.833,932.167 451.833,932.167 452.5,931.5 Z"/></g>
<g><path style="opacity:0.004" fill="#76bef1" d="M 457.5,934.5 C 456.833,935.167 456.833,935.167 457.5,934.5 Z"/></g>
<g><path style="opacity:0.004" fill="#76bef1" d="M 572.5,936.5 C 573.833,937.167 573.833,937.167 572.5,936.5 Z"/></g>
<g><path style="opacity:0.016" fill="#78c0f5" d="M 464.5,939.5 C 465.833,940.167 465.833,940.167 464.5,939.5 Z"/></g>
<g><path style="opacity:0.004" fill="#76bef1" d="M 476.5,947.5 C 477.833,948.167 477.833,948.167 476.5,947.5 Z"/></g>
<g><path style="opacity:0.004" fill="#76bef1" d="M 477.5,950.5 C 478.833,951.167 478.833,951.167 477.5,950.5 Z"/></g>
<g><path style="opacity:0.004" fill="#76bef1" d="M 488.5,953.5 C 489.833,954.167 489.833,954.167 488.5,953.5 Z"/></g>
<g><path style="opacity:0.004" fill="#76bef1" d="M 537.5,956.5 C 538.833,957.167 538.833,957.167 537.5,956.5 Z"/></g>
<g><path style="opacity:0.008" fill="#77bff3" d="M 508.5,963.5 C 509.833,964.167 509.833,964.167 508.5,963.5 Z"/></g>
<g><path style="opacity:0.008" fill="#77bff3" d="M 526.5,964.5 C 527.833,965.167 527.833,965.167 526.5,964.5 Z"/></g>
</svg>
